G04 #@! TF.GenerationSoftware,KiCad,Pcbnew,5.1.6-c6e7f7d~87~ubuntu20.04.1*
G04 #@! TF.CreationDate,2020-08-06T14:16:39-04:00*
G04 #@! TF.ProjectId,Buoy_WithGSM,42756f79-5f57-4697-9468-47534d2e6b69,Leonardo Ward*
G04 #@! TF.SameCoordinates,Original*
G04 #@! TF.FileFunction,Copper,L2,Bot*
G04 #@! TF.FilePolarity,Positive*
%FSLAX46Y46*%
G04 Gerber Fmt 4.6, Leading zero omitted, Abs format (unit mm)*
G04 Created by KiCad (PCBNEW 5.1.6-c6e7f7d~87~ubuntu20.04.1) date 2020-08-06 14:16:39*
%MOMM*%
%LPD*%
G01*
G04 APERTURE LIST*
G04 #@! TA.AperFunction,ComponentPad*
%ADD10O,1.600000X1.600000*%
G04 #@! TD*
G04 #@! TA.AperFunction,ComponentPad*
%ADD11R,1.600000X1.600000*%
G04 #@! TD*
G04 #@! TA.AperFunction,ComponentPad*
%ADD12R,1.560000X1.560000*%
G04 #@! TD*
G04 #@! TA.AperFunction,ComponentPad*
%ADD13C,1.560000*%
G04 #@! TD*
G04 #@! TA.AperFunction,ComponentPad*
%ADD14C,2.540000*%
G04 #@! TD*
G04 #@! TA.AperFunction,ComponentPad*
%ADD15C,1.524000*%
G04 #@! TD*
G04 #@! TA.AperFunction,ComponentPad*
%ADD16O,1.700000X1.950000*%
G04 #@! TD*
G04 #@! TA.AperFunction,ComponentPad*
%ADD17R,3.000000X3.000000*%
G04 #@! TD*
G04 #@! TA.AperFunction,ComponentPad*
%ADD18C,3.000000*%
G04 #@! TD*
G04 #@! TA.AperFunction,ComponentPad*
%ADD19R,1.700000X1.700000*%
G04 #@! TD*
G04 #@! TA.AperFunction,ComponentPad*
%ADD20O,1.700000X1.700000*%
G04 #@! TD*
G04 #@! TA.AperFunction,ViaPad*
%ADD21C,0.800000*%
G04 #@! TD*
G04 #@! TA.AperFunction,Conductor*
%ADD22C,0.800000*%
G04 #@! TD*
G04 #@! TA.AperFunction,Conductor*
%ADD23C,0.254000*%
G04 #@! TD*
G04 APERTURE END LIST*
D10*
X155422600Y-146325400D03*
X155422600Y-143785400D03*
D11*
X107162600Y-137185400D03*
D10*
X155422600Y-106705400D03*
X107162600Y-134645400D03*
X155422600Y-109245400D03*
X107162600Y-132105400D03*
X155422600Y-111785400D03*
X107162600Y-129565400D03*
X155422600Y-114325400D03*
X107162600Y-127025400D03*
X155422600Y-116865400D03*
X107162600Y-124485400D03*
X155422600Y-119405400D03*
X107162600Y-121945400D03*
X155422600Y-123465400D03*
X107162600Y-119405400D03*
X155422600Y-126005400D03*
X107162600Y-114325400D03*
X155422600Y-128545400D03*
X107162600Y-111785400D03*
X155422600Y-131085400D03*
X107162600Y-109245400D03*
X155422600Y-133625400D03*
X107162600Y-106705400D03*
X155422600Y-136165400D03*
X107162600Y-104165400D03*
X155422600Y-138705400D03*
X107162600Y-101625400D03*
X155422600Y-141245400D03*
X155422600Y-101625400D03*
X155422600Y-104165400D03*
D12*
X110866601Y-48584401D03*
D13*
X110866601Y-51124401D03*
X110866601Y-94304401D03*
X110866601Y-53664401D03*
X110866601Y-56204401D03*
X110866601Y-58744401D03*
X110866601Y-61284401D03*
X110866601Y-63824401D03*
X110866601Y-66364401D03*
X110866601Y-68904401D03*
X110866601Y-71444401D03*
X110866601Y-73984401D03*
X110866601Y-76524401D03*
X110866601Y-79064401D03*
X110866601Y-81604401D03*
X110866601Y-84144401D03*
X110866601Y-86684401D03*
X110866601Y-89224401D03*
X110866601Y-91764401D03*
X136266601Y-48584401D03*
X136266601Y-51124401D03*
X136266601Y-53664401D03*
X136266601Y-56204401D03*
X136266601Y-58744401D03*
X136266601Y-61284401D03*
X136266601Y-63824401D03*
X136266601Y-66364401D03*
X136266601Y-68904401D03*
X136266601Y-71444401D03*
X136266601Y-73984401D03*
X136266601Y-76524401D03*
X136266601Y-79064401D03*
X136266601Y-81604401D03*
X136266601Y-84144401D03*
X136266601Y-86684401D03*
X136266601Y-89224401D03*
X136266601Y-91764401D03*
X136266601Y-94304401D03*
D14*
X114528600Y-44729400D03*
X114528600Y-65049400D03*
D15*
X143992600Y-65049400D03*
X143992600Y-62509400D03*
X143992600Y-59969400D03*
X143992600Y-57429400D03*
X143992600Y-54889400D03*
X143992600Y-52349400D03*
X143992600Y-49809400D03*
X143992600Y-47269400D03*
X143992600Y-44729400D03*
X142976600Y-72669400D03*
X142976600Y-75209400D03*
X142976600Y-77749400D03*
X142976600Y-80289400D03*
X142976600Y-82829400D03*
X142976600Y-85369400D03*
X142976600Y-87909400D03*
X142976600Y-90449400D03*
X142976600Y-92989400D03*
X117576600Y-82829400D03*
X117576600Y-80289400D03*
X117576600Y-77749400D03*
X117576600Y-75209400D03*
X117576600Y-72669400D03*
G04 #@! TA.AperFunction,ComponentPad*
G36*
G01*
X111646600Y-157976400D02*
X111646600Y-156526400D01*
G75*
G02*
X111896600Y-156276400I250000J0D01*
G01*
X113096600Y-156276400D01*
G75*
G02*
X113346600Y-156526400I0J-250000D01*
G01*
X113346600Y-157976400D01*
G75*
G02*
X113096600Y-158226400I-250000J0D01*
G01*
X111896600Y-158226400D01*
G75*
G02*
X111646600Y-157976400I0J250000D01*
G01*
G37*
G04 #@! TD.AperFunction*
D16*
X114996600Y-157251400D03*
X117496600Y-157251400D03*
D17*
X134848600Y-161315400D03*
D18*
X129768600Y-161315400D03*
X124688600Y-161315400D03*
D17*
X147548600Y-161315400D03*
D18*
X142468600Y-161315400D03*
D15*
X117322600Y-126771400D03*
X119862600Y-126771400D03*
X122402600Y-126771400D03*
X124942600Y-126771400D03*
X127482600Y-126771400D03*
X130022600Y-126771400D03*
X132562600Y-126771400D03*
X135102600Y-126771400D03*
X135102600Y-111531400D03*
X132562600Y-111531400D03*
X130022600Y-111531400D03*
X127482600Y-111531400D03*
X124942600Y-111531400D03*
X122402600Y-111531400D03*
X119862600Y-111531400D03*
X117322600Y-111531400D03*
D19*
X141960600Y-152171400D03*
D20*
X144500600Y-152171400D03*
X147040600Y-152171400D03*
X106908600Y-78511400D03*
X106908600Y-81051400D03*
D19*
X106908600Y-83591400D03*
X151968200Y-84175600D03*
D20*
X151968200Y-86715600D03*
X151968200Y-89255600D03*
X151968200Y-91795600D03*
D21*
X147040600Y-105943400D03*
X147040600Y-116611400D03*
X144500600Y-113055400D03*
X144500600Y-105943400D03*
X141706600Y-58699400D03*
X139166600Y-61239400D03*
X139166600Y-76479400D03*
X139166600Y-81559400D03*
X151612600Y-155219400D03*
X146024600Y-155219400D03*
X136372600Y-106959400D03*
X115544600Y-104419400D03*
X136372600Y-104419400D03*
X144449800Y-88696800D03*
X112826800Y-93319600D03*
X116001800Y-93243400D03*
X127889000Y-92532200D03*
X133527800Y-95732600D03*
X142951200Y-96266000D03*
D22*
X145608601Y-75301401D02*
X142976600Y-72669400D01*
X145608601Y-101517161D02*
X145608601Y-75301401D01*
X147040600Y-65557400D02*
X143992600Y-62509400D01*
X147040600Y-102387400D02*
X147040600Y-65557400D01*
X129768600Y-136677400D02*
X119862600Y-126771400D01*
X129768600Y-161315400D02*
X129768600Y-136677400D01*
X129768600Y-161315400D02*
X118592600Y-150139400D01*
X118592600Y-138455400D02*
X107162600Y-127025400D01*
X118592600Y-150139400D02*
X118592600Y-138455400D01*
X144500600Y-153373481D02*
X144500600Y-152171400D01*
X138658682Y-159215399D02*
X144500600Y-153373481D01*
X131868601Y-159215399D02*
X138658682Y-159215399D01*
X129768600Y-161315400D02*
X131868601Y-159215399D01*
X147040600Y-102387400D02*
X147040600Y-105943400D01*
X145516600Y-118373162D02*
X139420600Y-124469162D01*
X139420600Y-151663400D02*
X129768600Y-161315400D01*
X139420600Y-124469162D02*
X139420600Y-151663400D01*
X137896600Y-120167400D02*
X137896600Y-151155400D01*
X129768600Y-159283400D02*
X129768600Y-161315400D01*
X137896600Y-151155400D02*
X129768600Y-159283400D01*
X145516600Y-118135400D02*
X147040600Y-116611400D01*
X145516600Y-118373162D02*
X145516600Y-118135400D01*
X137896600Y-119659400D02*
X144500600Y-113055400D01*
X137896600Y-120167400D02*
X137896600Y-119659400D01*
X144500600Y-102625162D02*
X145608601Y-101517161D01*
X144500600Y-105943400D02*
X144500600Y-102625162D01*
X106908600Y-95783400D02*
X106908600Y-83591400D01*
X109486600Y-98361400D02*
X106908600Y-95783400D01*
X109486600Y-123761400D02*
X109486600Y-98361400D01*
X120624600Y-134899400D02*
X109486600Y-123761400D01*
X120624600Y-147967398D02*
X120624600Y-134899400D01*
X129768600Y-157111398D02*
X120624600Y-147967398D01*
X129768600Y-161315400D02*
X129768600Y-157111398D01*
X129768600Y-161315400D02*
X129768600Y-156565600D01*
X157622601Y-89830001D02*
X151968200Y-84175600D01*
X157622601Y-155321401D02*
X157622601Y-89830001D01*
X149528601Y-163415401D02*
X157622601Y-155321401D01*
X131868601Y-163415401D02*
X149528601Y-163415401D01*
X129768600Y-161315400D02*
X131868601Y-163415401D01*
X137491600Y-57429400D02*
X136266601Y-56204401D01*
X143992600Y-57429400D02*
X137491600Y-57429400D01*
X136311602Y-58699400D02*
X136266601Y-58744401D01*
X141706600Y-58699400D02*
X136311602Y-58699400D01*
X128183601Y-46507401D02*
X110866601Y-63824401D01*
X143230601Y-46507401D02*
X128183601Y-46507401D01*
X143992600Y-47269400D02*
X143230601Y-46507401D01*
X140166610Y-62239410D02*
X139166600Y-61239400D01*
X140166610Y-85099410D02*
X140166610Y-62239410D01*
X142976600Y-87909400D02*
X140166610Y-85099410D01*
X139166600Y-76479400D02*
X139166600Y-81559400D01*
X151612600Y-155219400D02*
X146024600Y-155219400D01*
X108110681Y-81051400D02*
X106908600Y-81051400D01*
X109486600Y-82427319D02*
X108110681Y-81051400D01*
X109486600Y-92924400D02*
X109486600Y-82427319D01*
X110866601Y-94304401D02*
X109486600Y-92924400D01*
X116670373Y-106959400D02*
X136372600Y-106959400D01*
X114544590Y-104833617D02*
X116670373Y-106959400D01*
X114544590Y-80202390D02*
X114544590Y-104833617D01*
X110866601Y-76524401D02*
X114544590Y-80202390D01*
X115544600Y-104419400D02*
X136372600Y-104419400D01*
X155422600Y-121945400D02*
X155422600Y-123465400D01*
X129946400Y-96469200D02*
X155422600Y-121945400D01*
X129946400Y-76123800D02*
X129946400Y-96469200D01*
X132085799Y-73984401D02*
X129946400Y-76123800D01*
X136266601Y-73984401D02*
X132085799Y-73984401D01*
X134886600Y-98869400D02*
X155422600Y-119405400D01*
X136266601Y-76524401D02*
X131394200Y-81396802D01*
X131394200Y-95377000D02*
X134886600Y-98869400D01*
X131394200Y-81396802D02*
X131394200Y-95377000D01*
X144449800Y-93531962D02*
X144449800Y-88696800D01*
X142322839Y-94351401D02*
X143630361Y-94351401D01*
X139166600Y-91195162D02*
X142322839Y-94351401D01*
X143630361Y-94351401D02*
X144449800Y-93531962D01*
X139166600Y-84504400D02*
X139166600Y-91195162D01*
X136266601Y-81604401D02*
X139166600Y-84504400D01*
X112826800Y-81024600D02*
X112826800Y-93319600D01*
X110866601Y-79064401D02*
X112826800Y-81024600D01*
X116713000Y-92532200D02*
X127889000Y-92532200D01*
X116001800Y-93243400D02*
X116713000Y-92532200D01*
X134061200Y-96266000D02*
X142951200Y-96266000D01*
X133527800Y-95732600D02*
X134061200Y-96266000D01*
X141614599Y-78927399D02*
X142976600Y-80289400D01*
X141614599Y-62273173D02*
X141614599Y-78927399D01*
X139580818Y-60239392D02*
X141614599Y-62273173D01*
X138752382Y-60239392D02*
X139580818Y-60239392D01*
X138166592Y-60825182D02*
X138752382Y-60239392D01*
X138166592Y-69544410D02*
X138166592Y-60825182D01*
X136266601Y-71444401D02*
X138166592Y-69544410D01*
D23*
G36*
X158064600Y-88808289D02*
G01*
X153456272Y-84199962D01*
X153456272Y-83325600D01*
X153444012Y-83201118D01*
X153407702Y-83081420D01*
X153348737Y-82971106D01*
X153269385Y-82874415D01*
X153172694Y-82795063D01*
X153062380Y-82736098D01*
X152942682Y-82699788D01*
X152818200Y-82687528D01*
X151118200Y-82687528D01*
X150993718Y-82699788D01*
X150874020Y-82736098D01*
X150763706Y-82795063D01*
X150667015Y-82874415D01*
X150587663Y-82971106D01*
X150528698Y-83081420D01*
X150492388Y-83201118D01*
X150480128Y-83325600D01*
X150480128Y-85025600D01*
X150492388Y-85150082D01*
X150528698Y-85269780D01*
X150587663Y-85380094D01*
X150667015Y-85476785D01*
X150763706Y-85556137D01*
X150874020Y-85615102D01*
X150946580Y-85637113D01*
X150814725Y-85768968D01*
X150652210Y-86012189D01*
X150540268Y-86282442D01*
X150483200Y-86569340D01*
X150483200Y-86861860D01*
X150540268Y-87148758D01*
X150652210Y-87419011D01*
X150814725Y-87662232D01*
X151021568Y-87869075D01*
X151195960Y-87985600D01*
X151021568Y-88102125D01*
X150814725Y-88308968D01*
X150652210Y-88552189D01*
X150540268Y-88822442D01*
X150483200Y-89109340D01*
X150483200Y-89401860D01*
X150540268Y-89688758D01*
X150652210Y-89959011D01*
X150814725Y-90202232D01*
X151021568Y-90409075D01*
X151203734Y-90530795D01*
X151086845Y-90600422D01*
X150870612Y-90795331D01*
X150696559Y-91028680D01*
X150571375Y-91291501D01*
X150526724Y-91438710D01*
X150648045Y-91668600D01*
X151841200Y-91668600D01*
X151841200Y-91648600D01*
X152095200Y-91648600D01*
X152095200Y-91668600D01*
X153288355Y-91668600D01*
X153409676Y-91438710D01*
X153365025Y-91291501D01*
X153239841Y-91028680D01*
X153065788Y-90795331D01*
X152849555Y-90600422D01*
X152732666Y-90530795D01*
X152914832Y-90409075D01*
X153121675Y-90202232D01*
X153284190Y-89959011D01*
X153396132Y-89688758D01*
X153453200Y-89401860D01*
X153453200Y-89109340D01*
X153396132Y-88822442D01*
X153284190Y-88552189D01*
X153121675Y-88308968D01*
X152914832Y-88102125D01*
X152740440Y-87985600D01*
X152914832Y-87869075D01*
X153121675Y-87662232D01*
X153284190Y-87419011D01*
X153396132Y-87148758D01*
X153409656Y-87080767D01*
X156587602Y-90258713D01*
X156587602Y-100786017D01*
X156537237Y-100710641D01*
X156337359Y-100510763D01*
X156102327Y-100353720D01*
X155841174Y-100245547D01*
X155563935Y-100190400D01*
X155281265Y-100190400D01*
X155004026Y-100245547D01*
X154742873Y-100353720D01*
X154507841Y-100510763D01*
X154307963Y-100710641D01*
X154150920Y-100945673D01*
X154042747Y-101206826D01*
X153987600Y-101484065D01*
X153987600Y-101766735D01*
X154042747Y-102043974D01*
X154150920Y-102305127D01*
X154307963Y-102540159D01*
X154507841Y-102740037D01*
X154740359Y-102895400D01*
X154507841Y-103050763D01*
X154307963Y-103250641D01*
X154150920Y-103485673D01*
X154042747Y-103746826D01*
X153987600Y-104024065D01*
X153987600Y-104306735D01*
X154042747Y-104583974D01*
X154150920Y-104845127D01*
X154307963Y-105080159D01*
X154507841Y-105280037D01*
X154740359Y-105435400D01*
X154507841Y-105590763D01*
X154307963Y-105790641D01*
X154150920Y-106025673D01*
X154042747Y-106286826D01*
X153987600Y-106564065D01*
X153987600Y-106846735D01*
X154042747Y-107123974D01*
X154150920Y-107385127D01*
X154307963Y-107620159D01*
X154507841Y-107820037D01*
X154740359Y-107975400D01*
X154507841Y-108130763D01*
X154307963Y-108330641D01*
X154150920Y-108565673D01*
X154042747Y-108826826D01*
X153987600Y-109104065D01*
X153987600Y-109386735D01*
X154042747Y-109663974D01*
X154150920Y-109925127D01*
X154307963Y-110160159D01*
X154507841Y-110360037D01*
X154740359Y-110515400D01*
X154507841Y-110670763D01*
X154307963Y-110870641D01*
X154150920Y-111105673D01*
X154042747Y-111366826D01*
X153987600Y-111644065D01*
X153987600Y-111926735D01*
X154042747Y-112203974D01*
X154150920Y-112465127D01*
X154307963Y-112700159D01*
X154507841Y-112900037D01*
X154740359Y-113055400D01*
X154507841Y-113210763D01*
X154307963Y-113410641D01*
X154150920Y-113645673D01*
X154042747Y-113906826D01*
X153987600Y-114184065D01*
X153987600Y-114466735D01*
X154042747Y-114743974D01*
X154150920Y-115005127D01*
X154307963Y-115240159D01*
X154507841Y-115440037D01*
X154740359Y-115595400D01*
X154507841Y-115750763D01*
X154307963Y-115950641D01*
X154150920Y-116185673D01*
X154042747Y-116446826D01*
X154023665Y-116542754D01*
X144460354Y-106979443D01*
X144500600Y-106983407D01*
X144551438Y-106978400D01*
X144602539Y-106978400D01*
X144652658Y-106968431D01*
X144703494Y-106963424D01*
X144752374Y-106948596D01*
X144802498Y-106938626D01*
X144849716Y-106919068D01*
X144898592Y-106904241D01*
X144943639Y-106880163D01*
X144990856Y-106860605D01*
X145033347Y-106832214D01*
X145078397Y-106808134D01*
X145117884Y-106775728D01*
X145160374Y-106747337D01*
X145196508Y-106711203D01*
X145235996Y-106678796D01*
X145268403Y-106639308D01*
X145304537Y-106603174D01*
X145332928Y-106560684D01*
X145365334Y-106521197D01*
X145389414Y-106476146D01*
X145417805Y-106433656D01*
X145437362Y-106386442D01*
X145461441Y-106341393D01*
X145476269Y-106292513D01*
X145495826Y-106245298D01*
X145505796Y-106195177D01*
X145520624Y-106146295D01*
X145525631Y-106095457D01*
X145535600Y-106045339D01*
X145535600Y-103053872D01*
X146005600Y-102583873D01*
X146005601Y-105841456D01*
X146005600Y-105841461D01*
X146005600Y-106045339D01*
X146015571Y-106095467D01*
X146020577Y-106146295D01*
X146035403Y-106195168D01*
X146045374Y-106245298D01*
X146064935Y-106292522D01*
X146079760Y-106341393D01*
X146103835Y-106386434D01*
X146123395Y-106433656D01*
X146151791Y-106476153D01*
X146175867Y-106521197D01*
X146208268Y-106560678D01*
X146236663Y-106603174D01*
X146272803Y-106639314D01*
X146305205Y-106678796D01*
X146344687Y-106711198D01*
X146380826Y-106747337D01*
X146423321Y-106775731D01*
X146462804Y-106808134D01*
X146507850Y-106832212D01*
X146550344Y-106860605D01*
X146597562Y-106880163D01*
X146642608Y-106904241D01*
X146691484Y-106919068D01*
X146738702Y-106938626D01*
X146788826Y-106948596D01*
X146837706Y-106963424D01*
X146888542Y-106968431D01*
X146938661Y-106978400D01*
X146989762Y-106978400D01*
X147040600Y-106983407D01*
X147091438Y-106978400D01*
X147142539Y-106978400D01*
X147192657Y-106968431D01*
X147243495Y-106963424D01*
X147292377Y-106948596D01*
X147342498Y-106938626D01*
X147389713Y-106919069D01*
X147438593Y-106904241D01*
X147483642Y-106880162D01*
X147530856Y-106860605D01*
X147573346Y-106832214D01*
X147618397Y-106808134D01*
X147657884Y-106775728D01*
X147700374Y-106747337D01*
X147736508Y-106711203D01*
X147775996Y-106678796D01*
X147808403Y-106639308D01*
X147844537Y-106603174D01*
X147872928Y-106560684D01*
X147905334Y-106521197D01*
X147929414Y-106476146D01*
X147957805Y-106433656D01*
X147977362Y-106386442D01*
X148001441Y-106341393D01*
X148016269Y-106292513D01*
X148035826Y-106245298D01*
X148045796Y-106195177D01*
X148060624Y-106146295D01*
X148065631Y-106095457D01*
X148075600Y-106045339D01*
X148075600Y-92152490D01*
X150526724Y-92152490D01*
X150571375Y-92299699D01*
X150696559Y-92562520D01*
X150870612Y-92795869D01*
X151086845Y-92990778D01*
X151336948Y-93139757D01*
X151611309Y-93237081D01*
X151841200Y-93116414D01*
X151841200Y-91922600D01*
X152095200Y-91922600D01*
X152095200Y-93116414D01*
X152325091Y-93237081D01*
X152599452Y-93139757D01*
X152849555Y-92990778D01*
X153065788Y-92795869D01*
X153239841Y-92562520D01*
X153365025Y-92299699D01*
X153409676Y-92152490D01*
X153288355Y-91922600D01*
X152095200Y-91922600D01*
X151841200Y-91922600D01*
X150648045Y-91922600D01*
X150526724Y-92152490D01*
X148075600Y-92152490D01*
X148075600Y-65608235D01*
X148080607Y-65557400D01*
X148075600Y-65506562D01*
X148060624Y-65354505D01*
X148001441Y-65159407D01*
X147918256Y-65003778D01*
X147905334Y-64979602D01*
X147808403Y-64861492D01*
X147775996Y-64822004D01*
X147736508Y-64789597D01*
X145389600Y-62442690D01*
X145389600Y-62371808D01*
X145335914Y-62101910D01*
X145230605Y-61847673D01*
X145077720Y-61618865D01*
X144883135Y-61424280D01*
X144654327Y-61271395D01*
X144582657Y-61241708D01*
X144595623Y-61237036D01*
X144711580Y-61175056D01*
X144778560Y-60934965D01*
X143992600Y-60149005D01*
X143206640Y-60934965D01*
X143273620Y-61175056D01*
X143409360Y-61238885D01*
X143330873Y-61271395D01*
X143102065Y-61424280D01*
X142907480Y-61618865D01*
X142754595Y-61847673D01*
X142649286Y-62101910D01*
X142641563Y-62140738D01*
X142634623Y-62070278D01*
X142575440Y-61875180D01*
X142527784Y-61786022D01*
X142479333Y-61695375D01*
X142382402Y-61577265D01*
X142349995Y-61537777D01*
X142310507Y-61505370D01*
X140846554Y-60041417D01*
X142590690Y-60041417D01*
X142631678Y-60313533D01*
X142724964Y-60572423D01*
X142786944Y-60688380D01*
X143027035Y-60755360D01*
X143812995Y-59969400D01*
X144172205Y-59969400D01*
X144958165Y-60755360D01*
X145198256Y-60688380D01*
X145315356Y-60439352D01*
X145381623Y-60172265D01*
X145394510Y-59897383D01*
X145353522Y-59625267D01*
X145260236Y-59366377D01*
X145198256Y-59250420D01*
X144958165Y-59183440D01*
X144172205Y-59969400D01*
X143812995Y-59969400D01*
X143027035Y-59183440D01*
X142786944Y-59250420D01*
X142669844Y-59499448D01*
X142603577Y-59766535D01*
X142590690Y-60041417D01*
X140846554Y-60041417D01*
X140539536Y-59734400D01*
X141808539Y-59734400D01*
X141858657Y-59724431D01*
X141909495Y-59719424D01*
X141958377Y-59704596D01*
X142008498Y-59694626D01*
X142055713Y-59675069D01*
X142104593Y-59660241D01*
X142149642Y-59636162D01*
X142196856Y-59616605D01*
X142239346Y-59588214D01*
X142284397Y-59564134D01*
X142323884Y-59531728D01*
X142366374Y-59503337D01*
X142402508Y-59467203D01*
X142441996Y-59434796D01*
X142474404Y-59395307D01*
X142510537Y-59359174D01*
X142538928Y-59316684D01*
X142571334Y-59277197D01*
X142595414Y-59232146D01*
X142623805Y-59189656D01*
X142643362Y-59142442D01*
X142667441Y-59097393D01*
X142682269Y-59048513D01*
X142701826Y-59001298D01*
X142711796Y-58951177D01*
X142726624Y-58902295D01*
X142731631Y-58851457D01*
X142741600Y-58801339D01*
X142741600Y-58750238D01*
X142746607Y-58699400D01*
X142741600Y-58648562D01*
X142741600Y-58597461D01*
X142731631Y-58547343D01*
X142726624Y-58496505D01*
X142716885Y-58464400D01*
X143051945Y-58464400D01*
X143102065Y-58514520D01*
X143330873Y-58667405D01*
X143402543Y-58697092D01*
X143389577Y-58701764D01*
X143273620Y-58763744D01*
X143206640Y-59003835D01*
X143992600Y-59789795D01*
X144778560Y-59003835D01*
X144711580Y-58763744D01*
X144575840Y-58699915D01*
X144654327Y-58667405D01*
X144883135Y-58514520D01*
X145077720Y-58319935D01*
X145230605Y-58091127D01*
X145335914Y-57836890D01*
X145389600Y-57566992D01*
X145389600Y-57291808D01*
X145335914Y-57021910D01*
X145230605Y-56767673D01*
X145077720Y-56538865D01*
X144883135Y-56344280D01*
X144654327Y-56191395D01*
X144577085Y-56159400D01*
X144654327Y-56127405D01*
X144883135Y-55974520D01*
X145077720Y-55779935D01*
X145230605Y-55551127D01*
X145335914Y-55296890D01*
X145389600Y-55026992D01*
X145389600Y-54751808D01*
X145335914Y-54481910D01*
X145230605Y-54227673D01*
X145077720Y-53998865D01*
X144883135Y-53804280D01*
X144654327Y-53651395D01*
X144577085Y-53619400D01*
X144654327Y-53587405D01*
X144883135Y-53434520D01*
X145077720Y-53239935D01*
X145230605Y-53011127D01*
X145335914Y-52756890D01*
X145389600Y-52486992D01*
X145389600Y-52211808D01*
X145335914Y-51941910D01*
X145230605Y-51687673D01*
X145077720Y-51458865D01*
X144883135Y-51264280D01*
X144654327Y-51111395D01*
X144577085Y-51079400D01*
X144654327Y-51047405D01*
X144883135Y-50894520D01*
X145077720Y-50699935D01*
X145230605Y-50471127D01*
X145335914Y-50216890D01*
X145389600Y-49946992D01*
X145389600Y-49671808D01*
X145335914Y-49401910D01*
X145230605Y-49147673D01*
X145077720Y-48918865D01*
X144883135Y-48724280D01*
X144654327Y-48571395D01*
X144577085Y-48539400D01*
X144654327Y-48507405D01*
X144883135Y-48354520D01*
X145077720Y-48159935D01*
X145230605Y-47931127D01*
X145335914Y-47676890D01*
X145389600Y-47406992D01*
X145389600Y-47131808D01*
X145335914Y-46861910D01*
X145230605Y-46607673D01*
X145077720Y-46378865D01*
X144883135Y-46184280D01*
X144654327Y-46031395D01*
X144577085Y-45999400D01*
X144654327Y-45967405D01*
X144883135Y-45814520D01*
X145077720Y-45619935D01*
X145230605Y-45391127D01*
X145335914Y-45136890D01*
X145389600Y-44866992D01*
X145389600Y-44591808D01*
X145335914Y-44321910D01*
X145230605Y-44067673D01*
X145077720Y-43838865D01*
X144883135Y-43644280D01*
X144654327Y-43491395D01*
X144400090Y-43386086D01*
X144130192Y-43332400D01*
X143855008Y-43332400D01*
X143585110Y-43386086D01*
X143330873Y-43491395D01*
X143102065Y-43644280D01*
X142907480Y-43838865D01*
X142754595Y-44067673D01*
X142649286Y-44321910D01*
X142595600Y-44591808D01*
X142595600Y-44866992D01*
X142649286Y-45136890D01*
X142754595Y-45391127D01*
X142808901Y-45472401D01*
X128234428Y-45472401D01*
X128183600Y-45467395D01*
X128132772Y-45472401D01*
X128132763Y-45472401D01*
X127980706Y-45487377D01*
X127785608Y-45546560D01*
X127701910Y-45591297D01*
X127605803Y-45642667D01*
X127487693Y-45739598D01*
X127448205Y-45772005D01*
X127415798Y-45811493D01*
X112248528Y-60978764D01*
X112227224Y-60871661D01*
X112120558Y-60614147D01*
X111965704Y-60382391D01*
X111768611Y-60185298D01*
X111536855Y-60030444D01*
X111498124Y-60014401D01*
X111536855Y-59998358D01*
X111768611Y-59843504D01*
X111965704Y-59646411D01*
X112120558Y-59414655D01*
X112227224Y-59157141D01*
X112281601Y-58883766D01*
X112281601Y-58605036D01*
X112227224Y-58331661D01*
X112120558Y-58074147D01*
X111965704Y-57842391D01*
X111768611Y-57645298D01*
X111536855Y-57490444D01*
X111498124Y-57474401D01*
X111536855Y-57458358D01*
X111768611Y-57303504D01*
X111965704Y-57106411D01*
X112120558Y-56874655D01*
X112227224Y-56617141D01*
X112281601Y-56343766D01*
X112281601Y-56065036D01*
X112227224Y-55791661D01*
X112120558Y-55534147D01*
X111965704Y-55302391D01*
X111768611Y-55105298D01*
X111536855Y-54950444D01*
X111498124Y-54934401D01*
X111536855Y-54918358D01*
X111768611Y-54763504D01*
X111965704Y-54566411D01*
X112120558Y-54334655D01*
X112227224Y-54077141D01*
X112281601Y-53803766D01*
X112281601Y-53525036D01*
X112227224Y-53251661D01*
X112120558Y-52994147D01*
X111965704Y-52762391D01*
X111768611Y-52565298D01*
X111536855Y-52410444D01*
X111498124Y-52394401D01*
X111536855Y-52378358D01*
X111768611Y-52223504D01*
X111965704Y-52026411D01*
X112120558Y-51794655D01*
X112227224Y-51537141D01*
X112281601Y-51263766D01*
X112281601Y-50985036D01*
X112227224Y-50711661D01*
X112120558Y-50454147D01*
X111965704Y-50222391D01*
X111768611Y-50025298D01*
X111723165Y-49994932D01*
X111771083Y-49990213D01*
X111890781Y-49953903D01*
X112001095Y-49894938D01*
X112097786Y-49815586D01*
X112177138Y-49718895D01*
X112236103Y-49608581D01*
X112272413Y-49488883D01*
X112284673Y-49364401D01*
X112284673Y-47804401D01*
X112272413Y-47679919D01*
X112236103Y-47560221D01*
X112177138Y-47449907D01*
X112097786Y-47353216D01*
X112001095Y-47273864D01*
X111890781Y-47214899D01*
X111771083Y-47178589D01*
X111646601Y-47166329D01*
X110086601Y-47166329D01*
X109962119Y-47178589D01*
X109842421Y-47214899D01*
X109732107Y-47273864D01*
X109635416Y-47353216D01*
X109556064Y-47449907D01*
X109497099Y-47560221D01*
X109460789Y-47679919D01*
X109448529Y-47804401D01*
X109448529Y-49364401D01*
X109460789Y-49488883D01*
X109497099Y-49608581D01*
X109556064Y-49718895D01*
X109635416Y-49815586D01*
X109732107Y-49894938D01*
X109842421Y-49953903D01*
X109962119Y-49990213D01*
X110010037Y-49994932D01*
X109964591Y-50025298D01*
X109767498Y-50222391D01*
X109612644Y-50454147D01*
X109505978Y-50711661D01*
X109451601Y-50985036D01*
X109451601Y-51263766D01*
X109505978Y-51537141D01*
X109612644Y-51794655D01*
X109767498Y-52026411D01*
X109964591Y-52223504D01*
X110196347Y-52378358D01*
X110235078Y-52394401D01*
X110196347Y-52410444D01*
X109964591Y-52565298D01*
X109767498Y-52762391D01*
X109612644Y-52994147D01*
X109505978Y-53251661D01*
X109451601Y-53525036D01*
X109451601Y-53803766D01*
X109505978Y-54077141D01*
X109612644Y-54334655D01*
X109767498Y-54566411D01*
X109964591Y-54763504D01*
X110196347Y-54918358D01*
X110235078Y-54934401D01*
X110196347Y-54950444D01*
X109964591Y-55105298D01*
X109767498Y-55302391D01*
X109612644Y-55534147D01*
X109505978Y-55791661D01*
X109451601Y-56065036D01*
X109451601Y-56343766D01*
X109505978Y-56617141D01*
X109612644Y-56874655D01*
X109767498Y-57106411D01*
X109964591Y-57303504D01*
X110196347Y-57458358D01*
X110235078Y-57474401D01*
X110196347Y-57490444D01*
X109964591Y-57645298D01*
X109767498Y-57842391D01*
X109612644Y-58074147D01*
X109505978Y-58331661D01*
X109451601Y-58605036D01*
X109451601Y-58883766D01*
X109505978Y-59157141D01*
X109612644Y-59414655D01*
X109767498Y-59646411D01*
X109964591Y-59843504D01*
X110196347Y-59998358D01*
X110235078Y-60014401D01*
X110196347Y-60030444D01*
X109964591Y-60185298D01*
X109767498Y-60382391D01*
X109612644Y-60614147D01*
X109505978Y-60871661D01*
X109451601Y-61145036D01*
X109451601Y-61423766D01*
X109505978Y-61697141D01*
X109612644Y-61954655D01*
X109767498Y-62186411D01*
X109964591Y-62383504D01*
X110196347Y-62538358D01*
X110235078Y-62554401D01*
X110196347Y-62570444D01*
X109964591Y-62725298D01*
X109767498Y-62922391D01*
X109612644Y-63154147D01*
X109505978Y-63411661D01*
X109451601Y-63685036D01*
X109451601Y-63963766D01*
X109505978Y-64237141D01*
X109612644Y-64494655D01*
X109767498Y-64726411D01*
X109964591Y-64923504D01*
X110196347Y-65078358D01*
X110235078Y-65094401D01*
X110196347Y-65110444D01*
X109964591Y-65265298D01*
X109767498Y-65462391D01*
X109612644Y-65694147D01*
X109505978Y-65951661D01*
X109451601Y-66225036D01*
X109451601Y-66503766D01*
X109505978Y-66777141D01*
X109612644Y-67034655D01*
X109767498Y-67266411D01*
X109964591Y-67463504D01*
X110196347Y-67618358D01*
X110235078Y-67634401D01*
X110196347Y-67650444D01*
X109964591Y-67805298D01*
X109767498Y-68002391D01*
X109612644Y-68234147D01*
X109505978Y-68491661D01*
X109451601Y-68765036D01*
X109451601Y-69043766D01*
X109505978Y-69317141D01*
X109612644Y-69574655D01*
X109767498Y-69806411D01*
X109964591Y-70003504D01*
X110196347Y-70158358D01*
X110235078Y-70174401D01*
X110196347Y-70190444D01*
X109964591Y-70345298D01*
X109767498Y-70542391D01*
X109612644Y-70774147D01*
X109505978Y-71031661D01*
X109451601Y-71305036D01*
X109451601Y-71583766D01*
X109505978Y-71857141D01*
X109612644Y-72114655D01*
X109767498Y-72346411D01*
X109964591Y-72543504D01*
X110196347Y-72698358D01*
X110235078Y-72714401D01*
X110196347Y-72730444D01*
X109964591Y-72885298D01*
X109767498Y-73082391D01*
X109612644Y-73314147D01*
X109505978Y-73571661D01*
X109451601Y-73845036D01*
X109451601Y-74123766D01*
X109505978Y-74397141D01*
X109612644Y-74654655D01*
X109767498Y-74886411D01*
X109964591Y-75083504D01*
X110196347Y-75238358D01*
X110235078Y-75254401D01*
X110196347Y-75270444D01*
X109964591Y-75425298D01*
X109767498Y-75622391D01*
X109612644Y-75854147D01*
X109505978Y-76111661D01*
X109451601Y-76385036D01*
X109451601Y-76663766D01*
X109505978Y-76937141D01*
X109612644Y-77194655D01*
X109767498Y-77426411D01*
X109964591Y-77623504D01*
X110196347Y-77778358D01*
X110235078Y-77794401D01*
X110196347Y-77810444D01*
X109964591Y-77965298D01*
X109767498Y-78162391D01*
X109612644Y-78394147D01*
X109505978Y-78651661D01*
X109451601Y-78925036D01*
X109451601Y-79203766D01*
X109505978Y-79477141D01*
X109612644Y-79734655D01*
X109767498Y-79966411D01*
X109964591Y-80163504D01*
X110196347Y-80318358D01*
X110232126Y-80333178D01*
X110136946Y-80384052D01*
X110067785Y-80625980D01*
X110866601Y-81424796D01*
X110880744Y-81410654D01*
X111060349Y-81590259D01*
X111046206Y-81604401D01*
X111060349Y-81618544D01*
X110880744Y-81798149D01*
X110866601Y-81784006D01*
X110852459Y-81798149D01*
X110672854Y-81618544D01*
X110686996Y-81604401D01*
X109888180Y-80805585D01*
X109646252Y-80874746D01*
X109566607Y-81043615D01*
X108878488Y-80355497D01*
X108846077Y-80316004D01*
X108688478Y-80186666D01*
X108508674Y-80090559D01*
X108313576Y-80031376D01*
X108161519Y-80016400D01*
X108161509Y-80016400D01*
X108110681Y-80011394D01*
X108059853Y-80016400D01*
X107973707Y-80016400D01*
X107855232Y-79897925D01*
X107680840Y-79781400D01*
X107855232Y-79664875D01*
X108062075Y-79458032D01*
X108224590Y-79214811D01*
X108336532Y-78944558D01*
X108393600Y-78657660D01*
X108393600Y-78365140D01*
X108336532Y-78078242D01*
X108224590Y-77807989D01*
X108062075Y-77564768D01*
X107855232Y-77357925D01*
X107612011Y-77195410D01*
X107341758Y-77083468D01*
X107054860Y-77026400D01*
X106762340Y-77026400D01*
X106475442Y-77083468D01*
X106205189Y-77195410D01*
X105961968Y-77357925D01*
X105755125Y-77564768D01*
X105592610Y-77807989D01*
X105480668Y-78078242D01*
X105423600Y-78365140D01*
X105423600Y-78657660D01*
X105480668Y-78944558D01*
X105592610Y-79214811D01*
X105755125Y-79458032D01*
X105961968Y-79664875D01*
X106136360Y-79781400D01*
X105961968Y-79897925D01*
X105755125Y-80104768D01*
X105592610Y-80347989D01*
X105480668Y-80618242D01*
X105423600Y-80905140D01*
X105423600Y-81197660D01*
X105480668Y-81484558D01*
X105592610Y-81754811D01*
X105755125Y-81998032D01*
X105886980Y-82129887D01*
X105814420Y-82151898D01*
X105704106Y-82210863D01*
X105607415Y-82290215D01*
X105528063Y-82386906D01*
X105469098Y-82497220D01*
X105432788Y-82616918D01*
X105420528Y-82741400D01*
X105420528Y-84441400D01*
X105432788Y-84565882D01*
X105469098Y-84685580D01*
X105528063Y-84795894D01*
X105607415Y-84892585D01*
X105704106Y-84971937D01*
X105814420Y-85030902D01*
X105873601Y-85048854D01*
X105873600Y-95732572D01*
X105868594Y-95783400D01*
X105873600Y-95834228D01*
X105873600Y-95834237D01*
X105888576Y-95986294D01*
X105947759Y-96181392D01*
X106043866Y-96361197D01*
X106173204Y-96518796D01*
X106212697Y-96551207D01*
X108451601Y-98790112D01*
X108451601Y-100987489D01*
X108434280Y-100945673D01*
X108277237Y-100710641D01*
X108077359Y-100510763D01*
X107842327Y-100353720D01*
X107581174Y-100245547D01*
X107303935Y-100190400D01*
X107021265Y-100190400D01*
X106744026Y-100245547D01*
X106482873Y-100353720D01*
X106247841Y-100510763D01*
X106047963Y-100710641D01*
X105890920Y-100945673D01*
X105782747Y-101206826D01*
X105727600Y-101484065D01*
X105727600Y-101766735D01*
X105782747Y-102043974D01*
X105890920Y-102305127D01*
X106047963Y-102540159D01*
X106247841Y-102740037D01*
X106480359Y-102895400D01*
X106247841Y-103050763D01*
X106047963Y-103250641D01*
X105890920Y-103485673D01*
X105782747Y-103746826D01*
X105727600Y-104024065D01*
X105727600Y-104306735D01*
X105782747Y-104583974D01*
X105890920Y-104845127D01*
X106047963Y-105080159D01*
X106247841Y-105280037D01*
X106480359Y-105435400D01*
X106247841Y-105590763D01*
X106047963Y-105790641D01*
X105890920Y-106025673D01*
X105782747Y-106286826D01*
X105727600Y-106564065D01*
X105727600Y-106846735D01*
X105782747Y-107123974D01*
X105890920Y-107385127D01*
X106047963Y-107620159D01*
X106247841Y-107820037D01*
X106480359Y-107975400D01*
X106247841Y-108130763D01*
X106047963Y-108330641D01*
X105890920Y-108565673D01*
X105782747Y-108826826D01*
X105727600Y-109104065D01*
X105727600Y-109386735D01*
X105782747Y-109663974D01*
X105890920Y-109925127D01*
X106047963Y-110160159D01*
X106247841Y-110360037D01*
X106480359Y-110515400D01*
X106247841Y-110670763D01*
X106047963Y-110870641D01*
X105890920Y-111105673D01*
X105782747Y-111366826D01*
X105727600Y-111644065D01*
X105727600Y-111926735D01*
X105782747Y-112203974D01*
X105890920Y-112465127D01*
X106047963Y-112700159D01*
X106247841Y-112900037D01*
X106480359Y-113055400D01*
X106247841Y-113210763D01*
X106047963Y-113410641D01*
X105890920Y-113645673D01*
X105782747Y-113906826D01*
X105727600Y-114184065D01*
X105727600Y-114466735D01*
X105782747Y-114743974D01*
X105890920Y-115005127D01*
X106047963Y-115240159D01*
X106247841Y-115440037D01*
X106482873Y-115597080D01*
X106744026Y-115705253D01*
X107021265Y-115760400D01*
X107303935Y-115760400D01*
X107581174Y-115705253D01*
X107842327Y-115597080D01*
X108077359Y-115440037D01*
X108277237Y-115240159D01*
X108434280Y-115005127D01*
X108451600Y-114963312D01*
X108451600Y-118767488D01*
X108434280Y-118725673D01*
X108277237Y-118490641D01*
X108077359Y-118290763D01*
X107842327Y-118133720D01*
X107581174Y-118025547D01*
X107303935Y-117970400D01*
X107021265Y-117970400D01*
X106744026Y-118025547D01*
X106482873Y-118133720D01*
X106247841Y-118290763D01*
X106047963Y-118490641D01*
X105890920Y-118725673D01*
X105782747Y-118986826D01*
X105727600Y-119264065D01*
X105727600Y-119546735D01*
X105782747Y-119823974D01*
X105890920Y-120085127D01*
X106047963Y-120320159D01*
X106247841Y-120520037D01*
X106482873Y-120677080D01*
X106493465Y-120681467D01*
X106307469Y-120793015D01*
X106099081Y-120981986D01*
X105931563Y-121207980D01*
X105811354Y-121462313D01*
X105770696Y-121596361D01*
X105892685Y-121818400D01*
X107035600Y-121818400D01*
X107035600Y-121798400D01*
X107289600Y-121798400D01*
X107289600Y-121818400D01*
X107309600Y-121818400D01*
X107309600Y-122072400D01*
X107289600Y-122072400D01*
X107289600Y-124358400D01*
X108432515Y-124358400D01*
X108533694Y-124174238D01*
X108621866Y-124339197D01*
X108751204Y-124496796D01*
X108790697Y-124529207D01*
X119589601Y-135328112D01*
X119589601Y-138176608D01*
X119553441Y-138057407D01*
X119505641Y-137967980D01*
X119457334Y-137877602D01*
X119360403Y-137759492D01*
X119327996Y-137720004D01*
X119288508Y-137687597D01*
X108597600Y-126996690D01*
X108597600Y-126884065D01*
X108542453Y-126606826D01*
X108434280Y-126345673D01*
X108277237Y-126110641D01*
X108077359Y-125910763D01*
X107842327Y-125753720D01*
X107831735Y-125749333D01*
X108017731Y-125637785D01*
X108226119Y-125448814D01*
X108393637Y-125222820D01*
X108513846Y-124968487D01*
X108554504Y-124834439D01*
X108432515Y-124612400D01*
X107289600Y-124612400D01*
X107289600Y-124632400D01*
X107035600Y-124632400D01*
X107035600Y-124612400D01*
X105892685Y-124612400D01*
X105770696Y-124834439D01*
X105811354Y-124968487D01*
X105931563Y-125222820D01*
X106099081Y-125448814D01*
X106307469Y-125637785D01*
X106493465Y-125749333D01*
X106482873Y-125753720D01*
X106247841Y-125910763D01*
X106047963Y-126110641D01*
X105890920Y-126345673D01*
X105782747Y-126606826D01*
X105727600Y-126884065D01*
X105727600Y-127166735D01*
X105782747Y-127443974D01*
X105890920Y-127705127D01*
X106047963Y-127940159D01*
X106247841Y-128140037D01*
X106480359Y-128295400D01*
X106247841Y-128450763D01*
X106047963Y-128650641D01*
X105890920Y-128885673D01*
X105782747Y-129146826D01*
X105727600Y-129424065D01*
X105727600Y-129706735D01*
X105782747Y-129983974D01*
X105890920Y-130245127D01*
X106047963Y-130480159D01*
X106247841Y-130680037D01*
X106480359Y-130835400D01*
X106247841Y-130990763D01*
X106047963Y-131190641D01*
X105890920Y-131425673D01*
X105782747Y-131686826D01*
X105727600Y-131964065D01*
X105727600Y-132246735D01*
X105782747Y-132523974D01*
X105890920Y-132785127D01*
X106047963Y-133020159D01*
X106247841Y-133220037D01*
X106480359Y-133375400D01*
X106247841Y-133530763D01*
X106047963Y-133730641D01*
X105890920Y-133965673D01*
X105782747Y-134226826D01*
X105727600Y-134504065D01*
X105727600Y-134786735D01*
X105782747Y-135063974D01*
X105890920Y-135325127D01*
X106047963Y-135560159D01*
X106246561Y-135758757D01*
X106238118Y-135759588D01*
X106118420Y-135795898D01*
X106008106Y-135854863D01*
X105911415Y-135934215D01*
X105832063Y-136030906D01*
X105773098Y-136141220D01*
X105736788Y-136260918D01*
X105724528Y-136385400D01*
X105724528Y-137985400D01*
X105736788Y-138109882D01*
X105773098Y-138229580D01*
X105832063Y-138339894D01*
X105911415Y-138436585D01*
X106008106Y-138515937D01*
X106118420Y-138574902D01*
X106238118Y-138611212D01*
X106362600Y-138623472D01*
X107962600Y-138623472D01*
X108087082Y-138611212D01*
X108206780Y-138574902D01*
X108317094Y-138515937D01*
X108413785Y-138436585D01*
X108493137Y-138339894D01*
X108552102Y-138229580D01*
X108588412Y-138109882D01*
X108600672Y-137985400D01*
X108600672Y-136385400D01*
X108588412Y-136260918D01*
X108552102Y-136141220D01*
X108493137Y-136030906D01*
X108413785Y-135934215D01*
X108317094Y-135854863D01*
X108206780Y-135795898D01*
X108087082Y-135759588D01*
X108078639Y-135758757D01*
X108277237Y-135560159D01*
X108434280Y-135325127D01*
X108542453Y-135063974D01*
X108597600Y-134786735D01*
X108597600Y-134504065D01*
X108542453Y-134226826D01*
X108434280Y-133965673D01*
X108277237Y-133730641D01*
X108077359Y-133530763D01*
X107844841Y-133375400D01*
X108077359Y-133220037D01*
X108277237Y-133020159D01*
X108434280Y-132785127D01*
X108542453Y-132523974D01*
X108597600Y-132246735D01*
X108597600Y-131964065D01*
X108542453Y-131686826D01*
X108434280Y-131425673D01*
X108277237Y-131190641D01*
X108077359Y-130990763D01*
X107844841Y-130835400D01*
X108077359Y-130680037D01*
X108277237Y-130480159D01*
X108434280Y-130245127D01*
X108542453Y-129983974D01*
X108561535Y-129888045D01*
X117557601Y-138884112D01*
X117557600Y-150088572D01*
X117552594Y-150139400D01*
X117557600Y-150190228D01*
X117557600Y-150190237D01*
X117572576Y-150342294D01*
X117631759Y-150537392D01*
X117727866Y-150717197D01*
X117857204Y-150874796D01*
X117896697Y-150907207D01*
X127710087Y-160720598D01*
X127633600Y-161105121D01*
X127633600Y-161525679D01*
X127715647Y-161938156D01*
X127876588Y-162326702D01*
X128110237Y-162676383D01*
X128407617Y-162973763D01*
X128757298Y-163207412D01*
X129145844Y-163368353D01*
X129558321Y-163450400D01*
X129978879Y-163450400D01*
X130363403Y-163373913D01*
X131100798Y-164111309D01*
X131133205Y-164150797D01*
X131172693Y-164183204D01*
X131290803Y-164280135D01*
X131386910Y-164331505D01*
X131470608Y-164376242D01*
X131665706Y-164435425D01*
X131817763Y-164450401D01*
X131817765Y-164450401D01*
X131868601Y-164455408D01*
X131919436Y-164450401D01*
X149477773Y-164450401D01*
X149528601Y-164455407D01*
X149579429Y-164450401D01*
X149579439Y-164450401D01*
X149731496Y-164435425D01*
X149926594Y-164376242D01*
X150106398Y-164280135D01*
X150263997Y-164150797D01*
X150296408Y-164111304D01*
X158064601Y-156343112D01*
X158064601Y-174879400D01*
X104520600Y-174879400D01*
X104520600Y-171255272D01*
X105689600Y-171255272D01*
X105689600Y-171695528D01*
X105775490Y-172127325D01*
X105943969Y-172534069D01*
X106188562Y-172900129D01*
X106499871Y-173211438D01*
X106865931Y-173456031D01*
X107272675Y-173624510D01*
X107704472Y-173710400D01*
X108144728Y-173710400D01*
X108576525Y-173624510D01*
X108983269Y-173456031D01*
X109349329Y-173211438D01*
X109660638Y-172900129D01*
X109905231Y-172534069D01*
X110073710Y-172127325D01*
X110159600Y-171695528D01*
X110159600Y-171255272D01*
X152425600Y-171255272D01*
X152425600Y-171695528D01*
X152511490Y-172127325D01*
X152679969Y-172534069D01*
X152924562Y-172900129D01*
X153235871Y-173211438D01*
X153601931Y-173456031D01*
X154008675Y-173624510D01*
X154440472Y-173710400D01*
X154880728Y-173710400D01*
X155312525Y-173624510D01*
X155719269Y-173456031D01*
X156085329Y-173211438D01*
X156396638Y-172900129D01*
X156641231Y-172534069D01*
X156809710Y-172127325D01*
X156895600Y-171695528D01*
X156895600Y-171255272D01*
X156809710Y-170823475D01*
X156641231Y-170416731D01*
X156396638Y-170050671D01*
X156085329Y-169739362D01*
X155719269Y-169494769D01*
X155312525Y-169326290D01*
X154880728Y-169240400D01*
X154440472Y-169240400D01*
X154008675Y-169326290D01*
X153601931Y-169494769D01*
X153235871Y-169739362D01*
X152924562Y-170050671D01*
X152679969Y-170416731D01*
X152511490Y-170823475D01*
X152425600Y-171255272D01*
X110159600Y-171255272D01*
X110073710Y-170823475D01*
X109905231Y-170416731D01*
X109660638Y-170050671D01*
X109349329Y-169739362D01*
X108983269Y-169494769D01*
X108576525Y-169326290D01*
X108144728Y-169240400D01*
X107704472Y-169240400D01*
X107272675Y-169326290D01*
X106865931Y-169494769D01*
X106499871Y-169739362D01*
X106188562Y-170050671D01*
X105943969Y-170416731D01*
X105775490Y-170823475D01*
X105689600Y-171255272D01*
X104520600Y-171255272D01*
X104520600Y-161105121D01*
X122553600Y-161105121D01*
X122553600Y-161525679D01*
X122635647Y-161938156D01*
X122796588Y-162326702D01*
X123030237Y-162676383D01*
X123327617Y-162973763D01*
X123677298Y-163207412D01*
X124065844Y-163368353D01*
X124478321Y-163450400D01*
X124898879Y-163450400D01*
X125311356Y-163368353D01*
X125699902Y-163207412D01*
X126049583Y-162973763D01*
X126346963Y-162676383D01*
X126580612Y-162326702D01*
X126741553Y-161938156D01*
X126823600Y-161525679D01*
X126823600Y-161105121D01*
X126741553Y-160692644D01*
X126580612Y-160304098D01*
X126346963Y-159954417D01*
X126049583Y-159657037D01*
X125699902Y-159423388D01*
X125311356Y-159262447D01*
X124898879Y-159180400D01*
X124478321Y-159180400D01*
X124065844Y-159262447D01*
X123677298Y-159423388D01*
X123327617Y-159657037D01*
X123030237Y-159954417D01*
X122796588Y-160304098D01*
X122635647Y-160692644D01*
X122553600Y-161105121D01*
X104520600Y-161105121D01*
X104520600Y-156526400D01*
X111008528Y-156526400D01*
X111008528Y-157976400D01*
X111025592Y-158149654D01*
X111076128Y-158316250D01*
X111158195Y-158469786D01*
X111268638Y-158604362D01*
X111403214Y-158714805D01*
X111556750Y-158796872D01*
X111723346Y-158847408D01*
X111896600Y-158864472D01*
X113096600Y-158864472D01*
X113269854Y-158847408D01*
X113436450Y-158796872D01*
X113589986Y-158714805D01*
X113724562Y-158604362D01*
X113835005Y-158469786D01*
X113889377Y-158368063D01*
X113941466Y-158431534D01*
X114167587Y-158617106D01*
X114425567Y-158754999D01*
X114705490Y-158839913D01*
X114996600Y-158868585D01*
X115287711Y-158839913D01*
X115567634Y-158754999D01*
X115825614Y-158617106D01*
X116051734Y-158431534D01*
X116237306Y-158205414D01*
X116251062Y-158179678D01*
X116407551Y-158385829D01*
X116625407Y-158578896D01*
X116876742Y-158725752D01*
X117139710Y-158817876D01*
X117369600Y-158696555D01*
X117369600Y-157378400D01*
X117623600Y-157378400D01*
X117623600Y-158696555D01*
X117853490Y-158817876D01*
X118116458Y-158725752D01*
X118367793Y-158578896D01*
X118585649Y-158385829D01*
X118761653Y-158153970D01*
X118889042Y-157892230D01*
X118962920Y-157610667D01*
X118822765Y-157378400D01*
X117623600Y-157378400D01*
X117369600Y-157378400D01*
X117349600Y-157378400D01*
X117349600Y-157124400D01*
X117369600Y-157124400D01*
X117369600Y-155806245D01*
X117623600Y-155806245D01*
X117623600Y-157124400D01*
X118822765Y-157124400D01*
X118962920Y-156892133D01*
X118889042Y-156610570D01*
X118761653Y-156348830D01*
X118585649Y-156116971D01*
X118367793Y-155923904D01*
X118116458Y-155777048D01*
X117853490Y-155684924D01*
X117623600Y-155806245D01*
X117369600Y-155806245D01*
X117139710Y-155684924D01*
X116876742Y-155777048D01*
X116625407Y-155923904D01*
X116407551Y-156116971D01*
X116251062Y-156323122D01*
X116237306Y-156297386D01*
X116051734Y-156071266D01*
X115825613Y-155885694D01*
X115567633Y-155747801D01*
X115287710Y-155662887D01*
X114996600Y-155634215D01*
X114705489Y-155662887D01*
X114425566Y-155747801D01*
X114167586Y-155885694D01*
X113941466Y-156071266D01*
X113889377Y-156134737D01*
X113835005Y-156033014D01*
X113724562Y-155898438D01*
X113589986Y-155787995D01*
X113436450Y-155705928D01*
X113269854Y-155655392D01*
X113096600Y-155638328D01*
X111896600Y-155638328D01*
X111723346Y-155655392D01*
X111556750Y-155705928D01*
X111403214Y-155787995D01*
X111268638Y-155898438D01*
X111158195Y-156033014D01*
X111076128Y-156186550D01*
X111025592Y-156353146D01*
X111008528Y-156526400D01*
X104520600Y-156526400D01*
X104520600Y-150935272D01*
X104927600Y-150935272D01*
X104927600Y-151375528D01*
X105013490Y-151807325D01*
X105181969Y-152214069D01*
X105426562Y-152580129D01*
X105737871Y-152891438D01*
X106103931Y-153136031D01*
X106510675Y-153304510D01*
X106942472Y-153390400D01*
X107382728Y-153390400D01*
X107814525Y-153304510D01*
X108221269Y-153136031D01*
X108587329Y-152891438D01*
X108898638Y-152580129D01*
X109143231Y-152214069D01*
X109311710Y-151807325D01*
X109397600Y-151375528D01*
X109397600Y-150935272D01*
X109311710Y-150503475D01*
X109143231Y-150096731D01*
X108898638Y-149730671D01*
X108587329Y-149419362D01*
X108221269Y-149174769D01*
X107814525Y-149006290D01*
X107382728Y-148920400D01*
X106942472Y-148920400D01*
X106510675Y-149006290D01*
X106103931Y-149174769D01*
X105737871Y-149419362D01*
X105426562Y-149730671D01*
X105181969Y-150096731D01*
X105013490Y-150503475D01*
X104927600Y-150935272D01*
X104520600Y-150935272D01*
X104520600Y-122294439D01*
X105770696Y-122294439D01*
X105811354Y-122428487D01*
X105931563Y-122682820D01*
X106099081Y-122908814D01*
X106307469Y-123097785D01*
X106503582Y-123215400D01*
X106307469Y-123333015D01*
X106099081Y-123521986D01*
X105931563Y-123747980D01*
X105811354Y-124002313D01*
X105770696Y-124136361D01*
X105892685Y-124358400D01*
X107035600Y-124358400D01*
X107035600Y-122072400D01*
X105892685Y-122072400D01*
X105770696Y-122294439D01*
X104520600Y-122294439D01*
X104520600Y-44541774D01*
X112623600Y-44541774D01*
X112623600Y-44917026D01*
X112696809Y-45285068D01*
X112840411Y-45631756D01*
X113048890Y-45943766D01*
X113314234Y-46209110D01*
X113626244Y-46417589D01*
X113972932Y-46561191D01*
X114340974Y-46634400D01*
X114716226Y-46634400D01*
X115084268Y-46561191D01*
X115430956Y-46417589D01*
X115742966Y-46209110D01*
X116008310Y-45943766D01*
X116216789Y-45631756D01*
X116360391Y-45285068D01*
X116433600Y-44917026D01*
X116433600Y-44541774D01*
X116360391Y-44173732D01*
X116216789Y-43827044D01*
X116008310Y-43515034D01*
X115742966Y-43249690D01*
X115430956Y-43041211D01*
X115084268Y-42897609D01*
X114716226Y-42824400D01*
X114340974Y-42824400D01*
X113972932Y-42897609D01*
X113626244Y-43041211D01*
X113314234Y-43249690D01*
X113048890Y-43515034D01*
X112840411Y-43827044D01*
X112696809Y-44173732D01*
X112623600Y-44541774D01*
X104520600Y-44541774D01*
X104520600Y-37651272D01*
X105689600Y-37651272D01*
X105689600Y-38091528D01*
X105775490Y-38523325D01*
X105943969Y-38930069D01*
X106188562Y-39296129D01*
X106499871Y-39607438D01*
X106865931Y-39852031D01*
X107272675Y-40020510D01*
X107704472Y-40106400D01*
X108144728Y-40106400D01*
X108576525Y-40020510D01*
X108983269Y-39852031D01*
X109349329Y-39607438D01*
X109660638Y-39296129D01*
X109905231Y-38930069D01*
X110073710Y-38523325D01*
X110159600Y-38091528D01*
X110159600Y-37651272D01*
X152425600Y-37651272D01*
X152425600Y-38091528D01*
X152511490Y-38523325D01*
X152679969Y-38930069D01*
X152924562Y-39296129D01*
X153235871Y-39607438D01*
X153601931Y-39852031D01*
X154008675Y-40020510D01*
X154440472Y-40106400D01*
X154880728Y-40106400D01*
X155312525Y-40020510D01*
X155719269Y-39852031D01*
X156085329Y-39607438D01*
X156396638Y-39296129D01*
X156641231Y-38930069D01*
X156809710Y-38523325D01*
X156895600Y-38091528D01*
X156895600Y-37651272D01*
X156809710Y-37219475D01*
X156641231Y-36812731D01*
X156396638Y-36446671D01*
X156085329Y-36135362D01*
X155719269Y-35890769D01*
X155312525Y-35722290D01*
X154880728Y-35636400D01*
X154440472Y-35636400D01*
X154008675Y-35722290D01*
X153601931Y-35890769D01*
X153235871Y-36135362D01*
X152924562Y-36446671D01*
X152679969Y-36812731D01*
X152511490Y-37219475D01*
X152425600Y-37651272D01*
X110159600Y-37651272D01*
X110073710Y-37219475D01*
X109905231Y-36812731D01*
X109660638Y-36446671D01*
X109349329Y-36135362D01*
X108983269Y-35890769D01*
X108576525Y-35722290D01*
X108144728Y-35636400D01*
X107704472Y-35636400D01*
X107272675Y-35722290D01*
X106865931Y-35890769D01*
X106499871Y-36135362D01*
X106188562Y-36446671D01*
X105943969Y-36812731D01*
X105775490Y-37219475D01*
X105689600Y-37651272D01*
X104520600Y-37651272D01*
X104520600Y-34467400D01*
X158064600Y-34467400D01*
X158064600Y-88808289D01*
G37*
X158064600Y-88808289D02*
X153456272Y-84199962D01*
X153456272Y-83325600D01*
X153444012Y-83201118D01*
X153407702Y-83081420D01*
X153348737Y-82971106D01*
X153269385Y-82874415D01*
X153172694Y-82795063D01*
X153062380Y-82736098D01*
X152942682Y-82699788D01*
X152818200Y-82687528D01*
X151118200Y-82687528D01*
X150993718Y-82699788D01*
X150874020Y-82736098D01*
X150763706Y-82795063D01*
X150667015Y-82874415D01*
X150587663Y-82971106D01*
X150528698Y-83081420D01*
X150492388Y-83201118D01*
X150480128Y-83325600D01*
X150480128Y-85025600D01*
X150492388Y-85150082D01*
X150528698Y-85269780D01*
X150587663Y-85380094D01*
X150667015Y-85476785D01*
X150763706Y-85556137D01*
X150874020Y-85615102D01*
X150946580Y-85637113D01*
X150814725Y-85768968D01*
X150652210Y-86012189D01*
X150540268Y-86282442D01*
X150483200Y-86569340D01*
X150483200Y-86861860D01*
X150540268Y-87148758D01*
X150652210Y-87419011D01*
X150814725Y-87662232D01*
X151021568Y-87869075D01*
X151195960Y-87985600D01*
X151021568Y-88102125D01*
X150814725Y-88308968D01*
X150652210Y-88552189D01*
X150540268Y-88822442D01*
X150483200Y-89109340D01*
X150483200Y-89401860D01*
X150540268Y-89688758D01*
X150652210Y-89959011D01*
X150814725Y-90202232D01*
X151021568Y-90409075D01*
X151203734Y-90530795D01*
X151086845Y-90600422D01*
X150870612Y-90795331D01*
X150696559Y-91028680D01*
X150571375Y-91291501D01*
X150526724Y-91438710D01*
X150648045Y-91668600D01*
X151841200Y-91668600D01*
X151841200Y-91648600D01*
X152095200Y-91648600D01*
X152095200Y-91668600D01*
X153288355Y-91668600D01*
X153409676Y-91438710D01*
X153365025Y-91291501D01*
X153239841Y-91028680D01*
X153065788Y-90795331D01*
X152849555Y-90600422D01*
X152732666Y-90530795D01*
X152914832Y-90409075D01*
X153121675Y-90202232D01*
X153284190Y-89959011D01*
X153396132Y-89688758D01*
X153453200Y-89401860D01*
X153453200Y-89109340D01*
X153396132Y-88822442D01*
X153284190Y-88552189D01*
X153121675Y-88308968D01*
X152914832Y-88102125D01*
X152740440Y-87985600D01*
X152914832Y-87869075D01*
X153121675Y-87662232D01*
X153284190Y-87419011D01*
X153396132Y-87148758D01*
X153409656Y-87080767D01*
X156587602Y-90258713D01*
X156587602Y-100786017D01*
X156537237Y-100710641D01*
X156337359Y-100510763D01*
X156102327Y-100353720D01*
X155841174Y-100245547D01*
X155563935Y-100190400D01*
X155281265Y-100190400D01*
X155004026Y-100245547D01*
X154742873Y-100353720D01*
X154507841Y-100510763D01*
X154307963Y-100710641D01*
X154150920Y-100945673D01*
X154042747Y-101206826D01*
X153987600Y-101484065D01*
X153987600Y-101766735D01*
X154042747Y-102043974D01*
X154150920Y-102305127D01*
X154307963Y-102540159D01*
X154507841Y-102740037D01*
X154740359Y-102895400D01*
X154507841Y-103050763D01*
X154307963Y-103250641D01*
X154150920Y-103485673D01*
X154042747Y-103746826D01*
X153987600Y-104024065D01*
X153987600Y-104306735D01*
X154042747Y-104583974D01*
X154150920Y-104845127D01*
X154307963Y-105080159D01*
X154507841Y-105280037D01*
X154740359Y-105435400D01*
X154507841Y-105590763D01*
X154307963Y-105790641D01*
X154150920Y-106025673D01*
X154042747Y-106286826D01*
X153987600Y-106564065D01*
X153987600Y-106846735D01*
X154042747Y-107123974D01*
X154150920Y-107385127D01*
X154307963Y-107620159D01*
X154507841Y-107820037D01*
X154740359Y-107975400D01*
X154507841Y-108130763D01*
X154307963Y-108330641D01*
X154150920Y-108565673D01*
X154042747Y-108826826D01*
X153987600Y-109104065D01*
X153987600Y-109386735D01*
X154042747Y-109663974D01*
X154150920Y-109925127D01*
X154307963Y-110160159D01*
X154507841Y-110360037D01*
X154740359Y-110515400D01*
X154507841Y-110670763D01*
X154307963Y-110870641D01*
X154150920Y-111105673D01*
X154042747Y-111366826D01*
X153987600Y-111644065D01*
X153987600Y-111926735D01*
X154042747Y-112203974D01*
X154150920Y-112465127D01*
X154307963Y-112700159D01*
X154507841Y-112900037D01*
X154740359Y-113055400D01*
X154507841Y-113210763D01*
X154307963Y-113410641D01*
X154150920Y-113645673D01*
X154042747Y-113906826D01*
X153987600Y-114184065D01*
X153987600Y-114466735D01*
X154042747Y-114743974D01*
X154150920Y-115005127D01*
X154307963Y-115240159D01*
X154507841Y-115440037D01*
X154740359Y-115595400D01*
X154507841Y-115750763D01*
X154307963Y-115950641D01*
X154150920Y-116185673D01*
X154042747Y-116446826D01*
X154023665Y-116542754D01*
X144460354Y-106979443D01*
X144500600Y-106983407D01*
X144551438Y-106978400D01*
X144602539Y-106978400D01*
X144652658Y-106968431D01*
X144703494Y-106963424D01*
X144752374Y-106948596D01*
X144802498Y-106938626D01*
X144849716Y-106919068D01*
X144898592Y-106904241D01*
X144943639Y-106880163D01*
X144990856Y-106860605D01*
X145033347Y-106832214D01*
X145078397Y-106808134D01*
X145117884Y-106775728D01*
X145160374Y-106747337D01*
X145196508Y-106711203D01*
X145235996Y-106678796D01*
X145268403Y-106639308D01*
X145304537Y-106603174D01*
X145332928Y-106560684D01*
X145365334Y-106521197D01*
X145389414Y-106476146D01*
X145417805Y-106433656D01*
X145437362Y-106386442D01*
X145461441Y-106341393D01*
X145476269Y-106292513D01*
X145495826Y-106245298D01*
X145505796Y-106195177D01*
X145520624Y-106146295D01*
X145525631Y-106095457D01*
X145535600Y-106045339D01*
X145535600Y-103053872D01*
X146005600Y-102583873D01*
X146005601Y-105841456D01*
X146005600Y-105841461D01*
X146005600Y-106045339D01*
X146015571Y-106095467D01*
X146020577Y-106146295D01*
X146035403Y-106195168D01*
X146045374Y-106245298D01*
X146064935Y-106292522D01*
X146079760Y-106341393D01*
X146103835Y-106386434D01*
X146123395Y-106433656D01*
X146151791Y-106476153D01*
X146175867Y-106521197D01*
X146208268Y-106560678D01*
X146236663Y-106603174D01*
X146272803Y-106639314D01*
X146305205Y-106678796D01*
X146344687Y-106711198D01*
X146380826Y-106747337D01*
X146423321Y-106775731D01*
X146462804Y-106808134D01*
X146507850Y-106832212D01*
X146550344Y-106860605D01*
X146597562Y-106880163D01*
X146642608Y-106904241D01*
X146691484Y-106919068D01*
X146738702Y-106938626D01*
X146788826Y-106948596D01*
X146837706Y-106963424D01*
X146888542Y-106968431D01*
X146938661Y-106978400D01*
X146989762Y-106978400D01*
X147040600Y-106983407D01*
X147091438Y-106978400D01*
X147142539Y-106978400D01*
X147192657Y-106968431D01*
X147243495Y-106963424D01*
X147292377Y-106948596D01*
X147342498Y-106938626D01*
X147389713Y-106919069D01*
X147438593Y-106904241D01*
X147483642Y-106880162D01*
X147530856Y-106860605D01*
X147573346Y-106832214D01*
X147618397Y-106808134D01*
X147657884Y-106775728D01*
X147700374Y-106747337D01*
X147736508Y-106711203D01*
X147775996Y-106678796D01*
X147808403Y-106639308D01*
X147844537Y-106603174D01*
X147872928Y-106560684D01*
X147905334Y-106521197D01*
X147929414Y-106476146D01*
X147957805Y-106433656D01*
X147977362Y-106386442D01*
X148001441Y-106341393D01*
X148016269Y-106292513D01*
X148035826Y-106245298D01*
X148045796Y-106195177D01*
X148060624Y-106146295D01*
X148065631Y-106095457D01*
X148075600Y-106045339D01*
X148075600Y-92152490D01*
X150526724Y-92152490D01*
X150571375Y-92299699D01*
X150696559Y-92562520D01*
X150870612Y-92795869D01*
X151086845Y-92990778D01*
X151336948Y-93139757D01*
X151611309Y-93237081D01*
X151841200Y-93116414D01*
X151841200Y-91922600D01*
X152095200Y-91922600D01*
X152095200Y-93116414D01*
X152325091Y-93237081D01*
X152599452Y-93139757D01*
X152849555Y-92990778D01*
X153065788Y-92795869D01*
X153239841Y-92562520D01*
X153365025Y-92299699D01*
X153409676Y-92152490D01*
X153288355Y-91922600D01*
X152095200Y-91922600D01*
X151841200Y-91922600D01*
X150648045Y-91922600D01*
X150526724Y-92152490D01*
X148075600Y-92152490D01*
X148075600Y-65608235D01*
X148080607Y-65557400D01*
X148075600Y-65506562D01*
X148060624Y-65354505D01*
X148001441Y-65159407D01*
X147918256Y-65003778D01*
X147905334Y-64979602D01*
X147808403Y-64861492D01*
X147775996Y-64822004D01*
X147736508Y-64789597D01*
X145389600Y-62442690D01*
X145389600Y-62371808D01*
X145335914Y-62101910D01*
X145230605Y-61847673D01*
X145077720Y-61618865D01*
X144883135Y-61424280D01*
X144654327Y-61271395D01*
X144582657Y-61241708D01*
X144595623Y-61237036D01*
X144711580Y-61175056D01*
X144778560Y-60934965D01*
X143992600Y-60149005D01*
X143206640Y-60934965D01*
X143273620Y-61175056D01*
X143409360Y-61238885D01*
X143330873Y-61271395D01*
X143102065Y-61424280D01*
X142907480Y-61618865D01*
X142754595Y-61847673D01*
X142649286Y-62101910D01*
X142641563Y-62140738D01*
X142634623Y-62070278D01*
X142575440Y-61875180D01*
X142527784Y-61786022D01*
X142479333Y-61695375D01*
X142382402Y-61577265D01*
X142349995Y-61537777D01*
X142310507Y-61505370D01*
X140846554Y-60041417D01*
X142590690Y-60041417D01*
X142631678Y-60313533D01*
X142724964Y-60572423D01*
X142786944Y-60688380D01*
X143027035Y-60755360D01*
X143812995Y-59969400D01*
X144172205Y-59969400D01*
X144958165Y-60755360D01*
X145198256Y-60688380D01*
X145315356Y-60439352D01*
X145381623Y-60172265D01*
X145394510Y-59897383D01*
X145353522Y-59625267D01*
X145260236Y-59366377D01*
X145198256Y-59250420D01*
X144958165Y-59183440D01*
X144172205Y-59969400D01*
X143812995Y-59969400D01*
X143027035Y-59183440D01*
X142786944Y-59250420D01*
X142669844Y-59499448D01*
X142603577Y-59766535D01*
X142590690Y-60041417D01*
X140846554Y-60041417D01*
X140539536Y-59734400D01*
X141808539Y-59734400D01*
X141858657Y-59724431D01*
X141909495Y-59719424D01*
X141958377Y-59704596D01*
X142008498Y-59694626D01*
X142055713Y-59675069D01*
X142104593Y-59660241D01*
X142149642Y-59636162D01*
X142196856Y-59616605D01*
X142239346Y-59588214D01*
X142284397Y-59564134D01*
X142323884Y-59531728D01*
X142366374Y-59503337D01*
X142402508Y-59467203D01*
X142441996Y-59434796D01*
X142474404Y-59395307D01*
X142510537Y-59359174D01*
X142538928Y-59316684D01*
X142571334Y-59277197D01*
X142595414Y-59232146D01*
X142623805Y-59189656D01*
X142643362Y-59142442D01*
X142667441Y-59097393D01*
X142682269Y-59048513D01*
X142701826Y-59001298D01*
X142711796Y-58951177D01*
X142726624Y-58902295D01*
X142731631Y-58851457D01*
X142741600Y-58801339D01*
X142741600Y-58750238D01*
X142746607Y-58699400D01*
X142741600Y-58648562D01*
X142741600Y-58597461D01*
X142731631Y-58547343D01*
X142726624Y-58496505D01*
X142716885Y-58464400D01*
X143051945Y-58464400D01*
X143102065Y-58514520D01*
X143330873Y-58667405D01*
X143402543Y-58697092D01*
X143389577Y-58701764D01*
X143273620Y-58763744D01*
X143206640Y-59003835D01*
X143992600Y-59789795D01*
X144778560Y-59003835D01*
X144711580Y-58763744D01*
X144575840Y-58699915D01*
X144654327Y-58667405D01*
X144883135Y-58514520D01*
X145077720Y-58319935D01*
X145230605Y-58091127D01*
X145335914Y-57836890D01*
X145389600Y-57566992D01*
X145389600Y-57291808D01*
X145335914Y-57021910D01*
X145230605Y-56767673D01*
X145077720Y-56538865D01*
X144883135Y-56344280D01*
X144654327Y-56191395D01*
X144577085Y-56159400D01*
X144654327Y-56127405D01*
X144883135Y-55974520D01*
X145077720Y-55779935D01*
X145230605Y-55551127D01*
X145335914Y-55296890D01*
X145389600Y-55026992D01*
X145389600Y-54751808D01*
X145335914Y-54481910D01*
X145230605Y-54227673D01*
X145077720Y-53998865D01*
X144883135Y-53804280D01*
X144654327Y-53651395D01*
X144577085Y-53619400D01*
X144654327Y-53587405D01*
X144883135Y-53434520D01*
X145077720Y-53239935D01*
X145230605Y-53011127D01*
X145335914Y-52756890D01*
X145389600Y-52486992D01*
X145389600Y-52211808D01*
X145335914Y-51941910D01*
X145230605Y-51687673D01*
X145077720Y-51458865D01*
X144883135Y-51264280D01*
X144654327Y-51111395D01*
X144577085Y-51079400D01*
X144654327Y-51047405D01*
X144883135Y-50894520D01*
X145077720Y-50699935D01*
X145230605Y-50471127D01*
X145335914Y-50216890D01*
X145389600Y-49946992D01*
X145389600Y-49671808D01*
X145335914Y-49401910D01*
X145230605Y-49147673D01*
X145077720Y-48918865D01*
X144883135Y-48724280D01*
X144654327Y-48571395D01*
X144577085Y-48539400D01*
X144654327Y-48507405D01*
X144883135Y-48354520D01*
X145077720Y-48159935D01*
X145230605Y-47931127D01*
X145335914Y-47676890D01*
X145389600Y-47406992D01*
X145389600Y-47131808D01*
X145335914Y-46861910D01*
X145230605Y-46607673D01*
X145077720Y-46378865D01*
X144883135Y-46184280D01*
X144654327Y-46031395D01*
X144577085Y-45999400D01*
X144654327Y-45967405D01*
X144883135Y-45814520D01*
X145077720Y-45619935D01*
X145230605Y-45391127D01*
X145335914Y-45136890D01*
X145389600Y-44866992D01*
X145389600Y-44591808D01*
X145335914Y-44321910D01*
X145230605Y-44067673D01*
X145077720Y-43838865D01*
X144883135Y-43644280D01*
X144654327Y-43491395D01*
X144400090Y-43386086D01*
X144130192Y-43332400D01*
X143855008Y-43332400D01*
X143585110Y-43386086D01*
X143330873Y-43491395D01*
X143102065Y-43644280D01*
X142907480Y-43838865D01*
X142754595Y-44067673D01*
X142649286Y-44321910D01*
X142595600Y-44591808D01*
X142595600Y-44866992D01*
X142649286Y-45136890D01*
X142754595Y-45391127D01*
X142808901Y-45472401D01*
X128234428Y-45472401D01*
X128183600Y-45467395D01*
X128132772Y-45472401D01*
X128132763Y-45472401D01*
X127980706Y-45487377D01*
X127785608Y-45546560D01*
X127701910Y-45591297D01*
X127605803Y-45642667D01*
X127487693Y-45739598D01*
X127448205Y-45772005D01*
X127415798Y-45811493D01*
X112248528Y-60978764D01*
X112227224Y-60871661D01*
X112120558Y-60614147D01*
X111965704Y-60382391D01*
X111768611Y-60185298D01*
X111536855Y-60030444D01*
X111498124Y-60014401D01*
X111536855Y-59998358D01*
X111768611Y-59843504D01*
X111965704Y-59646411D01*
X112120558Y-59414655D01*
X112227224Y-59157141D01*
X112281601Y-58883766D01*
X112281601Y-58605036D01*
X112227224Y-58331661D01*
X112120558Y-58074147D01*
X111965704Y-57842391D01*
X111768611Y-57645298D01*
X111536855Y-57490444D01*
X111498124Y-57474401D01*
X111536855Y-57458358D01*
X111768611Y-57303504D01*
X111965704Y-57106411D01*
X112120558Y-56874655D01*
X112227224Y-56617141D01*
X112281601Y-56343766D01*
X112281601Y-56065036D01*
X112227224Y-55791661D01*
X112120558Y-55534147D01*
X111965704Y-55302391D01*
X111768611Y-55105298D01*
X111536855Y-54950444D01*
X111498124Y-54934401D01*
X111536855Y-54918358D01*
X111768611Y-54763504D01*
X111965704Y-54566411D01*
X112120558Y-54334655D01*
X112227224Y-54077141D01*
X112281601Y-53803766D01*
X112281601Y-53525036D01*
X112227224Y-53251661D01*
X112120558Y-52994147D01*
X111965704Y-52762391D01*
X111768611Y-52565298D01*
X111536855Y-52410444D01*
X111498124Y-52394401D01*
X111536855Y-52378358D01*
X111768611Y-52223504D01*
X111965704Y-52026411D01*
X112120558Y-51794655D01*
X112227224Y-51537141D01*
X112281601Y-51263766D01*
X112281601Y-50985036D01*
X112227224Y-50711661D01*
X112120558Y-50454147D01*
X111965704Y-50222391D01*
X111768611Y-50025298D01*
X111723165Y-49994932D01*
X111771083Y-49990213D01*
X111890781Y-49953903D01*
X112001095Y-49894938D01*
X112097786Y-49815586D01*
X112177138Y-49718895D01*
X112236103Y-49608581D01*
X112272413Y-49488883D01*
X112284673Y-49364401D01*
X112284673Y-47804401D01*
X112272413Y-47679919D01*
X112236103Y-47560221D01*
X112177138Y-47449907D01*
X112097786Y-47353216D01*
X112001095Y-47273864D01*
X111890781Y-47214899D01*
X111771083Y-47178589D01*
X111646601Y-47166329D01*
X110086601Y-47166329D01*
X109962119Y-47178589D01*
X109842421Y-47214899D01*
X109732107Y-47273864D01*
X109635416Y-47353216D01*
X109556064Y-47449907D01*
X109497099Y-47560221D01*
X109460789Y-47679919D01*
X109448529Y-47804401D01*
X109448529Y-49364401D01*
X109460789Y-49488883D01*
X109497099Y-49608581D01*
X109556064Y-49718895D01*
X109635416Y-49815586D01*
X109732107Y-49894938D01*
X109842421Y-49953903D01*
X109962119Y-49990213D01*
X110010037Y-49994932D01*
X109964591Y-50025298D01*
X109767498Y-50222391D01*
X109612644Y-50454147D01*
X109505978Y-50711661D01*
X109451601Y-50985036D01*
X109451601Y-51263766D01*
X109505978Y-51537141D01*
X109612644Y-51794655D01*
X109767498Y-52026411D01*
X109964591Y-52223504D01*
X110196347Y-52378358D01*
X110235078Y-52394401D01*
X110196347Y-52410444D01*
X109964591Y-52565298D01*
X109767498Y-52762391D01*
X109612644Y-52994147D01*
X109505978Y-53251661D01*
X109451601Y-53525036D01*
X109451601Y-53803766D01*
X109505978Y-54077141D01*
X109612644Y-54334655D01*
X109767498Y-54566411D01*
X109964591Y-54763504D01*
X110196347Y-54918358D01*
X110235078Y-54934401D01*
X110196347Y-54950444D01*
X109964591Y-55105298D01*
X109767498Y-55302391D01*
X109612644Y-55534147D01*
X109505978Y-55791661D01*
X109451601Y-56065036D01*
X109451601Y-56343766D01*
X109505978Y-56617141D01*
X109612644Y-56874655D01*
X109767498Y-57106411D01*
X109964591Y-57303504D01*
X110196347Y-57458358D01*
X110235078Y-57474401D01*
X110196347Y-57490444D01*
X109964591Y-57645298D01*
X109767498Y-57842391D01*
X109612644Y-58074147D01*
X109505978Y-58331661D01*
X109451601Y-58605036D01*
X109451601Y-58883766D01*
X109505978Y-59157141D01*
X109612644Y-59414655D01*
X109767498Y-59646411D01*
X109964591Y-59843504D01*
X110196347Y-59998358D01*
X110235078Y-60014401D01*
X110196347Y-60030444D01*
X109964591Y-60185298D01*
X109767498Y-60382391D01*
X109612644Y-60614147D01*
X109505978Y-60871661D01*
X109451601Y-61145036D01*
X109451601Y-61423766D01*
X109505978Y-61697141D01*
X109612644Y-61954655D01*
X109767498Y-62186411D01*
X109964591Y-62383504D01*
X110196347Y-62538358D01*
X110235078Y-62554401D01*
X110196347Y-62570444D01*
X109964591Y-62725298D01*
X109767498Y-62922391D01*
X109612644Y-63154147D01*
X109505978Y-63411661D01*
X109451601Y-63685036D01*
X109451601Y-63963766D01*
X109505978Y-64237141D01*
X109612644Y-64494655D01*
X109767498Y-64726411D01*
X109964591Y-64923504D01*
X110196347Y-65078358D01*
X110235078Y-65094401D01*
X110196347Y-65110444D01*
X109964591Y-65265298D01*
X109767498Y-65462391D01*
X109612644Y-65694147D01*
X109505978Y-65951661D01*
X109451601Y-66225036D01*
X109451601Y-66503766D01*
X109505978Y-66777141D01*
X109612644Y-67034655D01*
X109767498Y-67266411D01*
X109964591Y-67463504D01*
X110196347Y-67618358D01*
X110235078Y-67634401D01*
X110196347Y-67650444D01*
X109964591Y-67805298D01*
X109767498Y-68002391D01*
X109612644Y-68234147D01*
X109505978Y-68491661D01*
X109451601Y-68765036D01*
X109451601Y-69043766D01*
X109505978Y-69317141D01*
X109612644Y-69574655D01*
X109767498Y-69806411D01*
X109964591Y-70003504D01*
X110196347Y-70158358D01*
X110235078Y-70174401D01*
X110196347Y-70190444D01*
X109964591Y-70345298D01*
X109767498Y-70542391D01*
X109612644Y-70774147D01*
X109505978Y-71031661D01*
X109451601Y-71305036D01*
X109451601Y-71583766D01*
X109505978Y-71857141D01*
X109612644Y-72114655D01*
X109767498Y-72346411D01*
X109964591Y-72543504D01*
X110196347Y-72698358D01*
X110235078Y-72714401D01*
X110196347Y-72730444D01*
X109964591Y-72885298D01*
X109767498Y-73082391D01*
X109612644Y-73314147D01*
X109505978Y-73571661D01*
X109451601Y-73845036D01*
X109451601Y-74123766D01*
X109505978Y-74397141D01*
X109612644Y-74654655D01*
X109767498Y-74886411D01*
X109964591Y-75083504D01*
X110196347Y-75238358D01*
X110235078Y-75254401D01*
X110196347Y-75270444D01*
X109964591Y-75425298D01*
X109767498Y-75622391D01*
X109612644Y-75854147D01*
X109505978Y-76111661D01*
X109451601Y-76385036D01*
X109451601Y-76663766D01*
X109505978Y-76937141D01*
X109612644Y-77194655D01*
X109767498Y-77426411D01*
X109964591Y-77623504D01*
X110196347Y-77778358D01*
X110235078Y-77794401D01*
X110196347Y-77810444D01*
X109964591Y-77965298D01*
X109767498Y-78162391D01*
X109612644Y-78394147D01*
X109505978Y-78651661D01*
X109451601Y-78925036D01*
X109451601Y-79203766D01*
X109505978Y-79477141D01*
X109612644Y-79734655D01*
X109767498Y-79966411D01*
X109964591Y-80163504D01*
X110196347Y-80318358D01*
X110232126Y-80333178D01*
X110136946Y-80384052D01*
X110067785Y-80625980D01*
X110866601Y-81424796D01*
X110880744Y-81410654D01*
X111060349Y-81590259D01*
X111046206Y-81604401D01*
X111060349Y-81618544D01*
X110880744Y-81798149D01*
X110866601Y-81784006D01*
X110852459Y-81798149D01*
X110672854Y-81618544D01*
X110686996Y-81604401D01*
X109888180Y-80805585D01*
X109646252Y-80874746D01*
X109566607Y-81043615D01*
X108878488Y-80355497D01*
X108846077Y-80316004D01*
X108688478Y-80186666D01*
X108508674Y-80090559D01*
X108313576Y-80031376D01*
X108161519Y-80016400D01*
X108161509Y-80016400D01*
X108110681Y-80011394D01*
X108059853Y-80016400D01*
X107973707Y-80016400D01*
X107855232Y-79897925D01*
X107680840Y-79781400D01*
X107855232Y-79664875D01*
X108062075Y-79458032D01*
X108224590Y-79214811D01*
X108336532Y-78944558D01*
X108393600Y-78657660D01*
X108393600Y-78365140D01*
X108336532Y-78078242D01*
X108224590Y-77807989D01*
X108062075Y-77564768D01*
X107855232Y-77357925D01*
X107612011Y-77195410D01*
X107341758Y-77083468D01*
X107054860Y-77026400D01*
X106762340Y-77026400D01*
X106475442Y-77083468D01*
X106205189Y-77195410D01*
X105961968Y-77357925D01*
X105755125Y-77564768D01*
X105592610Y-77807989D01*
X105480668Y-78078242D01*
X105423600Y-78365140D01*
X105423600Y-78657660D01*
X105480668Y-78944558D01*
X105592610Y-79214811D01*
X105755125Y-79458032D01*
X105961968Y-79664875D01*
X106136360Y-79781400D01*
X105961968Y-79897925D01*
X105755125Y-80104768D01*
X105592610Y-80347989D01*
X105480668Y-80618242D01*
X105423600Y-80905140D01*
X105423600Y-81197660D01*
X105480668Y-81484558D01*
X105592610Y-81754811D01*
X105755125Y-81998032D01*
X105886980Y-82129887D01*
X105814420Y-82151898D01*
X105704106Y-82210863D01*
X105607415Y-82290215D01*
X105528063Y-82386906D01*
X105469098Y-82497220D01*
X105432788Y-82616918D01*
X105420528Y-82741400D01*
X105420528Y-84441400D01*
X105432788Y-84565882D01*
X105469098Y-84685580D01*
X105528063Y-84795894D01*
X105607415Y-84892585D01*
X105704106Y-84971937D01*
X105814420Y-85030902D01*
X105873601Y-85048854D01*
X105873600Y-95732572D01*
X105868594Y-95783400D01*
X105873600Y-95834228D01*
X105873600Y-95834237D01*
X105888576Y-95986294D01*
X105947759Y-96181392D01*
X106043866Y-96361197D01*
X106173204Y-96518796D01*
X106212697Y-96551207D01*
X108451601Y-98790112D01*
X108451601Y-100987489D01*
X108434280Y-100945673D01*
X108277237Y-100710641D01*
X108077359Y-100510763D01*
X107842327Y-100353720D01*
X107581174Y-100245547D01*
X107303935Y-100190400D01*
X107021265Y-100190400D01*
X106744026Y-100245547D01*
X106482873Y-100353720D01*
X106247841Y-100510763D01*
X106047963Y-100710641D01*
X105890920Y-100945673D01*
X105782747Y-101206826D01*
X105727600Y-101484065D01*
X105727600Y-101766735D01*
X105782747Y-102043974D01*
X105890920Y-102305127D01*
X106047963Y-102540159D01*
X106247841Y-102740037D01*
X106480359Y-102895400D01*
X106247841Y-103050763D01*
X106047963Y-103250641D01*
X105890920Y-103485673D01*
X105782747Y-103746826D01*
X105727600Y-104024065D01*
X105727600Y-104306735D01*
X105782747Y-104583974D01*
X105890920Y-104845127D01*
X106047963Y-105080159D01*
X106247841Y-105280037D01*
X106480359Y-105435400D01*
X106247841Y-105590763D01*
X106047963Y-105790641D01*
X105890920Y-106025673D01*
X105782747Y-106286826D01*
X105727600Y-106564065D01*
X105727600Y-106846735D01*
X105782747Y-107123974D01*
X105890920Y-107385127D01*
X106047963Y-107620159D01*
X106247841Y-107820037D01*
X106480359Y-107975400D01*
X106247841Y-108130763D01*
X106047963Y-108330641D01*
X105890920Y-108565673D01*
X105782747Y-108826826D01*
X105727600Y-109104065D01*
X105727600Y-109386735D01*
X105782747Y-109663974D01*
X105890920Y-109925127D01*
X106047963Y-110160159D01*
X106247841Y-110360037D01*
X106480359Y-110515400D01*
X106247841Y-110670763D01*
X106047963Y-110870641D01*
X105890920Y-111105673D01*
X105782747Y-111366826D01*
X105727600Y-111644065D01*
X105727600Y-111926735D01*
X105782747Y-112203974D01*
X105890920Y-112465127D01*
X106047963Y-112700159D01*
X106247841Y-112900037D01*
X106480359Y-113055400D01*
X106247841Y-113210763D01*
X106047963Y-113410641D01*
X105890920Y-113645673D01*
X105782747Y-113906826D01*
X105727600Y-114184065D01*
X105727600Y-114466735D01*
X105782747Y-114743974D01*
X105890920Y-115005127D01*
X106047963Y-115240159D01*
X106247841Y-115440037D01*
X106482873Y-115597080D01*
X106744026Y-115705253D01*
X107021265Y-115760400D01*
X107303935Y-115760400D01*
X107581174Y-115705253D01*
X107842327Y-115597080D01*
X108077359Y-115440037D01*
X108277237Y-115240159D01*
X108434280Y-115005127D01*
X108451600Y-114963312D01*
X108451600Y-118767488D01*
X108434280Y-118725673D01*
X108277237Y-118490641D01*
X108077359Y-118290763D01*
X107842327Y-118133720D01*
X107581174Y-118025547D01*
X107303935Y-117970400D01*
X107021265Y-117970400D01*
X106744026Y-118025547D01*
X106482873Y-118133720D01*
X106247841Y-118290763D01*
X106047963Y-118490641D01*
X105890920Y-118725673D01*
X105782747Y-118986826D01*
X105727600Y-119264065D01*
X105727600Y-119546735D01*
X105782747Y-119823974D01*
X105890920Y-120085127D01*
X106047963Y-120320159D01*
X106247841Y-120520037D01*
X106482873Y-120677080D01*
X106493465Y-120681467D01*
X106307469Y-120793015D01*
X106099081Y-120981986D01*
X105931563Y-121207980D01*
X105811354Y-121462313D01*
X105770696Y-121596361D01*
X105892685Y-121818400D01*
X107035600Y-121818400D01*
X107035600Y-121798400D01*
X107289600Y-121798400D01*
X107289600Y-121818400D01*
X107309600Y-121818400D01*
X107309600Y-122072400D01*
X107289600Y-122072400D01*
X107289600Y-124358400D01*
X108432515Y-124358400D01*
X108533694Y-124174238D01*
X108621866Y-124339197D01*
X108751204Y-124496796D01*
X108790697Y-124529207D01*
X119589601Y-135328112D01*
X119589601Y-138176608D01*
X119553441Y-138057407D01*
X119505641Y-137967980D01*
X119457334Y-137877602D01*
X119360403Y-137759492D01*
X119327996Y-137720004D01*
X119288508Y-137687597D01*
X108597600Y-126996690D01*
X108597600Y-126884065D01*
X108542453Y-126606826D01*
X108434280Y-126345673D01*
X108277237Y-126110641D01*
X108077359Y-125910763D01*
X107842327Y-125753720D01*
X107831735Y-125749333D01*
X108017731Y-125637785D01*
X108226119Y-125448814D01*
X108393637Y-125222820D01*
X108513846Y-124968487D01*
X108554504Y-124834439D01*
X108432515Y-124612400D01*
X107289600Y-124612400D01*
X107289600Y-124632400D01*
X107035600Y-124632400D01*
X107035600Y-124612400D01*
X105892685Y-124612400D01*
X105770696Y-124834439D01*
X105811354Y-124968487D01*
X105931563Y-125222820D01*
X106099081Y-125448814D01*
X106307469Y-125637785D01*
X106493465Y-125749333D01*
X106482873Y-125753720D01*
X106247841Y-125910763D01*
X106047963Y-126110641D01*
X105890920Y-126345673D01*
X105782747Y-126606826D01*
X105727600Y-126884065D01*
X105727600Y-127166735D01*
X105782747Y-127443974D01*
X105890920Y-127705127D01*
X106047963Y-127940159D01*
X106247841Y-128140037D01*
X106480359Y-128295400D01*
X106247841Y-128450763D01*
X106047963Y-128650641D01*
X105890920Y-128885673D01*
X105782747Y-129146826D01*
X105727600Y-129424065D01*
X105727600Y-129706735D01*
X105782747Y-129983974D01*
X105890920Y-130245127D01*
X106047963Y-130480159D01*
X106247841Y-130680037D01*
X106480359Y-130835400D01*
X106247841Y-130990763D01*
X106047963Y-131190641D01*
X105890920Y-131425673D01*
X105782747Y-131686826D01*
X105727600Y-131964065D01*
X105727600Y-132246735D01*
X105782747Y-132523974D01*
X105890920Y-132785127D01*
X106047963Y-133020159D01*
X106247841Y-133220037D01*
X106480359Y-133375400D01*
X106247841Y-133530763D01*
X106047963Y-133730641D01*
X105890920Y-133965673D01*
X105782747Y-134226826D01*
X105727600Y-134504065D01*
X105727600Y-134786735D01*
X105782747Y-135063974D01*
X105890920Y-135325127D01*
X106047963Y-135560159D01*
X106246561Y-135758757D01*
X106238118Y-135759588D01*
X106118420Y-135795898D01*
X106008106Y-135854863D01*
X105911415Y-135934215D01*
X105832063Y-136030906D01*
X105773098Y-136141220D01*
X105736788Y-136260918D01*
X105724528Y-136385400D01*
X105724528Y-137985400D01*
X105736788Y-138109882D01*
X105773098Y-138229580D01*
X105832063Y-138339894D01*
X105911415Y-138436585D01*
X106008106Y-138515937D01*
X106118420Y-138574902D01*
X106238118Y-138611212D01*
X106362600Y-138623472D01*
X107962600Y-138623472D01*
X108087082Y-138611212D01*
X108206780Y-138574902D01*
X108317094Y-138515937D01*
X108413785Y-138436585D01*
X108493137Y-138339894D01*
X108552102Y-138229580D01*
X108588412Y-138109882D01*
X108600672Y-137985400D01*
X108600672Y-136385400D01*
X108588412Y-136260918D01*
X108552102Y-136141220D01*
X108493137Y-136030906D01*
X108413785Y-135934215D01*
X108317094Y-135854863D01*
X108206780Y-135795898D01*
X108087082Y-135759588D01*
X108078639Y-135758757D01*
X108277237Y-135560159D01*
X108434280Y-135325127D01*
X108542453Y-135063974D01*
X108597600Y-134786735D01*
X108597600Y-134504065D01*
X108542453Y-134226826D01*
X108434280Y-133965673D01*
X108277237Y-133730641D01*
X108077359Y-133530763D01*
X107844841Y-133375400D01*
X108077359Y-133220037D01*
X108277237Y-133020159D01*
X108434280Y-132785127D01*
X108542453Y-132523974D01*
X108597600Y-132246735D01*
X108597600Y-131964065D01*
X108542453Y-131686826D01*
X108434280Y-131425673D01*
X108277237Y-131190641D01*
X108077359Y-130990763D01*
X107844841Y-130835400D01*
X108077359Y-130680037D01*
X108277237Y-130480159D01*
X108434280Y-130245127D01*
X108542453Y-129983974D01*
X108561535Y-129888045D01*
X117557601Y-138884112D01*
X117557600Y-150088572D01*
X117552594Y-150139400D01*
X117557600Y-150190228D01*
X117557600Y-150190237D01*
X117572576Y-150342294D01*
X117631759Y-150537392D01*
X117727866Y-150717197D01*
X117857204Y-150874796D01*
X117896697Y-150907207D01*
X127710087Y-160720598D01*
X127633600Y-161105121D01*
X127633600Y-161525679D01*
X127715647Y-161938156D01*
X127876588Y-162326702D01*
X128110237Y-162676383D01*
X128407617Y-162973763D01*
X128757298Y-163207412D01*
X129145844Y-163368353D01*
X129558321Y-163450400D01*
X129978879Y-163450400D01*
X130363403Y-163373913D01*
X131100798Y-164111309D01*
X131133205Y-164150797D01*
X131172693Y-164183204D01*
X131290803Y-164280135D01*
X131386910Y-164331505D01*
X131470608Y-164376242D01*
X131665706Y-164435425D01*
X131817763Y-164450401D01*
X131817765Y-164450401D01*
X131868601Y-164455408D01*
X131919436Y-164450401D01*
X149477773Y-164450401D01*
X149528601Y-164455407D01*
X149579429Y-164450401D01*
X149579439Y-164450401D01*
X149731496Y-164435425D01*
X149926594Y-164376242D01*
X150106398Y-164280135D01*
X150263997Y-164150797D01*
X150296408Y-164111304D01*
X158064601Y-156343112D01*
X158064601Y-174879400D01*
X104520600Y-174879400D01*
X104520600Y-171255272D01*
X105689600Y-171255272D01*
X105689600Y-171695528D01*
X105775490Y-172127325D01*
X105943969Y-172534069D01*
X106188562Y-172900129D01*
X106499871Y-173211438D01*
X106865931Y-173456031D01*
X107272675Y-173624510D01*
X107704472Y-173710400D01*
X108144728Y-173710400D01*
X108576525Y-173624510D01*
X108983269Y-173456031D01*
X109349329Y-173211438D01*
X109660638Y-172900129D01*
X109905231Y-172534069D01*
X110073710Y-172127325D01*
X110159600Y-171695528D01*
X110159600Y-171255272D01*
X152425600Y-171255272D01*
X152425600Y-171695528D01*
X152511490Y-172127325D01*
X152679969Y-172534069D01*
X152924562Y-172900129D01*
X153235871Y-173211438D01*
X153601931Y-173456031D01*
X154008675Y-173624510D01*
X154440472Y-173710400D01*
X154880728Y-173710400D01*
X155312525Y-173624510D01*
X155719269Y-173456031D01*
X156085329Y-173211438D01*
X156396638Y-172900129D01*
X156641231Y-172534069D01*
X156809710Y-172127325D01*
X156895600Y-171695528D01*
X156895600Y-171255272D01*
X156809710Y-170823475D01*
X156641231Y-170416731D01*
X156396638Y-170050671D01*
X156085329Y-169739362D01*
X155719269Y-169494769D01*
X155312525Y-169326290D01*
X154880728Y-169240400D01*
X154440472Y-169240400D01*
X154008675Y-169326290D01*
X153601931Y-169494769D01*
X153235871Y-169739362D01*
X152924562Y-170050671D01*
X152679969Y-170416731D01*
X152511490Y-170823475D01*
X152425600Y-171255272D01*
X110159600Y-171255272D01*
X110073710Y-170823475D01*
X109905231Y-170416731D01*
X109660638Y-170050671D01*
X109349329Y-169739362D01*
X108983269Y-169494769D01*
X108576525Y-169326290D01*
X108144728Y-169240400D01*
X107704472Y-169240400D01*
X107272675Y-169326290D01*
X106865931Y-169494769D01*
X106499871Y-169739362D01*
X106188562Y-170050671D01*
X105943969Y-170416731D01*
X105775490Y-170823475D01*
X105689600Y-171255272D01*
X104520600Y-171255272D01*
X104520600Y-161105121D01*
X122553600Y-161105121D01*
X122553600Y-161525679D01*
X122635647Y-161938156D01*
X122796588Y-162326702D01*
X123030237Y-162676383D01*
X123327617Y-162973763D01*
X123677298Y-163207412D01*
X124065844Y-163368353D01*
X124478321Y-163450400D01*
X124898879Y-163450400D01*
X125311356Y-163368353D01*
X125699902Y-163207412D01*
X126049583Y-162973763D01*
X126346963Y-162676383D01*
X126580612Y-162326702D01*
X126741553Y-161938156D01*
X126823600Y-161525679D01*
X126823600Y-161105121D01*
X126741553Y-160692644D01*
X126580612Y-160304098D01*
X126346963Y-159954417D01*
X126049583Y-159657037D01*
X125699902Y-159423388D01*
X125311356Y-159262447D01*
X124898879Y-159180400D01*
X124478321Y-159180400D01*
X124065844Y-159262447D01*
X123677298Y-159423388D01*
X123327617Y-159657037D01*
X123030237Y-159954417D01*
X122796588Y-160304098D01*
X122635647Y-160692644D01*
X122553600Y-161105121D01*
X104520600Y-161105121D01*
X104520600Y-156526400D01*
X111008528Y-156526400D01*
X111008528Y-157976400D01*
X111025592Y-158149654D01*
X111076128Y-158316250D01*
X111158195Y-158469786D01*
X111268638Y-158604362D01*
X111403214Y-158714805D01*
X111556750Y-158796872D01*
X111723346Y-158847408D01*
X111896600Y-158864472D01*
X113096600Y-158864472D01*
X113269854Y-158847408D01*
X113436450Y-158796872D01*
X113589986Y-158714805D01*
X113724562Y-158604362D01*
X113835005Y-158469786D01*
X113889377Y-158368063D01*
X113941466Y-158431534D01*
X114167587Y-158617106D01*
X114425567Y-158754999D01*
X114705490Y-158839913D01*
X114996600Y-158868585D01*
X115287711Y-158839913D01*
X115567634Y-158754999D01*
X115825614Y-158617106D01*
X116051734Y-158431534D01*
X116237306Y-158205414D01*
X116251062Y-158179678D01*
X116407551Y-158385829D01*
X116625407Y-158578896D01*
X116876742Y-158725752D01*
X117139710Y-158817876D01*
X117369600Y-158696555D01*
X117369600Y-157378400D01*
X117623600Y-157378400D01*
X117623600Y-158696555D01*
X117853490Y-158817876D01*
X118116458Y-158725752D01*
X118367793Y-158578896D01*
X118585649Y-158385829D01*
X118761653Y-158153970D01*
X118889042Y-157892230D01*
X118962920Y-157610667D01*
X118822765Y-157378400D01*
X117623600Y-157378400D01*
X117369600Y-157378400D01*
X117349600Y-157378400D01*
X117349600Y-157124400D01*
X117369600Y-157124400D01*
X117369600Y-155806245D01*
X117623600Y-155806245D01*
X117623600Y-157124400D01*
X118822765Y-157124400D01*
X118962920Y-156892133D01*
X118889042Y-156610570D01*
X118761653Y-156348830D01*
X118585649Y-156116971D01*
X118367793Y-155923904D01*
X118116458Y-155777048D01*
X117853490Y-155684924D01*
X117623600Y-155806245D01*
X117369600Y-155806245D01*
X117139710Y-155684924D01*
X116876742Y-155777048D01*
X116625407Y-155923904D01*
X116407551Y-156116971D01*
X116251062Y-156323122D01*
X116237306Y-156297386D01*
X116051734Y-156071266D01*
X115825613Y-155885694D01*
X115567633Y-155747801D01*
X115287710Y-155662887D01*
X114996600Y-155634215D01*
X114705489Y-155662887D01*
X114425566Y-155747801D01*
X114167586Y-155885694D01*
X113941466Y-156071266D01*
X113889377Y-156134737D01*
X113835005Y-156033014D01*
X113724562Y-155898438D01*
X113589986Y-155787995D01*
X113436450Y-155705928D01*
X113269854Y-155655392D01*
X113096600Y-155638328D01*
X111896600Y-155638328D01*
X111723346Y-155655392D01*
X111556750Y-155705928D01*
X111403214Y-155787995D01*
X111268638Y-155898438D01*
X111158195Y-156033014D01*
X111076128Y-156186550D01*
X111025592Y-156353146D01*
X111008528Y-156526400D01*
X104520600Y-156526400D01*
X104520600Y-150935272D01*
X104927600Y-150935272D01*
X104927600Y-151375528D01*
X105013490Y-151807325D01*
X105181969Y-152214069D01*
X105426562Y-152580129D01*
X105737871Y-152891438D01*
X106103931Y-153136031D01*
X106510675Y-153304510D01*
X106942472Y-153390400D01*
X107382728Y-153390400D01*
X107814525Y-153304510D01*
X108221269Y-153136031D01*
X108587329Y-152891438D01*
X108898638Y-152580129D01*
X109143231Y-152214069D01*
X109311710Y-151807325D01*
X109397600Y-151375528D01*
X109397600Y-150935272D01*
X109311710Y-150503475D01*
X109143231Y-150096731D01*
X108898638Y-149730671D01*
X108587329Y-149419362D01*
X108221269Y-149174769D01*
X107814525Y-149006290D01*
X107382728Y-148920400D01*
X106942472Y-148920400D01*
X106510675Y-149006290D01*
X106103931Y-149174769D01*
X105737871Y-149419362D01*
X105426562Y-149730671D01*
X105181969Y-150096731D01*
X105013490Y-150503475D01*
X104927600Y-150935272D01*
X104520600Y-150935272D01*
X104520600Y-122294439D01*
X105770696Y-122294439D01*
X105811354Y-122428487D01*
X105931563Y-122682820D01*
X106099081Y-122908814D01*
X106307469Y-123097785D01*
X106503582Y-123215400D01*
X106307469Y-123333015D01*
X106099081Y-123521986D01*
X105931563Y-123747980D01*
X105811354Y-124002313D01*
X105770696Y-124136361D01*
X105892685Y-124358400D01*
X107035600Y-124358400D01*
X107035600Y-122072400D01*
X105892685Y-122072400D01*
X105770696Y-122294439D01*
X104520600Y-122294439D01*
X104520600Y-44541774D01*
X112623600Y-44541774D01*
X112623600Y-44917026D01*
X112696809Y-45285068D01*
X112840411Y-45631756D01*
X113048890Y-45943766D01*
X113314234Y-46209110D01*
X113626244Y-46417589D01*
X113972932Y-46561191D01*
X114340974Y-46634400D01*
X114716226Y-46634400D01*
X115084268Y-46561191D01*
X115430956Y-46417589D01*
X115742966Y-46209110D01*
X116008310Y-45943766D01*
X116216789Y-45631756D01*
X116360391Y-45285068D01*
X116433600Y-44917026D01*
X116433600Y-44541774D01*
X116360391Y-44173732D01*
X116216789Y-43827044D01*
X116008310Y-43515034D01*
X115742966Y-43249690D01*
X115430956Y-43041211D01*
X115084268Y-42897609D01*
X114716226Y-42824400D01*
X114340974Y-42824400D01*
X113972932Y-42897609D01*
X113626244Y-43041211D01*
X113314234Y-43249690D01*
X113048890Y-43515034D01*
X112840411Y-43827044D01*
X112696809Y-44173732D01*
X112623600Y-44541774D01*
X104520600Y-44541774D01*
X104520600Y-37651272D01*
X105689600Y-37651272D01*
X105689600Y-38091528D01*
X105775490Y-38523325D01*
X105943969Y-38930069D01*
X106188562Y-39296129D01*
X106499871Y-39607438D01*
X106865931Y-39852031D01*
X107272675Y-40020510D01*
X107704472Y-40106400D01*
X108144728Y-40106400D01*
X108576525Y-40020510D01*
X108983269Y-39852031D01*
X109349329Y-39607438D01*
X109660638Y-39296129D01*
X109905231Y-38930069D01*
X110073710Y-38523325D01*
X110159600Y-38091528D01*
X110159600Y-37651272D01*
X152425600Y-37651272D01*
X152425600Y-38091528D01*
X152511490Y-38523325D01*
X152679969Y-38930069D01*
X152924562Y-39296129D01*
X153235871Y-39607438D01*
X153601931Y-39852031D01*
X154008675Y-40020510D01*
X154440472Y-40106400D01*
X154880728Y-40106400D01*
X155312525Y-40020510D01*
X155719269Y-39852031D01*
X156085329Y-39607438D01*
X156396638Y-39296129D01*
X156641231Y-38930069D01*
X156809710Y-38523325D01*
X156895600Y-38091528D01*
X156895600Y-37651272D01*
X156809710Y-37219475D01*
X156641231Y-36812731D01*
X156396638Y-36446671D01*
X156085329Y-36135362D01*
X155719269Y-35890769D01*
X155312525Y-35722290D01*
X154880728Y-35636400D01*
X154440472Y-35636400D01*
X154008675Y-35722290D01*
X153601931Y-35890769D01*
X153235871Y-36135362D01*
X152924562Y-36446671D01*
X152679969Y-36812731D01*
X152511490Y-37219475D01*
X152425600Y-37651272D01*
X110159600Y-37651272D01*
X110073710Y-37219475D01*
X109905231Y-36812731D01*
X109660638Y-36446671D01*
X109349329Y-36135362D01*
X108983269Y-35890769D01*
X108576525Y-35722290D01*
X108144728Y-35636400D01*
X107704472Y-35636400D01*
X107272675Y-35722290D01*
X106865931Y-35890769D01*
X106499871Y-36135362D01*
X106188562Y-36446671D01*
X105943969Y-36812731D01*
X105775490Y-37219475D01*
X105689600Y-37651272D01*
X104520600Y-37651272D01*
X104520600Y-34467400D01*
X158064600Y-34467400D01*
X158064600Y-88808289D01*
G36*
X154387600Y-122374111D02*
G01*
X154387600Y-122471004D01*
X154307963Y-122550641D01*
X154150920Y-122785673D01*
X154042747Y-123046826D01*
X153987600Y-123324065D01*
X153987600Y-123606735D01*
X154042747Y-123883974D01*
X154150920Y-124145127D01*
X154307963Y-124380159D01*
X154507841Y-124580037D01*
X154740359Y-124735400D01*
X154507841Y-124890763D01*
X154307963Y-125090641D01*
X154150920Y-125325673D01*
X154042747Y-125586826D01*
X153987600Y-125864065D01*
X153987600Y-126146735D01*
X154042747Y-126423974D01*
X154150920Y-126685127D01*
X154307963Y-126920159D01*
X154507841Y-127120037D01*
X154740359Y-127275400D01*
X154507841Y-127430763D01*
X154307963Y-127630641D01*
X154150920Y-127865673D01*
X154042747Y-128126826D01*
X153987600Y-128404065D01*
X153987600Y-128686735D01*
X154042747Y-128963974D01*
X154150920Y-129225127D01*
X154307963Y-129460159D01*
X154507841Y-129660037D01*
X154740359Y-129815400D01*
X154507841Y-129970763D01*
X154307963Y-130170641D01*
X154150920Y-130405673D01*
X154042747Y-130666826D01*
X153987600Y-130944065D01*
X153987600Y-131226735D01*
X154042747Y-131503974D01*
X154150920Y-131765127D01*
X154307963Y-132000159D01*
X154507841Y-132200037D01*
X154740359Y-132355400D01*
X154507841Y-132510763D01*
X154307963Y-132710641D01*
X154150920Y-132945673D01*
X154042747Y-133206826D01*
X153987600Y-133484065D01*
X153987600Y-133766735D01*
X154042747Y-134043974D01*
X154150920Y-134305127D01*
X154307963Y-134540159D01*
X154507841Y-134740037D01*
X154740359Y-134895400D01*
X154507841Y-135050763D01*
X154307963Y-135250641D01*
X154150920Y-135485673D01*
X154042747Y-135746826D01*
X153987600Y-136024065D01*
X153987600Y-136306735D01*
X154042747Y-136583974D01*
X154150920Y-136845127D01*
X154307963Y-137080159D01*
X154507841Y-137280037D01*
X154742873Y-137437080D01*
X154753465Y-137441467D01*
X154567469Y-137553015D01*
X154359081Y-137741986D01*
X154191563Y-137967980D01*
X154071354Y-138222313D01*
X154030696Y-138356361D01*
X154152685Y-138578400D01*
X155295600Y-138578400D01*
X155295600Y-138558400D01*
X155549600Y-138558400D01*
X155549600Y-138578400D01*
X155569600Y-138578400D01*
X155569600Y-138832400D01*
X155549600Y-138832400D01*
X155549600Y-138852400D01*
X155295600Y-138852400D01*
X155295600Y-138832400D01*
X154152685Y-138832400D01*
X154030696Y-139054439D01*
X154071354Y-139188487D01*
X154191563Y-139442820D01*
X154359081Y-139668814D01*
X154567469Y-139857785D01*
X154753465Y-139969333D01*
X154742873Y-139973720D01*
X154507841Y-140130763D01*
X154307963Y-140330641D01*
X154150920Y-140565673D01*
X154042747Y-140826826D01*
X153987600Y-141104065D01*
X153987600Y-141386735D01*
X154042747Y-141663974D01*
X154150920Y-141925127D01*
X154307963Y-142160159D01*
X154507841Y-142360037D01*
X154740359Y-142515400D01*
X154507841Y-142670763D01*
X154307963Y-142870641D01*
X154150920Y-143105673D01*
X154042747Y-143366826D01*
X153987600Y-143644065D01*
X153987600Y-143926735D01*
X154042747Y-144203974D01*
X154150920Y-144465127D01*
X154307963Y-144700159D01*
X154507841Y-144900037D01*
X154740359Y-145055400D01*
X154507841Y-145210763D01*
X154307963Y-145410641D01*
X154150920Y-145645673D01*
X154042747Y-145906826D01*
X153987600Y-146184065D01*
X153987600Y-146466735D01*
X154042747Y-146743974D01*
X154150920Y-147005127D01*
X154307963Y-147240159D01*
X154507841Y-147440037D01*
X154742873Y-147597080D01*
X154978942Y-147694863D01*
X154770675Y-147736290D01*
X154363931Y-147904769D01*
X153997871Y-148149362D01*
X153686562Y-148460671D01*
X153441969Y-148826731D01*
X153273490Y-149233475D01*
X153187600Y-149665272D01*
X153187600Y-150105528D01*
X153273490Y-150537325D01*
X153441969Y-150944069D01*
X153686562Y-151310129D01*
X153997871Y-151621438D01*
X154363931Y-151866031D01*
X154770675Y-152034510D01*
X155202472Y-152120400D01*
X155642728Y-152120400D01*
X156074525Y-152034510D01*
X156481269Y-151866031D01*
X156587601Y-151794982D01*
X156587601Y-154892690D01*
X149686672Y-161793620D01*
X149686672Y-159815400D01*
X149674412Y-159690918D01*
X149638102Y-159571220D01*
X149579137Y-159460906D01*
X149499785Y-159364215D01*
X149403094Y-159284863D01*
X149292780Y-159225898D01*
X149173082Y-159189588D01*
X149048600Y-159177328D01*
X146048600Y-159177328D01*
X145924118Y-159189588D01*
X145804420Y-159225898D01*
X145694106Y-159284863D01*
X145597415Y-159364215D01*
X145518063Y-159460906D01*
X145459098Y-159571220D01*
X145422788Y-159690918D01*
X145410528Y-159815400D01*
X145410528Y-162380401D01*
X144324732Y-162380401D01*
X144360612Y-162326702D01*
X144521553Y-161938156D01*
X144603600Y-161525679D01*
X144603600Y-161105121D01*
X144521553Y-160692644D01*
X144360612Y-160304098D01*
X144126963Y-159954417D01*
X143829583Y-159657037D01*
X143479902Y-159423388D01*
X143091356Y-159262447D01*
X142678879Y-159180400D01*
X142258321Y-159180400D01*
X141845844Y-159262447D01*
X141457298Y-159423388D01*
X141107617Y-159657037D01*
X140810237Y-159954417D01*
X140576588Y-160304098D01*
X140415647Y-160692644D01*
X140333600Y-161105121D01*
X140333600Y-161525679D01*
X140415647Y-161938156D01*
X140576588Y-162326702D01*
X140612468Y-162380401D01*
X136985571Y-162380401D01*
X136983600Y-161601150D01*
X136824850Y-161442400D01*
X134975600Y-161442400D01*
X134975600Y-161462400D01*
X134721600Y-161462400D01*
X134721600Y-161442400D01*
X132872350Y-161442400D01*
X132713600Y-161601150D01*
X132711629Y-162380401D01*
X132297312Y-162380401D01*
X131827113Y-161910203D01*
X131903600Y-161525679D01*
X131903600Y-161105121D01*
X131827113Y-160720597D01*
X132297312Y-160250399D01*
X132711629Y-160250399D01*
X132713600Y-161029650D01*
X132872350Y-161188400D01*
X134721600Y-161188400D01*
X134721600Y-161168400D01*
X134975600Y-161168400D01*
X134975600Y-161188400D01*
X136824850Y-161188400D01*
X136983600Y-161029650D01*
X136985571Y-160250399D01*
X138607854Y-160250399D01*
X138658682Y-160255405D01*
X138709510Y-160250399D01*
X138709520Y-160250399D01*
X138861577Y-160235423D01*
X139056675Y-160176240D01*
X139236479Y-160080133D01*
X139394078Y-159950795D01*
X139426489Y-159911302D01*
X144118391Y-155219400D01*
X144984593Y-155219400D01*
X144989600Y-155270238D01*
X144989600Y-155321339D01*
X144999569Y-155371457D01*
X145004576Y-155422295D01*
X145019404Y-155471177D01*
X145029374Y-155521298D01*
X145048931Y-155568513D01*
X145063759Y-155617393D01*
X145087838Y-155662442D01*
X145107395Y-155709656D01*
X145135786Y-155752146D01*
X145159866Y-155797197D01*
X145192272Y-155836684D01*
X145220663Y-155879174D01*
X145256797Y-155915308D01*
X145289204Y-155954796D01*
X145328692Y-155987203D01*
X145364826Y-156023337D01*
X145407316Y-156051728D01*
X145446803Y-156084134D01*
X145491854Y-156108214D01*
X145534344Y-156136605D01*
X145581558Y-156156162D01*
X145626607Y-156180241D01*
X145675487Y-156195069D01*
X145722702Y-156214626D01*
X145772823Y-156224596D01*
X145821705Y-156239424D01*
X145872543Y-156244431D01*
X145922661Y-156254400D01*
X151714539Y-156254400D01*
X151764657Y-156244431D01*
X151815495Y-156239424D01*
X151864377Y-156224596D01*
X151914498Y-156214626D01*
X151961713Y-156195069D01*
X152010593Y-156180241D01*
X152055642Y-156156162D01*
X152102856Y-156136605D01*
X152145346Y-156108214D01*
X152190397Y-156084134D01*
X152229884Y-156051728D01*
X152272374Y-156023337D01*
X152308508Y-155987203D01*
X152347996Y-155954796D01*
X152380403Y-155915308D01*
X152416537Y-155879174D01*
X152444928Y-155836684D01*
X152477334Y-155797197D01*
X152501414Y-155752146D01*
X152529805Y-155709656D01*
X152549362Y-155662442D01*
X152573441Y-155617393D01*
X152588269Y-155568513D01*
X152607826Y-155521298D01*
X152617796Y-155471177D01*
X152632624Y-155422295D01*
X152637631Y-155371457D01*
X152647600Y-155321339D01*
X152647600Y-155270238D01*
X152652607Y-155219400D01*
X152647600Y-155168562D01*
X152647600Y-155117461D01*
X152637631Y-155067343D01*
X152632624Y-155016505D01*
X152617796Y-154967623D01*
X152607826Y-154917502D01*
X152588269Y-154870287D01*
X152573441Y-154821407D01*
X152549362Y-154776358D01*
X152529805Y-154729144D01*
X152501414Y-154686654D01*
X152477334Y-154641603D01*
X152444928Y-154602116D01*
X152416537Y-154559626D01*
X152380403Y-154523492D01*
X152347996Y-154484004D01*
X152308508Y-154451597D01*
X152272374Y-154415463D01*
X152229884Y-154387072D01*
X152190397Y-154354666D01*
X152145346Y-154330586D01*
X152102856Y-154302195D01*
X152055642Y-154282638D01*
X152010593Y-154258559D01*
X151961713Y-154243731D01*
X151914498Y-154224174D01*
X151864377Y-154214204D01*
X151815495Y-154199376D01*
X151764657Y-154194369D01*
X151714539Y-154184400D01*
X145922661Y-154184400D01*
X145872543Y-154194369D01*
X145821705Y-154199376D01*
X145772823Y-154214204D01*
X145722702Y-154224174D01*
X145675487Y-154243731D01*
X145626607Y-154258559D01*
X145581558Y-154282638D01*
X145534344Y-154302195D01*
X145491854Y-154330586D01*
X145446803Y-154354666D01*
X145407316Y-154387072D01*
X145364826Y-154415463D01*
X145328692Y-154451597D01*
X145289204Y-154484004D01*
X145256797Y-154523492D01*
X145220663Y-154559626D01*
X145192272Y-154602116D01*
X145159866Y-154641603D01*
X145135786Y-154686654D01*
X145107395Y-154729144D01*
X145087838Y-154776358D01*
X145063759Y-154821407D01*
X145048931Y-154870287D01*
X145029374Y-154917502D01*
X145019404Y-154967623D01*
X145004576Y-155016505D01*
X144999569Y-155067343D01*
X144989600Y-155117461D01*
X144989600Y-155168562D01*
X144984593Y-155219400D01*
X144118391Y-155219400D01*
X145196508Y-154141284D01*
X145235996Y-154108877D01*
X145268403Y-154069389D01*
X145365334Y-153951279D01*
X145461440Y-153771475D01*
X145461441Y-153771474D01*
X145520624Y-153576376D01*
X145535600Y-153424319D01*
X145535600Y-153424316D01*
X145540607Y-153373481D01*
X145535600Y-153322646D01*
X145535600Y-153236507D01*
X145654075Y-153118032D01*
X145775795Y-152935866D01*
X145845422Y-153052755D01*
X146040331Y-153268988D01*
X146273680Y-153443041D01*
X146536501Y-153568225D01*
X146683710Y-153612876D01*
X146913600Y-153491555D01*
X146913600Y-152298400D01*
X147167600Y-152298400D01*
X147167600Y-153491555D01*
X147397490Y-153612876D01*
X147544699Y-153568225D01*
X147807520Y-153443041D01*
X148040869Y-153268988D01*
X148235778Y-153052755D01*
X148384757Y-152802652D01*
X148482081Y-152528291D01*
X148361414Y-152298400D01*
X147167600Y-152298400D01*
X146913600Y-152298400D01*
X146893600Y-152298400D01*
X146893600Y-152044400D01*
X146913600Y-152044400D01*
X146913600Y-150851245D01*
X147167600Y-150851245D01*
X147167600Y-152044400D01*
X148361414Y-152044400D01*
X148482081Y-151814509D01*
X148384757Y-151540148D01*
X148235778Y-151290045D01*
X148040869Y-151073812D01*
X147807520Y-150899759D01*
X147544699Y-150774575D01*
X147397490Y-150729924D01*
X147167600Y-150851245D01*
X146913600Y-150851245D01*
X146683710Y-150729924D01*
X146536501Y-150774575D01*
X146273680Y-150899759D01*
X146040331Y-151073812D01*
X145845422Y-151290045D01*
X145775795Y-151406934D01*
X145654075Y-151224768D01*
X145447232Y-151017925D01*
X145204011Y-150855410D01*
X144933758Y-150743468D01*
X144646860Y-150686400D01*
X144354340Y-150686400D01*
X144067442Y-150743468D01*
X143797189Y-150855410D01*
X143553968Y-151017925D01*
X143422113Y-151149780D01*
X143400102Y-151077220D01*
X143341137Y-150966906D01*
X143261785Y-150870215D01*
X143165094Y-150790863D01*
X143054780Y-150731898D01*
X142935082Y-150695588D01*
X142810600Y-150683328D01*
X141110600Y-150683328D01*
X140986118Y-150695588D01*
X140866420Y-150731898D01*
X140756106Y-150790863D01*
X140659415Y-150870215D01*
X140580063Y-150966906D01*
X140521098Y-151077220D01*
X140484788Y-151196918D01*
X140472528Y-151321400D01*
X140472528Y-153021400D01*
X140484788Y-153145882D01*
X140521098Y-153265580D01*
X140580063Y-153375894D01*
X140659415Y-153472585D01*
X140756106Y-153551937D01*
X140866420Y-153610902D01*
X140986118Y-153647212D01*
X141110600Y-153659472D01*
X142750898Y-153659472D01*
X138229972Y-158180399D01*
X134367311Y-158180399D01*
X140116508Y-152431203D01*
X140155996Y-152398796D01*
X140193204Y-152353458D01*
X140285334Y-152241198D01*
X140336704Y-152145091D01*
X140381441Y-152061393D01*
X140440624Y-151866295D01*
X140455600Y-151714238D01*
X140455600Y-151714229D01*
X140460606Y-151663401D01*
X140455600Y-151612573D01*
X140455600Y-124897872D01*
X146212508Y-119140965D01*
X146251996Y-119108558D01*
X146284403Y-119069070D01*
X146381334Y-118950960D01*
X146432704Y-118854853D01*
X146477441Y-118771155D01*
X146535305Y-118580405D01*
X147808403Y-117307308D01*
X147844537Y-117271174D01*
X147872928Y-117228684D01*
X147905333Y-117189198D01*
X147929412Y-117144149D01*
X147957805Y-117101656D01*
X147977363Y-117054439D01*
X148001440Y-117009394D01*
X148016266Y-116960519D01*
X148035826Y-116913298D01*
X148045797Y-116863171D01*
X148060623Y-116814296D01*
X148065629Y-116763466D01*
X148075600Y-116713339D01*
X148075600Y-116662229D01*
X148080606Y-116611401D01*
X148075600Y-116560573D01*
X148075600Y-116509461D01*
X148065629Y-116459332D01*
X148060623Y-116408506D01*
X148045798Y-116359634D01*
X148035826Y-116309502D01*
X148016265Y-116262277D01*
X148001440Y-116213407D01*
X147977365Y-116168366D01*
X147957805Y-116121144D01*
X147929409Y-116078647D01*
X147905333Y-116033603D01*
X147872933Y-115994123D01*
X147844537Y-115951626D01*
X147808394Y-115915483D01*
X147775995Y-115876005D01*
X147736517Y-115843606D01*
X147700374Y-115807463D01*
X147657877Y-115779067D01*
X147618397Y-115746667D01*
X147573353Y-115722591D01*
X147530856Y-115694195D01*
X147483634Y-115674635D01*
X147438593Y-115650560D01*
X147389723Y-115635735D01*
X147342498Y-115616174D01*
X147292366Y-115606202D01*
X147243494Y-115591377D01*
X147192668Y-115586371D01*
X147142539Y-115576400D01*
X147091427Y-115576400D01*
X147040599Y-115571394D01*
X146989771Y-115576400D01*
X146938661Y-115576400D01*
X146888534Y-115586371D01*
X146837704Y-115591377D01*
X146788829Y-115606203D01*
X146738702Y-115616174D01*
X146691481Y-115635734D01*
X146642606Y-115650560D01*
X146597561Y-115674637D01*
X146550344Y-115694195D01*
X146507851Y-115722588D01*
X146462802Y-115746667D01*
X146423316Y-115779072D01*
X146380826Y-115807463D01*
X146344692Y-115843597D01*
X144820692Y-117367598D01*
X144781205Y-117400004D01*
X144651866Y-117557603D01*
X144555759Y-117737407D01*
X144497895Y-117928156D01*
X138931600Y-123494452D01*
X138931600Y-120088110D01*
X145268403Y-113751308D01*
X145304537Y-113715174D01*
X145332925Y-113672688D01*
X145365334Y-113633198D01*
X145389416Y-113588144D01*
X145417805Y-113545656D01*
X145437362Y-113498441D01*
X145461440Y-113453394D01*
X145462707Y-113449218D01*
X154387600Y-122374111D01*
G37*
X154387600Y-122374111D02*
X154387600Y-122471004D01*
X154307963Y-122550641D01*
X154150920Y-122785673D01*
X154042747Y-123046826D01*
X153987600Y-123324065D01*
X153987600Y-123606735D01*
X154042747Y-123883974D01*
X154150920Y-124145127D01*
X154307963Y-124380159D01*
X154507841Y-124580037D01*
X154740359Y-124735400D01*
X154507841Y-124890763D01*
X154307963Y-125090641D01*
X154150920Y-125325673D01*
X154042747Y-125586826D01*
X153987600Y-125864065D01*
X153987600Y-126146735D01*
X154042747Y-126423974D01*
X154150920Y-126685127D01*
X154307963Y-126920159D01*
X154507841Y-127120037D01*
X154740359Y-127275400D01*
X154507841Y-127430763D01*
X154307963Y-127630641D01*
X154150920Y-127865673D01*
X154042747Y-128126826D01*
X153987600Y-128404065D01*
X153987600Y-128686735D01*
X154042747Y-128963974D01*
X154150920Y-129225127D01*
X154307963Y-129460159D01*
X154507841Y-129660037D01*
X154740359Y-129815400D01*
X154507841Y-129970763D01*
X154307963Y-130170641D01*
X154150920Y-130405673D01*
X154042747Y-130666826D01*
X153987600Y-130944065D01*
X153987600Y-131226735D01*
X154042747Y-131503974D01*
X154150920Y-131765127D01*
X154307963Y-132000159D01*
X154507841Y-132200037D01*
X154740359Y-132355400D01*
X154507841Y-132510763D01*
X154307963Y-132710641D01*
X154150920Y-132945673D01*
X154042747Y-133206826D01*
X153987600Y-133484065D01*
X153987600Y-133766735D01*
X154042747Y-134043974D01*
X154150920Y-134305127D01*
X154307963Y-134540159D01*
X154507841Y-134740037D01*
X154740359Y-134895400D01*
X154507841Y-135050763D01*
X154307963Y-135250641D01*
X154150920Y-135485673D01*
X154042747Y-135746826D01*
X153987600Y-136024065D01*
X153987600Y-136306735D01*
X154042747Y-136583974D01*
X154150920Y-136845127D01*
X154307963Y-137080159D01*
X154507841Y-137280037D01*
X154742873Y-137437080D01*
X154753465Y-137441467D01*
X154567469Y-137553015D01*
X154359081Y-137741986D01*
X154191563Y-137967980D01*
X154071354Y-138222313D01*
X154030696Y-138356361D01*
X154152685Y-138578400D01*
X155295600Y-138578400D01*
X155295600Y-138558400D01*
X155549600Y-138558400D01*
X155549600Y-138578400D01*
X155569600Y-138578400D01*
X155569600Y-138832400D01*
X155549600Y-138832400D01*
X155549600Y-138852400D01*
X155295600Y-138852400D01*
X155295600Y-138832400D01*
X154152685Y-138832400D01*
X154030696Y-139054439D01*
X154071354Y-139188487D01*
X154191563Y-139442820D01*
X154359081Y-139668814D01*
X154567469Y-139857785D01*
X154753465Y-139969333D01*
X154742873Y-139973720D01*
X154507841Y-140130763D01*
X154307963Y-140330641D01*
X154150920Y-140565673D01*
X154042747Y-140826826D01*
X153987600Y-141104065D01*
X153987600Y-141386735D01*
X154042747Y-141663974D01*
X154150920Y-141925127D01*
X154307963Y-142160159D01*
X154507841Y-142360037D01*
X154740359Y-142515400D01*
X154507841Y-142670763D01*
X154307963Y-142870641D01*
X154150920Y-143105673D01*
X154042747Y-143366826D01*
X153987600Y-143644065D01*
X153987600Y-143926735D01*
X154042747Y-144203974D01*
X154150920Y-144465127D01*
X154307963Y-144700159D01*
X154507841Y-144900037D01*
X154740359Y-145055400D01*
X154507841Y-145210763D01*
X154307963Y-145410641D01*
X154150920Y-145645673D01*
X154042747Y-145906826D01*
X153987600Y-146184065D01*
X153987600Y-146466735D01*
X154042747Y-146743974D01*
X154150920Y-147005127D01*
X154307963Y-147240159D01*
X154507841Y-147440037D01*
X154742873Y-147597080D01*
X154978942Y-147694863D01*
X154770675Y-147736290D01*
X154363931Y-147904769D01*
X153997871Y-148149362D01*
X153686562Y-148460671D01*
X153441969Y-148826731D01*
X153273490Y-149233475D01*
X153187600Y-149665272D01*
X153187600Y-150105528D01*
X153273490Y-150537325D01*
X153441969Y-150944069D01*
X153686562Y-151310129D01*
X153997871Y-151621438D01*
X154363931Y-151866031D01*
X154770675Y-152034510D01*
X155202472Y-152120400D01*
X155642728Y-152120400D01*
X156074525Y-152034510D01*
X156481269Y-151866031D01*
X156587601Y-151794982D01*
X156587601Y-154892690D01*
X149686672Y-161793620D01*
X149686672Y-159815400D01*
X149674412Y-159690918D01*
X149638102Y-159571220D01*
X149579137Y-159460906D01*
X149499785Y-159364215D01*
X149403094Y-159284863D01*
X149292780Y-159225898D01*
X149173082Y-159189588D01*
X149048600Y-159177328D01*
X146048600Y-159177328D01*
X145924118Y-159189588D01*
X145804420Y-159225898D01*
X145694106Y-159284863D01*
X145597415Y-159364215D01*
X145518063Y-159460906D01*
X145459098Y-159571220D01*
X145422788Y-159690918D01*
X145410528Y-159815400D01*
X145410528Y-162380401D01*
X144324732Y-162380401D01*
X144360612Y-162326702D01*
X144521553Y-161938156D01*
X144603600Y-161525679D01*
X144603600Y-161105121D01*
X144521553Y-160692644D01*
X144360612Y-160304098D01*
X144126963Y-159954417D01*
X143829583Y-159657037D01*
X143479902Y-159423388D01*
X143091356Y-159262447D01*
X142678879Y-159180400D01*
X142258321Y-159180400D01*
X141845844Y-159262447D01*
X141457298Y-159423388D01*
X141107617Y-159657037D01*
X140810237Y-159954417D01*
X140576588Y-160304098D01*
X140415647Y-160692644D01*
X140333600Y-161105121D01*
X140333600Y-161525679D01*
X140415647Y-161938156D01*
X140576588Y-162326702D01*
X140612468Y-162380401D01*
X136985571Y-162380401D01*
X136983600Y-161601150D01*
X136824850Y-161442400D01*
X134975600Y-161442400D01*
X134975600Y-161462400D01*
X134721600Y-161462400D01*
X134721600Y-161442400D01*
X132872350Y-161442400D01*
X132713600Y-161601150D01*
X132711629Y-162380401D01*
X132297312Y-162380401D01*
X131827113Y-161910203D01*
X131903600Y-161525679D01*
X131903600Y-161105121D01*
X131827113Y-160720597D01*
X132297312Y-160250399D01*
X132711629Y-160250399D01*
X132713600Y-161029650D01*
X132872350Y-161188400D01*
X134721600Y-161188400D01*
X134721600Y-161168400D01*
X134975600Y-161168400D01*
X134975600Y-161188400D01*
X136824850Y-161188400D01*
X136983600Y-161029650D01*
X136985571Y-160250399D01*
X138607854Y-160250399D01*
X138658682Y-160255405D01*
X138709510Y-160250399D01*
X138709520Y-160250399D01*
X138861577Y-160235423D01*
X139056675Y-160176240D01*
X139236479Y-160080133D01*
X139394078Y-159950795D01*
X139426489Y-159911302D01*
X144118391Y-155219400D01*
X144984593Y-155219400D01*
X144989600Y-155270238D01*
X144989600Y-155321339D01*
X144999569Y-155371457D01*
X145004576Y-155422295D01*
X145019404Y-155471177D01*
X145029374Y-155521298D01*
X145048931Y-155568513D01*
X145063759Y-155617393D01*
X145087838Y-155662442D01*
X145107395Y-155709656D01*
X145135786Y-155752146D01*
X145159866Y-155797197D01*
X145192272Y-155836684D01*
X145220663Y-155879174D01*
X145256797Y-155915308D01*
X145289204Y-155954796D01*
X145328692Y-155987203D01*
X145364826Y-156023337D01*
X145407316Y-156051728D01*
X145446803Y-156084134D01*
X145491854Y-156108214D01*
X145534344Y-156136605D01*
X145581558Y-156156162D01*
X145626607Y-156180241D01*
X145675487Y-156195069D01*
X145722702Y-156214626D01*
X145772823Y-156224596D01*
X145821705Y-156239424D01*
X145872543Y-156244431D01*
X145922661Y-156254400D01*
X151714539Y-156254400D01*
X151764657Y-156244431D01*
X151815495Y-156239424D01*
X151864377Y-156224596D01*
X151914498Y-156214626D01*
X151961713Y-156195069D01*
X152010593Y-156180241D01*
X152055642Y-156156162D01*
X152102856Y-156136605D01*
X152145346Y-156108214D01*
X152190397Y-156084134D01*
X152229884Y-156051728D01*
X152272374Y-156023337D01*
X152308508Y-155987203D01*
X152347996Y-155954796D01*
X152380403Y-155915308D01*
X152416537Y-155879174D01*
X152444928Y-155836684D01*
X152477334Y-155797197D01*
X152501414Y-155752146D01*
X152529805Y-155709656D01*
X152549362Y-155662442D01*
X152573441Y-155617393D01*
X152588269Y-155568513D01*
X152607826Y-155521298D01*
X152617796Y-155471177D01*
X152632624Y-155422295D01*
X152637631Y-155371457D01*
X152647600Y-155321339D01*
X152647600Y-155270238D01*
X152652607Y-155219400D01*
X152647600Y-155168562D01*
X152647600Y-155117461D01*
X152637631Y-155067343D01*
X152632624Y-155016505D01*
X152617796Y-154967623D01*
X152607826Y-154917502D01*
X152588269Y-154870287D01*
X152573441Y-154821407D01*
X152549362Y-154776358D01*
X152529805Y-154729144D01*
X152501414Y-154686654D01*
X152477334Y-154641603D01*
X152444928Y-154602116D01*
X152416537Y-154559626D01*
X152380403Y-154523492D01*
X152347996Y-154484004D01*
X152308508Y-154451597D01*
X152272374Y-154415463D01*
X152229884Y-154387072D01*
X152190397Y-154354666D01*
X152145346Y-154330586D01*
X152102856Y-154302195D01*
X152055642Y-154282638D01*
X152010593Y-154258559D01*
X151961713Y-154243731D01*
X151914498Y-154224174D01*
X151864377Y-154214204D01*
X151815495Y-154199376D01*
X151764657Y-154194369D01*
X151714539Y-154184400D01*
X145922661Y-154184400D01*
X145872543Y-154194369D01*
X145821705Y-154199376D01*
X145772823Y-154214204D01*
X145722702Y-154224174D01*
X145675487Y-154243731D01*
X145626607Y-154258559D01*
X145581558Y-154282638D01*
X145534344Y-154302195D01*
X145491854Y-154330586D01*
X145446803Y-154354666D01*
X145407316Y-154387072D01*
X145364826Y-154415463D01*
X145328692Y-154451597D01*
X145289204Y-154484004D01*
X145256797Y-154523492D01*
X145220663Y-154559626D01*
X145192272Y-154602116D01*
X145159866Y-154641603D01*
X145135786Y-154686654D01*
X145107395Y-154729144D01*
X145087838Y-154776358D01*
X145063759Y-154821407D01*
X145048931Y-154870287D01*
X145029374Y-154917502D01*
X145019404Y-154967623D01*
X145004576Y-155016505D01*
X144999569Y-155067343D01*
X144989600Y-155117461D01*
X144989600Y-155168562D01*
X144984593Y-155219400D01*
X144118391Y-155219400D01*
X145196508Y-154141284D01*
X145235996Y-154108877D01*
X145268403Y-154069389D01*
X145365334Y-153951279D01*
X145461440Y-153771475D01*
X145461441Y-153771474D01*
X145520624Y-153576376D01*
X145535600Y-153424319D01*
X145535600Y-153424316D01*
X145540607Y-153373481D01*
X145535600Y-153322646D01*
X145535600Y-153236507D01*
X145654075Y-153118032D01*
X145775795Y-152935866D01*
X145845422Y-153052755D01*
X146040331Y-153268988D01*
X146273680Y-153443041D01*
X146536501Y-153568225D01*
X146683710Y-153612876D01*
X146913600Y-153491555D01*
X146913600Y-152298400D01*
X147167600Y-152298400D01*
X147167600Y-153491555D01*
X147397490Y-153612876D01*
X147544699Y-153568225D01*
X147807520Y-153443041D01*
X148040869Y-153268988D01*
X148235778Y-153052755D01*
X148384757Y-152802652D01*
X148482081Y-152528291D01*
X148361414Y-152298400D01*
X147167600Y-152298400D01*
X146913600Y-152298400D01*
X146893600Y-152298400D01*
X146893600Y-152044400D01*
X146913600Y-152044400D01*
X146913600Y-150851245D01*
X147167600Y-150851245D01*
X147167600Y-152044400D01*
X148361414Y-152044400D01*
X148482081Y-151814509D01*
X148384757Y-151540148D01*
X148235778Y-151290045D01*
X148040869Y-151073812D01*
X147807520Y-150899759D01*
X147544699Y-150774575D01*
X147397490Y-150729924D01*
X147167600Y-150851245D01*
X146913600Y-150851245D01*
X146683710Y-150729924D01*
X146536501Y-150774575D01*
X146273680Y-150899759D01*
X146040331Y-151073812D01*
X145845422Y-151290045D01*
X145775795Y-151406934D01*
X145654075Y-151224768D01*
X145447232Y-151017925D01*
X145204011Y-150855410D01*
X144933758Y-150743468D01*
X144646860Y-150686400D01*
X144354340Y-150686400D01*
X144067442Y-150743468D01*
X143797189Y-150855410D01*
X143553968Y-151017925D01*
X143422113Y-151149780D01*
X143400102Y-151077220D01*
X143341137Y-150966906D01*
X143261785Y-150870215D01*
X143165094Y-150790863D01*
X143054780Y-150731898D01*
X142935082Y-150695588D01*
X142810600Y-150683328D01*
X141110600Y-150683328D01*
X140986118Y-150695588D01*
X140866420Y-150731898D01*
X140756106Y-150790863D01*
X140659415Y-150870215D01*
X140580063Y-150966906D01*
X140521098Y-151077220D01*
X140484788Y-151196918D01*
X140472528Y-151321400D01*
X140472528Y-153021400D01*
X140484788Y-153145882D01*
X140521098Y-153265580D01*
X140580063Y-153375894D01*
X140659415Y-153472585D01*
X140756106Y-153551937D01*
X140866420Y-153610902D01*
X140986118Y-153647212D01*
X141110600Y-153659472D01*
X142750898Y-153659472D01*
X138229972Y-158180399D01*
X134367311Y-158180399D01*
X140116508Y-152431203D01*
X140155996Y-152398796D01*
X140193204Y-152353458D01*
X140285334Y-152241198D01*
X140336704Y-152145091D01*
X140381441Y-152061393D01*
X140440624Y-151866295D01*
X140455600Y-151714238D01*
X140455600Y-151714229D01*
X140460606Y-151663401D01*
X140455600Y-151612573D01*
X140455600Y-124897872D01*
X146212508Y-119140965D01*
X146251996Y-119108558D01*
X146284403Y-119069070D01*
X146381334Y-118950960D01*
X146432704Y-118854853D01*
X146477441Y-118771155D01*
X146535305Y-118580405D01*
X147808403Y-117307308D01*
X147844537Y-117271174D01*
X147872928Y-117228684D01*
X147905333Y-117189198D01*
X147929412Y-117144149D01*
X147957805Y-117101656D01*
X147977363Y-117054439D01*
X148001440Y-117009394D01*
X148016266Y-116960519D01*
X148035826Y-116913298D01*
X148045797Y-116863171D01*
X148060623Y-116814296D01*
X148065629Y-116763466D01*
X148075600Y-116713339D01*
X148075600Y-116662229D01*
X148080606Y-116611401D01*
X148075600Y-116560573D01*
X148075600Y-116509461D01*
X148065629Y-116459332D01*
X148060623Y-116408506D01*
X148045798Y-116359634D01*
X148035826Y-116309502D01*
X148016265Y-116262277D01*
X148001440Y-116213407D01*
X147977365Y-116168366D01*
X147957805Y-116121144D01*
X147929409Y-116078647D01*
X147905333Y-116033603D01*
X147872933Y-115994123D01*
X147844537Y-115951626D01*
X147808394Y-115915483D01*
X147775995Y-115876005D01*
X147736517Y-115843606D01*
X147700374Y-115807463D01*
X147657877Y-115779067D01*
X147618397Y-115746667D01*
X147573353Y-115722591D01*
X147530856Y-115694195D01*
X147483634Y-115674635D01*
X147438593Y-115650560D01*
X147389723Y-115635735D01*
X147342498Y-115616174D01*
X147292366Y-115606202D01*
X147243494Y-115591377D01*
X147192668Y-115586371D01*
X147142539Y-115576400D01*
X147091427Y-115576400D01*
X147040599Y-115571394D01*
X146989771Y-115576400D01*
X146938661Y-115576400D01*
X146888534Y-115586371D01*
X146837704Y-115591377D01*
X146788829Y-115606203D01*
X146738702Y-115616174D01*
X146691481Y-115635734D01*
X146642606Y-115650560D01*
X146597561Y-115674637D01*
X146550344Y-115694195D01*
X146507851Y-115722588D01*
X146462802Y-115746667D01*
X146423316Y-115779072D01*
X146380826Y-115807463D01*
X146344692Y-115843597D01*
X144820692Y-117367598D01*
X144781205Y-117400004D01*
X144651866Y-117557603D01*
X144555759Y-117737407D01*
X144497895Y-117928156D01*
X138931600Y-123494452D01*
X138931600Y-120088110D01*
X145268403Y-113751308D01*
X145304537Y-113715174D01*
X145332925Y-113672688D01*
X145365334Y-113633198D01*
X145389416Y-113588144D01*
X145417805Y-113545656D01*
X145437362Y-113498441D01*
X145461440Y-113453394D01*
X145462707Y-113449218D01*
X154387600Y-122374111D01*
G36*
X110817871Y-100821438D02*
G01*
X111183931Y-101066031D01*
X111590675Y-101234510D01*
X112022472Y-101320400D01*
X112462728Y-101320400D01*
X112894525Y-101234510D01*
X113301269Y-101066031D01*
X113509591Y-100926835D01*
X113509591Y-104782779D01*
X113504584Y-104833617D01*
X113524567Y-105036512D01*
X113583750Y-105231610D01*
X113679856Y-105411414D01*
X113776787Y-105529524D01*
X113809195Y-105569013D01*
X113848682Y-105601419D01*
X115902570Y-107655308D01*
X115934977Y-107694796D01*
X115974465Y-107727203D01*
X116092575Y-107824134D01*
X116170054Y-107865547D01*
X116272380Y-107920241D01*
X116467478Y-107979424D01*
X116619535Y-107994400D01*
X116619544Y-107994400D01*
X116670372Y-107999406D01*
X116721200Y-107994400D01*
X136474539Y-107994400D01*
X136524657Y-107984431D01*
X136575495Y-107979424D01*
X136624377Y-107964596D01*
X136674498Y-107954626D01*
X136721713Y-107935069D01*
X136770593Y-107920241D01*
X136815642Y-107896162D01*
X136862856Y-107876605D01*
X136905346Y-107848214D01*
X136950397Y-107824134D01*
X136989884Y-107791728D01*
X137032374Y-107763337D01*
X137068508Y-107727203D01*
X137107996Y-107694796D01*
X137140403Y-107655308D01*
X137176537Y-107619174D01*
X137204928Y-107576684D01*
X137237334Y-107537197D01*
X137261414Y-107492146D01*
X137289805Y-107449656D01*
X137309362Y-107402442D01*
X137333441Y-107357393D01*
X137348269Y-107308513D01*
X137367826Y-107261298D01*
X137377796Y-107211177D01*
X137392624Y-107162295D01*
X137397631Y-107111457D01*
X137407600Y-107061339D01*
X137407600Y-107010238D01*
X137412607Y-106959400D01*
X137407600Y-106908562D01*
X137407600Y-106857461D01*
X137397631Y-106807343D01*
X137392624Y-106756505D01*
X137377796Y-106707623D01*
X137367826Y-106657502D01*
X137348269Y-106610287D01*
X137333441Y-106561407D01*
X137309362Y-106516358D01*
X137289805Y-106469144D01*
X137261414Y-106426654D01*
X137237334Y-106381603D01*
X137204928Y-106342116D01*
X137176537Y-106299626D01*
X137140403Y-106263492D01*
X137107996Y-106224004D01*
X137068508Y-106191597D01*
X137032374Y-106155463D01*
X136989884Y-106127072D01*
X136950397Y-106094666D01*
X136905346Y-106070586D01*
X136862856Y-106042195D01*
X136815642Y-106022638D01*
X136770593Y-105998559D01*
X136721713Y-105983731D01*
X136674498Y-105964174D01*
X136624377Y-105954204D01*
X136575495Y-105939376D01*
X136524657Y-105934369D01*
X136474539Y-105924400D01*
X117099084Y-105924400D01*
X116629084Y-105454400D01*
X136474539Y-105454400D01*
X136524657Y-105444431D01*
X136575495Y-105439424D01*
X136624377Y-105424596D01*
X136674498Y-105414626D01*
X136721713Y-105395069D01*
X136770593Y-105380241D01*
X136815642Y-105356162D01*
X136862856Y-105336605D01*
X136905346Y-105308214D01*
X136950397Y-105284134D01*
X136989884Y-105251728D01*
X137032374Y-105223337D01*
X137068508Y-105187203D01*
X137107996Y-105154796D01*
X137135172Y-105121682D01*
X144106782Y-112093293D01*
X144102606Y-112094560D01*
X144057559Y-112118638D01*
X144010344Y-112138195D01*
X143967856Y-112166584D01*
X143922802Y-112190666D01*
X143883312Y-112223075D01*
X143840826Y-112251463D01*
X143804692Y-112287597D01*
X137200693Y-118891597D01*
X137161205Y-118924004D01*
X137128798Y-118963492D01*
X137128797Y-118963493D01*
X137031866Y-119081603D01*
X136996710Y-119147376D01*
X136935759Y-119261407D01*
X136876576Y-119456505D01*
X136861600Y-119608562D01*
X136861600Y-119608572D01*
X136856594Y-119659400D01*
X136861600Y-119710228D01*
X136861600Y-120116563D01*
X136861601Y-150726688D01*
X130803600Y-156784690D01*
X130803600Y-136728235D01*
X130808607Y-136677400D01*
X130803600Y-136626562D01*
X130788624Y-136474505D01*
X130729441Y-136279407D01*
X130729441Y-136279406D01*
X130633334Y-136099602D01*
X130536403Y-135981492D01*
X130503996Y-135942004D01*
X130464508Y-135909597D01*
X122695021Y-128140111D01*
X122746733Y-128132322D01*
X123005623Y-128039036D01*
X123121580Y-127977056D01*
X123188560Y-127736965D01*
X122402600Y-126951005D01*
X122388458Y-126965148D01*
X122208853Y-126785543D01*
X122222995Y-126771400D01*
X122582205Y-126771400D01*
X123368165Y-127557360D01*
X123608256Y-127490380D01*
X123672085Y-127354640D01*
X123704595Y-127433127D01*
X123857480Y-127661935D01*
X124052065Y-127856520D01*
X124280873Y-128009405D01*
X124535110Y-128114714D01*
X124805008Y-128168400D01*
X125080192Y-128168400D01*
X125350090Y-128114714D01*
X125604327Y-128009405D01*
X125833135Y-127856520D01*
X126027720Y-127661935D01*
X126180605Y-127433127D01*
X126212600Y-127355885D01*
X126244595Y-127433127D01*
X126397480Y-127661935D01*
X126592065Y-127856520D01*
X126820873Y-128009405D01*
X127075110Y-128114714D01*
X127345008Y-128168400D01*
X127620192Y-128168400D01*
X127890090Y-128114714D01*
X128144327Y-128009405D01*
X128373135Y-127856520D01*
X128567720Y-127661935D01*
X128720605Y-127433127D01*
X128752600Y-127355885D01*
X128784595Y-127433127D01*
X128937480Y-127661935D01*
X129132065Y-127856520D01*
X129360873Y-128009405D01*
X129615110Y-128114714D01*
X129885008Y-128168400D01*
X130160192Y-128168400D01*
X130430090Y-128114714D01*
X130684327Y-128009405D01*
X130913135Y-127856520D01*
X131107720Y-127661935D01*
X131260605Y-127433127D01*
X131292600Y-127355885D01*
X131324595Y-127433127D01*
X131477480Y-127661935D01*
X131672065Y-127856520D01*
X131900873Y-128009405D01*
X132155110Y-128114714D01*
X132425008Y-128168400D01*
X132700192Y-128168400D01*
X132970090Y-128114714D01*
X133224327Y-128009405D01*
X133453135Y-127856520D01*
X133572690Y-127736965D01*
X134316640Y-127736965D01*
X134383620Y-127977056D01*
X134632648Y-128094156D01*
X134899735Y-128160423D01*
X135174617Y-128173310D01*
X135446733Y-128132322D01*
X135705623Y-128039036D01*
X135821580Y-127977056D01*
X135888560Y-127736965D01*
X135102600Y-126951005D01*
X134316640Y-127736965D01*
X133572690Y-127736965D01*
X133647720Y-127661935D01*
X133800605Y-127433127D01*
X133830292Y-127361457D01*
X133834964Y-127374423D01*
X133896944Y-127490380D01*
X134137035Y-127557360D01*
X134922995Y-126771400D01*
X135282205Y-126771400D01*
X136068165Y-127557360D01*
X136308256Y-127490380D01*
X136425356Y-127241352D01*
X136491623Y-126974265D01*
X136504510Y-126699383D01*
X136463522Y-126427267D01*
X136370236Y-126168377D01*
X136308256Y-126052420D01*
X136068165Y-125985440D01*
X135282205Y-126771400D01*
X134922995Y-126771400D01*
X134137035Y-125985440D01*
X133896944Y-126052420D01*
X133833115Y-126188160D01*
X133800605Y-126109673D01*
X133647720Y-125880865D01*
X133572690Y-125805835D01*
X134316640Y-125805835D01*
X135102600Y-126591795D01*
X135888560Y-125805835D01*
X135821580Y-125565744D01*
X135572552Y-125448644D01*
X135305465Y-125382377D01*
X135030583Y-125369490D01*
X134758467Y-125410478D01*
X134499577Y-125503764D01*
X134383620Y-125565744D01*
X134316640Y-125805835D01*
X133572690Y-125805835D01*
X133453135Y-125686280D01*
X133224327Y-125533395D01*
X132970090Y-125428086D01*
X132700192Y-125374400D01*
X132425008Y-125374400D01*
X132155110Y-125428086D01*
X131900873Y-125533395D01*
X131672065Y-125686280D01*
X131477480Y-125880865D01*
X131324595Y-126109673D01*
X131292600Y-126186915D01*
X131260605Y-126109673D01*
X131107720Y-125880865D01*
X130913135Y-125686280D01*
X130684327Y-125533395D01*
X130430090Y-125428086D01*
X130160192Y-125374400D01*
X129885008Y-125374400D01*
X129615110Y-125428086D01*
X129360873Y-125533395D01*
X129132065Y-125686280D01*
X128937480Y-125880865D01*
X128784595Y-126109673D01*
X128752600Y-126186915D01*
X128720605Y-126109673D01*
X128567720Y-125880865D01*
X128373135Y-125686280D01*
X128144327Y-125533395D01*
X127890090Y-125428086D01*
X127620192Y-125374400D01*
X127345008Y-125374400D01*
X127075110Y-125428086D01*
X126820873Y-125533395D01*
X126592065Y-125686280D01*
X126397480Y-125880865D01*
X126244595Y-126109673D01*
X126212600Y-126186915D01*
X126180605Y-126109673D01*
X126027720Y-125880865D01*
X125833135Y-125686280D01*
X125604327Y-125533395D01*
X125350090Y-125428086D01*
X125080192Y-125374400D01*
X124805008Y-125374400D01*
X124535110Y-125428086D01*
X124280873Y-125533395D01*
X124052065Y-125686280D01*
X123857480Y-125880865D01*
X123704595Y-126109673D01*
X123674908Y-126181343D01*
X123670236Y-126168377D01*
X123608256Y-126052420D01*
X123368165Y-125985440D01*
X122582205Y-126771400D01*
X122222995Y-126771400D01*
X121437035Y-125985440D01*
X121196944Y-126052420D01*
X121133115Y-126188160D01*
X121100605Y-126109673D01*
X120947720Y-125880865D01*
X120872690Y-125805835D01*
X121616640Y-125805835D01*
X122402600Y-126591795D01*
X123188560Y-125805835D01*
X123121580Y-125565744D01*
X122872552Y-125448644D01*
X122605465Y-125382377D01*
X122330583Y-125369490D01*
X122058467Y-125410478D01*
X121799577Y-125503764D01*
X121683620Y-125565744D01*
X121616640Y-125805835D01*
X120872690Y-125805835D01*
X120753135Y-125686280D01*
X120524327Y-125533395D01*
X120270090Y-125428086D01*
X120000192Y-125374400D01*
X119725008Y-125374400D01*
X119455110Y-125428086D01*
X119200873Y-125533395D01*
X118972065Y-125686280D01*
X118777480Y-125880865D01*
X118624595Y-126109673D01*
X118592600Y-126186915D01*
X118560605Y-126109673D01*
X118407720Y-125880865D01*
X118213135Y-125686280D01*
X117984327Y-125533395D01*
X117730090Y-125428086D01*
X117460192Y-125374400D01*
X117185008Y-125374400D01*
X116915110Y-125428086D01*
X116660873Y-125533395D01*
X116432065Y-125686280D01*
X116237480Y-125880865D01*
X116084595Y-126109673D01*
X115979286Y-126363910D01*
X115925600Y-126633808D01*
X115925600Y-126908992D01*
X115979286Y-127178890D01*
X116084595Y-127433127D01*
X116237480Y-127661935D01*
X116432065Y-127856520D01*
X116660873Y-128009405D01*
X116915110Y-128114714D01*
X117185008Y-128168400D01*
X117460192Y-128168400D01*
X117730090Y-128114714D01*
X117984327Y-128009405D01*
X118213135Y-127856520D01*
X118407720Y-127661935D01*
X118560605Y-127433127D01*
X118592600Y-127355885D01*
X118624595Y-127433127D01*
X118777480Y-127661935D01*
X118972065Y-127856520D01*
X119200873Y-128009405D01*
X119455110Y-128114714D01*
X119725008Y-128168400D01*
X119795890Y-128168400D01*
X128733601Y-137106112D01*
X128733600Y-154612687D01*
X121659600Y-147538688D01*
X121659600Y-134950235D01*
X121664607Y-134899400D01*
X121659600Y-134848562D01*
X121644624Y-134696505D01*
X121585441Y-134501407D01*
X121540704Y-134417709D01*
X121489334Y-134321602D01*
X121392403Y-134203492D01*
X121359996Y-134164004D01*
X121320508Y-134131597D01*
X110521600Y-123332690D01*
X110521600Y-111393808D01*
X115925600Y-111393808D01*
X115925600Y-111668992D01*
X115979286Y-111938890D01*
X116084595Y-112193127D01*
X116237480Y-112421935D01*
X116432065Y-112616520D01*
X116660873Y-112769405D01*
X116915110Y-112874714D01*
X117185008Y-112928400D01*
X117460192Y-112928400D01*
X117730090Y-112874714D01*
X117984327Y-112769405D01*
X118213135Y-112616520D01*
X118407720Y-112421935D01*
X118560605Y-112193127D01*
X118592600Y-112115885D01*
X118624595Y-112193127D01*
X118777480Y-112421935D01*
X118972065Y-112616520D01*
X119200873Y-112769405D01*
X119455110Y-112874714D01*
X119725008Y-112928400D01*
X120000192Y-112928400D01*
X120270090Y-112874714D01*
X120524327Y-112769405D01*
X120753135Y-112616520D01*
X120947720Y-112421935D01*
X121100605Y-112193127D01*
X121132600Y-112115885D01*
X121164595Y-112193127D01*
X121317480Y-112421935D01*
X121512065Y-112616520D01*
X121740873Y-112769405D01*
X121995110Y-112874714D01*
X122265008Y-112928400D01*
X122540192Y-112928400D01*
X122810090Y-112874714D01*
X123064327Y-112769405D01*
X123293135Y-112616520D01*
X123487720Y-112421935D01*
X123640605Y-112193127D01*
X123672600Y-112115885D01*
X123704595Y-112193127D01*
X123857480Y-112421935D01*
X124052065Y-112616520D01*
X124280873Y-112769405D01*
X124535110Y-112874714D01*
X124805008Y-112928400D01*
X125080192Y-112928400D01*
X125350090Y-112874714D01*
X125604327Y-112769405D01*
X125833135Y-112616520D01*
X126027720Y-112421935D01*
X126180605Y-112193127D01*
X126212600Y-112115885D01*
X126244595Y-112193127D01*
X126397480Y-112421935D01*
X126592065Y-112616520D01*
X126820873Y-112769405D01*
X127075110Y-112874714D01*
X127345008Y-112928400D01*
X127620192Y-112928400D01*
X127890090Y-112874714D01*
X128144327Y-112769405D01*
X128373135Y-112616520D01*
X128567720Y-112421935D01*
X128720605Y-112193127D01*
X128752600Y-112115885D01*
X128784595Y-112193127D01*
X128937480Y-112421935D01*
X129132065Y-112616520D01*
X129360873Y-112769405D01*
X129615110Y-112874714D01*
X129885008Y-112928400D01*
X130160192Y-112928400D01*
X130430090Y-112874714D01*
X130684327Y-112769405D01*
X130913135Y-112616520D01*
X131107720Y-112421935D01*
X131260605Y-112193127D01*
X131292600Y-112115885D01*
X131324595Y-112193127D01*
X131477480Y-112421935D01*
X131672065Y-112616520D01*
X131900873Y-112769405D01*
X132155110Y-112874714D01*
X132425008Y-112928400D01*
X132700192Y-112928400D01*
X132970090Y-112874714D01*
X133224327Y-112769405D01*
X133453135Y-112616520D01*
X133572690Y-112496965D01*
X134316640Y-112496965D01*
X134383620Y-112737056D01*
X134632648Y-112854156D01*
X134899735Y-112920423D01*
X135174617Y-112933310D01*
X135446733Y-112892322D01*
X135705623Y-112799036D01*
X135821580Y-112737056D01*
X135888560Y-112496965D01*
X135102600Y-111711005D01*
X134316640Y-112496965D01*
X133572690Y-112496965D01*
X133647720Y-112421935D01*
X133800605Y-112193127D01*
X133830292Y-112121457D01*
X133834964Y-112134423D01*
X133896944Y-112250380D01*
X134137035Y-112317360D01*
X134922995Y-111531400D01*
X135282205Y-111531400D01*
X136068165Y-112317360D01*
X136308256Y-112250380D01*
X136425356Y-112001352D01*
X136491623Y-111734265D01*
X136504510Y-111459383D01*
X136463522Y-111187267D01*
X136370236Y-110928377D01*
X136308256Y-110812420D01*
X136068165Y-110745440D01*
X135282205Y-111531400D01*
X134922995Y-111531400D01*
X134137035Y-110745440D01*
X133896944Y-110812420D01*
X133833115Y-110948160D01*
X133800605Y-110869673D01*
X133647720Y-110640865D01*
X133572690Y-110565835D01*
X134316640Y-110565835D01*
X135102600Y-111351795D01*
X135888560Y-110565835D01*
X135821580Y-110325744D01*
X135572552Y-110208644D01*
X135305465Y-110142377D01*
X135030583Y-110129490D01*
X134758467Y-110170478D01*
X134499577Y-110263764D01*
X134383620Y-110325744D01*
X134316640Y-110565835D01*
X133572690Y-110565835D01*
X133453135Y-110446280D01*
X133224327Y-110293395D01*
X132970090Y-110188086D01*
X132700192Y-110134400D01*
X132425008Y-110134400D01*
X132155110Y-110188086D01*
X131900873Y-110293395D01*
X131672065Y-110446280D01*
X131477480Y-110640865D01*
X131324595Y-110869673D01*
X131292600Y-110946915D01*
X131260605Y-110869673D01*
X131107720Y-110640865D01*
X130913135Y-110446280D01*
X130684327Y-110293395D01*
X130430090Y-110188086D01*
X130160192Y-110134400D01*
X129885008Y-110134400D01*
X129615110Y-110188086D01*
X129360873Y-110293395D01*
X129132065Y-110446280D01*
X128937480Y-110640865D01*
X128784595Y-110869673D01*
X128752600Y-110946915D01*
X128720605Y-110869673D01*
X128567720Y-110640865D01*
X128373135Y-110446280D01*
X128144327Y-110293395D01*
X127890090Y-110188086D01*
X127620192Y-110134400D01*
X127345008Y-110134400D01*
X127075110Y-110188086D01*
X126820873Y-110293395D01*
X126592065Y-110446280D01*
X126397480Y-110640865D01*
X126244595Y-110869673D01*
X126212600Y-110946915D01*
X126180605Y-110869673D01*
X126027720Y-110640865D01*
X125833135Y-110446280D01*
X125604327Y-110293395D01*
X125350090Y-110188086D01*
X125080192Y-110134400D01*
X124805008Y-110134400D01*
X124535110Y-110188086D01*
X124280873Y-110293395D01*
X124052065Y-110446280D01*
X123857480Y-110640865D01*
X123704595Y-110869673D01*
X123672600Y-110946915D01*
X123640605Y-110869673D01*
X123487720Y-110640865D01*
X123293135Y-110446280D01*
X123064327Y-110293395D01*
X122810090Y-110188086D01*
X122540192Y-110134400D01*
X122265008Y-110134400D01*
X121995110Y-110188086D01*
X121740873Y-110293395D01*
X121512065Y-110446280D01*
X121317480Y-110640865D01*
X121164595Y-110869673D01*
X121132600Y-110946915D01*
X121100605Y-110869673D01*
X120947720Y-110640865D01*
X120753135Y-110446280D01*
X120524327Y-110293395D01*
X120270090Y-110188086D01*
X120000192Y-110134400D01*
X119725008Y-110134400D01*
X119455110Y-110188086D01*
X119200873Y-110293395D01*
X118972065Y-110446280D01*
X118777480Y-110640865D01*
X118624595Y-110869673D01*
X118592600Y-110946915D01*
X118560605Y-110869673D01*
X118407720Y-110640865D01*
X118213135Y-110446280D01*
X117984327Y-110293395D01*
X117730090Y-110188086D01*
X117460192Y-110134400D01*
X117185008Y-110134400D01*
X116915110Y-110188086D01*
X116660873Y-110293395D01*
X116432065Y-110446280D01*
X116237480Y-110640865D01*
X116084595Y-110869673D01*
X115979286Y-111123910D01*
X115925600Y-111393808D01*
X110521600Y-111393808D01*
X110521600Y-100525167D01*
X110817871Y-100821438D01*
G37*
X110817871Y-100821438D02*
X111183931Y-101066031D01*
X111590675Y-101234510D01*
X112022472Y-101320400D01*
X112462728Y-101320400D01*
X112894525Y-101234510D01*
X113301269Y-101066031D01*
X113509591Y-100926835D01*
X113509591Y-104782779D01*
X113504584Y-104833617D01*
X113524567Y-105036512D01*
X113583750Y-105231610D01*
X113679856Y-105411414D01*
X113776787Y-105529524D01*
X113809195Y-105569013D01*
X113848682Y-105601419D01*
X115902570Y-107655308D01*
X115934977Y-107694796D01*
X115974465Y-107727203D01*
X116092575Y-107824134D01*
X116170054Y-107865547D01*
X116272380Y-107920241D01*
X116467478Y-107979424D01*
X116619535Y-107994400D01*
X116619544Y-107994400D01*
X116670372Y-107999406D01*
X116721200Y-107994400D01*
X136474539Y-107994400D01*
X136524657Y-107984431D01*
X136575495Y-107979424D01*
X136624377Y-107964596D01*
X136674498Y-107954626D01*
X136721713Y-107935069D01*
X136770593Y-107920241D01*
X136815642Y-107896162D01*
X136862856Y-107876605D01*
X136905346Y-107848214D01*
X136950397Y-107824134D01*
X136989884Y-107791728D01*
X137032374Y-107763337D01*
X137068508Y-107727203D01*
X137107996Y-107694796D01*
X137140403Y-107655308D01*
X137176537Y-107619174D01*
X137204928Y-107576684D01*
X137237334Y-107537197D01*
X137261414Y-107492146D01*
X137289805Y-107449656D01*
X137309362Y-107402442D01*
X137333441Y-107357393D01*
X137348269Y-107308513D01*
X137367826Y-107261298D01*
X137377796Y-107211177D01*
X137392624Y-107162295D01*
X137397631Y-107111457D01*
X137407600Y-107061339D01*
X137407600Y-107010238D01*
X137412607Y-106959400D01*
X137407600Y-106908562D01*
X137407600Y-106857461D01*
X137397631Y-106807343D01*
X137392624Y-106756505D01*
X137377796Y-106707623D01*
X137367826Y-106657502D01*
X137348269Y-106610287D01*
X137333441Y-106561407D01*
X137309362Y-106516358D01*
X137289805Y-106469144D01*
X137261414Y-106426654D01*
X137237334Y-106381603D01*
X137204928Y-106342116D01*
X137176537Y-106299626D01*
X137140403Y-106263492D01*
X137107996Y-106224004D01*
X137068508Y-106191597D01*
X137032374Y-106155463D01*
X136989884Y-106127072D01*
X136950397Y-106094666D01*
X136905346Y-106070586D01*
X136862856Y-106042195D01*
X136815642Y-106022638D01*
X136770593Y-105998559D01*
X136721713Y-105983731D01*
X136674498Y-105964174D01*
X136624377Y-105954204D01*
X136575495Y-105939376D01*
X136524657Y-105934369D01*
X136474539Y-105924400D01*
X117099084Y-105924400D01*
X116629084Y-105454400D01*
X136474539Y-105454400D01*
X136524657Y-105444431D01*
X136575495Y-105439424D01*
X136624377Y-105424596D01*
X136674498Y-105414626D01*
X136721713Y-105395069D01*
X136770593Y-105380241D01*
X136815642Y-105356162D01*
X136862856Y-105336605D01*
X136905346Y-105308214D01*
X136950397Y-105284134D01*
X136989884Y-105251728D01*
X137032374Y-105223337D01*
X137068508Y-105187203D01*
X137107996Y-105154796D01*
X137135172Y-105121682D01*
X144106782Y-112093293D01*
X144102606Y-112094560D01*
X144057559Y-112118638D01*
X144010344Y-112138195D01*
X143967856Y-112166584D01*
X143922802Y-112190666D01*
X143883312Y-112223075D01*
X143840826Y-112251463D01*
X143804692Y-112287597D01*
X137200693Y-118891597D01*
X137161205Y-118924004D01*
X137128798Y-118963492D01*
X137128797Y-118963493D01*
X137031866Y-119081603D01*
X136996710Y-119147376D01*
X136935759Y-119261407D01*
X136876576Y-119456505D01*
X136861600Y-119608562D01*
X136861600Y-119608572D01*
X136856594Y-119659400D01*
X136861600Y-119710228D01*
X136861600Y-120116563D01*
X136861601Y-150726688D01*
X130803600Y-156784690D01*
X130803600Y-136728235D01*
X130808607Y-136677400D01*
X130803600Y-136626562D01*
X130788624Y-136474505D01*
X130729441Y-136279407D01*
X130729441Y-136279406D01*
X130633334Y-136099602D01*
X130536403Y-135981492D01*
X130503996Y-135942004D01*
X130464508Y-135909597D01*
X122695021Y-128140111D01*
X122746733Y-128132322D01*
X123005623Y-128039036D01*
X123121580Y-127977056D01*
X123188560Y-127736965D01*
X122402600Y-126951005D01*
X122388458Y-126965148D01*
X122208853Y-126785543D01*
X122222995Y-126771400D01*
X122582205Y-126771400D01*
X123368165Y-127557360D01*
X123608256Y-127490380D01*
X123672085Y-127354640D01*
X123704595Y-127433127D01*
X123857480Y-127661935D01*
X124052065Y-127856520D01*
X124280873Y-128009405D01*
X124535110Y-128114714D01*
X124805008Y-128168400D01*
X125080192Y-128168400D01*
X125350090Y-128114714D01*
X125604327Y-128009405D01*
X125833135Y-127856520D01*
X126027720Y-127661935D01*
X126180605Y-127433127D01*
X126212600Y-127355885D01*
X126244595Y-127433127D01*
X126397480Y-127661935D01*
X126592065Y-127856520D01*
X126820873Y-128009405D01*
X127075110Y-128114714D01*
X127345008Y-128168400D01*
X127620192Y-128168400D01*
X127890090Y-128114714D01*
X128144327Y-128009405D01*
X128373135Y-127856520D01*
X128567720Y-127661935D01*
X128720605Y-127433127D01*
X128752600Y-127355885D01*
X128784595Y-127433127D01*
X128937480Y-127661935D01*
X129132065Y-127856520D01*
X129360873Y-128009405D01*
X129615110Y-128114714D01*
X129885008Y-128168400D01*
X130160192Y-128168400D01*
X130430090Y-128114714D01*
X130684327Y-128009405D01*
X130913135Y-127856520D01*
X131107720Y-127661935D01*
X131260605Y-127433127D01*
X131292600Y-127355885D01*
X131324595Y-127433127D01*
X131477480Y-127661935D01*
X131672065Y-127856520D01*
X131900873Y-128009405D01*
X132155110Y-128114714D01*
X132425008Y-128168400D01*
X132700192Y-128168400D01*
X132970090Y-128114714D01*
X133224327Y-128009405D01*
X133453135Y-127856520D01*
X133572690Y-127736965D01*
X134316640Y-127736965D01*
X134383620Y-127977056D01*
X134632648Y-128094156D01*
X134899735Y-128160423D01*
X135174617Y-128173310D01*
X135446733Y-128132322D01*
X135705623Y-128039036D01*
X135821580Y-127977056D01*
X135888560Y-127736965D01*
X135102600Y-126951005D01*
X134316640Y-127736965D01*
X133572690Y-127736965D01*
X133647720Y-127661935D01*
X133800605Y-127433127D01*
X133830292Y-127361457D01*
X133834964Y-127374423D01*
X133896944Y-127490380D01*
X134137035Y-127557360D01*
X134922995Y-126771400D01*
X135282205Y-126771400D01*
X136068165Y-127557360D01*
X136308256Y-127490380D01*
X136425356Y-127241352D01*
X136491623Y-126974265D01*
X136504510Y-126699383D01*
X136463522Y-126427267D01*
X136370236Y-126168377D01*
X136308256Y-126052420D01*
X136068165Y-125985440D01*
X135282205Y-126771400D01*
X134922995Y-126771400D01*
X134137035Y-125985440D01*
X133896944Y-126052420D01*
X133833115Y-126188160D01*
X133800605Y-126109673D01*
X133647720Y-125880865D01*
X133572690Y-125805835D01*
X134316640Y-125805835D01*
X135102600Y-126591795D01*
X135888560Y-125805835D01*
X135821580Y-125565744D01*
X135572552Y-125448644D01*
X135305465Y-125382377D01*
X135030583Y-125369490D01*
X134758467Y-125410478D01*
X134499577Y-125503764D01*
X134383620Y-125565744D01*
X134316640Y-125805835D01*
X133572690Y-125805835D01*
X133453135Y-125686280D01*
X133224327Y-125533395D01*
X132970090Y-125428086D01*
X132700192Y-125374400D01*
X132425008Y-125374400D01*
X132155110Y-125428086D01*
X131900873Y-125533395D01*
X131672065Y-125686280D01*
X131477480Y-125880865D01*
X131324595Y-126109673D01*
X131292600Y-126186915D01*
X131260605Y-126109673D01*
X131107720Y-125880865D01*
X130913135Y-125686280D01*
X130684327Y-125533395D01*
X130430090Y-125428086D01*
X130160192Y-125374400D01*
X129885008Y-125374400D01*
X129615110Y-125428086D01*
X129360873Y-125533395D01*
X129132065Y-125686280D01*
X128937480Y-125880865D01*
X128784595Y-126109673D01*
X128752600Y-126186915D01*
X128720605Y-126109673D01*
X128567720Y-125880865D01*
X128373135Y-125686280D01*
X128144327Y-125533395D01*
X127890090Y-125428086D01*
X127620192Y-125374400D01*
X127345008Y-125374400D01*
X127075110Y-125428086D01*
X126820873Y-125533395D01*
X126592065Y-125686280D01*
X126397480Y-125880865D01*
X126244595Y-126109673D01*
X126212600Y-126186915D01*
X126180605Y-126109673D01*
X126027720Y-125880865D01*
X125833135Y-125686280D01*
X125604327Y-125533395D01*
X125350090Y-125428086D01*
X125080192Y-125374400D01*
X124805008Y-125374400D01*
X124535110Y-125428086D01*
X124280873Y-125533395D01*
X124052065Y-125686280D01*
X123857480Y-125880865D01*
X123704595Y-126109673D01*
X123674908Y-126181343D01*
X123670236Y-126168377D01*
X123608256Y-126052420D01*
X123368165Y-125985440D01*
X122582205Y-126771400D01*
X122222995Y-126771400D01*
X121437035Y-125985440D01*
X121196944Y-126052420D01*
X121133115Y-126188160D01*
X121100605Y-126109673D01*
X120947720Y-125880865D01*
X120872690Y-125805835D01*
X121616640Y-125805835D01*
X122402600Y-126591795D01*
X123188560Y-125805835D01*
X123121580Y-125565744D01*
X122872552Y-125448644D01*
X122605465Y-125382377D01*
X122330583Y-125369490D01*
X122058467Y-125410478D01*
X121799577Y-125503764D01*
X121683620Y-125565744D01*
X121616640Y-125805835D01*
X120872690Y-125805835D01*
X120753135Y-125686280D01*
X120524327Y-125533395D01*
X120270090Y-125428086D01*
X120000192Y-125374400D01*
X119725008Y-125374400D01*
X119455110Y-125428086D01*
X119200873Y-125533395D01*
X118972065Y-125686280D01*
X118777480Y-125880865D01*
X118624595Y-126109673D01*
X118592600Y-126186915D01*
X118560605Y-126109673D01*
X118407720Y-125880865D01*
X118213135Y-125686280D01*
X117984327Y-125533395D01*
X117730090Y-125428086D01*
X117460192Y-125374400D01*
X117185008Y-125374400D01*
X116915110Y-125428086D01*
X116660873Y-125533395D01*
X116432065Y-125686280D01*
X116237480Y-125880865D01*
X116084595Y-126109673D01*
X115979286Y-126363910D01*
X115925600Y-126633808D01*
X115925600Y-126908992D01*
X115979286Y-127178890D01*
X116084595Y-127433127D01*
X116237480Y-127661935D01*
X116432065Y-127856520D01*
X116660873Y-128009405D01*
X116915110Y-128114714D01*
X117185008Y-128168400D01*
X117460192Y-128168400D01*
X117730090Y-128114714D01*
X117984327Y-128009405D01*
X118213135Y-127856520D01*
X118407720Y-127661935D01*
X118560605Y-127433127D01*
X118592600Y-127355885D01*
X118624595Y-127433127D01*
X118777480Y-127661935D01*
X118972065Y-127856520D01*
X119200873Y-128009405D01*
X119455110Y-128114714D01*
X119725008Y-128168400D01*
X119795890Y-128168400D01*
X128733601Y-137106112D01*
X128733600Y-154612687D01*
X121659600Y-147538688D01*
X121659600Y-134950235D01*
X121664607Y-134899400D01*
X121659600Y-134848562D01*
X121644624Y-134696505D01*
X121585441Y-134501407D01*
X121540704Y-134417709D01*
X121489334Y-134321602D01*
X121392403Y-134203492D01*
X121359996Y-134164004D01*
X121320508Y-134131597D01*
X110521600Y-123332690D01*
X110521600Y-111393808D01*
X115925600Y-111393808D01*
X115925600Y-111668992D01*
X115979286Y-111938890D01*
X116084595Y-112193127D01*
X116237480Y-112421935D01*
X116432065Y-112616520D01*
X116660873Y-112769405D01*
X116915110Y-112874714D01*
X117185008Y-112928400D01*
X117460192Y-112928400D01*
X117730090Y-112874714D01*
X117984327Y-112769405D01*
X118213135Y-112616520D01*
X118407720Y-112421935D01*
X118560605Y-112193127D01*
X118592600Y-112115885D01*
X118624595Y-112193127D01*
X118777480Y-112421935D01*
X118972065Y-112616520D01*
X119200873Y-112769405D01*
X119455110Y-112874714D01*
X119725008Y-112928400D01*
X120000192Y-112928400D01*
X120270090Y-112874714D01*
X120524327Y-112769405D01*
X120753135Y-112616520D01*
X120947720Y-112421935D01*
X121100605Y-112193127D01*
X121132600Y-112115885D01*
X121164595Y-112193127D01*
X121317480Y-112421935D01*
X121512065Y-112616520D01*
X121740873Y-112769405D01*
X121995110Y-112874714D01*
X122265008Y-112928400D01*
X122540192Y-112928400D01*
X122810090Y-112874714D01*
X123064327Y-112769405D01*
X123293135Y-112616520D01*
X123487720Y-112421935D01*
X123640605Y-112193127D01*
X123672600Y-112115885D01*
X123704595Y-112193127D01*
X123857480Y-112421935D01*
X124052065Y-112616520D01*
X124280873Y-112769405D01*
X124535110Y-112874714D01*
X124805008Y-112928400D01*
X125080192Y-112928400D01*
X125350090Y-112874714D01*
X125604327Y-112769405D01*
X125833135Y-112616520D01*
X126027720Y-112421935D01*
X126180605Y-112193127D01*
X126212600Y-112115885D01*
X126244595Y-112193127D01*
X126397480Y-112421935D01*
X126592065Y-112616520D01*
X126820873Y-112769405D01*
X127075110Y-112874714D01*
X127345008Y-112928400D01*
X127620192Y-112928400D01*
X127890090Y-112874714D01*
X128144327Y-112769405D01*
X128373135Y-112616520D01*
X128567720Y-112421935D01*
X128720605Y-112193127D01*
X128752600Y-112115885D01*
X128784595Y-112193127D01*
X128937480Y-112421935D01*
X129132065Y-112616520D01*
X129360873Y-112769405D01*
X129615110Y-112874714D01*
X129885008Y-112928400D01*
X130160192Y-112928400D01*
X130430090Y-112874714D01*
X130684327Y-112769405D01*
X130913135Y-112616520D01*
X131107720Y-112421935D01*
X131260605Y-112193127D01*
X131292600Y-112115885D01*
X131324595Y-112193127D01*
X131477480Y-112421935D01*
X131672065Y-112616520D01*
X131900873Y-112769405D01*
X132155110Y-112874714D01*
X132425008Y-112928400D01*
X132700192Y-112928400D01*
X132970090Y-112874714D01*
X133224327Y-112769405D01*
X133453135Y-112616520D01*
X133572690Y-112496965D01*
X134316640Y-112496965D01*
X134383620Y-112737056D01*
X134632648Y-112854156D01*
X134899735Y-112920423D01*
X135174617Y-112933310D01*
X135446733Y-112892322D01*
X135705623Y-112799036D01*
X135821580Y-112737056D01*
X135888560Y-112496965D01*
X135102600Y-111711005D01*
X134316640Y-112496965D01*
X133572690Y-112496965D01*
X133647720Y-112421935D01*
X133800605Y-112193127D01*
X133830292Y-112121457D01*
X133834964Y-112134423D01*
X133896944Y-112250380D01*
X134137035Y-112317360D01*
X134922995Y-111531400D01*
X135282205Y-111531400D01*
X136068165Y-112317360D01*
X136308256Y-112250380D01*
X136425356Y-112001352D01*
X136491623Y-111734265D01*
X136504510Y-111459383D01*
X136463522Y-111187267D01*
X136370236Y-110928377D01*
X136308256Y-110812420D01*
X136068165Y-110745440D01*
X135282205Y-111531400D01*
X134922995Y-111531400D01*
X134137035Y-110745440D01*
X133896944Y-110812420D01*
X133833115Y-110948160D01*
X133800605Y-110869673D01*
X133647720Y-110640865D01*
X133572690Y-110565835D01*
X134316640Y-110565835D01*
X135102600Y-111351795D01*
X135888560Y-110565835D01*
X135821580Y-110325744D01*
X135572552Y-110208644D01*
X135305465Y-110142377D01*
X135030583Y-110129490D01*
X134758467Y-110170478D01*
X134499577Y-110263764D01*
X134383620Y-110325744D01*
X134316640Y-110565835D01*
X133572690Y-110565835D01*
X133453135Y-110446280D01*
X133224327Y-110293395D01*
X132970090Y-110188086D01*
X132700192Y-110134400D01*
X132425008Y-110134400D01*
X132155110Y-110188086D01*
X131900873Y-110293395D01*
X131672065Y-110446280D01*
X131477480Y-110640865D01*
X131324595Y-110869673D01*
X131292600Y-110946915D01*
X131260605Y-110869673D01*
X131107720Y-110640865D01*
X130913135Y-110446280D01*
X130684327Y-110293395D01*
X130430090Y-110188086D01*
X130160192Y-110134400D01*
X129885008Y-110134400D01*
X129615110Y-110188086D01*
X129360873Y-110293395D01*
X129132065Y-110446280D01*
X128937480Y-110640865D01*
X128784595Y-110869673D01*
X128752600Y-110946915D01*
X128720605Y-110869673D01*
X128567720Y-110640865D01*
X128373135Y-110446280D01*
X128144327Y-110293395D01*
X127890090Y-110188086D01*
X127620192Y-110134400D01*
X127345008Y-110134400D01*
X127075110Y-110188086D01*
X126820873Y-110293395D01*
X126592065Y-110446280D01*
X126397480Y-110640865D01*
X126244595Y-110869673D01*
X126212600Y-110946915D01*
X126180605Y-110869673D01*
X126027720Y-110640865D01*
X125833135Y-110446280D01*
X125604327Y-110293395D01*
X125350090Y-110188086D01*
X125080192Y-110134400D01*
X124805008Y-110134400D01*
X124535110Y-110188086D01*
X124280873Y-110293395D01*
X124052065Y-110446280D01*
X123857480Y-110640865D01*
X123704595Y-110869673D01*
X123672600Y-110946915D01*
X123640605Y-110869673D01*
X123487720Y-110640865D01*
X123293135Y-110446280D01*
X123064327Y-110293395D01*
X122810090Y-110188086D01*
X122540192Y-110134400D01*
X122265008Y-110134400D01*
X121995110Y-110188086D01*
X121740873Y-110293395D01*
X121512065Y-110446280D01*
X121317480Y-110640865D01*
X121164595Y-110869673D01*
X121132600Y-110946915D01*
X121100605Y-110869673D01*
X120947720Y-110640865D01*
X120753135Y-110446280D01*
X120524327Y-110293395D01*
X120270090Y-110188086D01*
X120000192Y-110134400D01*
X119725008Y-110134400D01*
X119455110Y-110188086D01*
X119200873Y-110293395D01*
X118972065Y-110446280D01*
X118777480Y-110640865D01*
X118624595Y-110869673D01*
X118592600Y-110946915D01*
X118560605Y-110869673D01*
X118407720Y-110640865D01*
X118213135Y-110446280D01*
X117984327Y-110293395D01*
X117730090Y-110188086D01*
X117460192Y-110134400D01*
X117185008Y-110134400D01*
X116915110Y-110188086D01*
X116660873Y-110293395D01*
X116432065Y-110446280D01*
X116237480Y-110640865D01*
X116084595Y-110869673D01*
X115979286Y-111123910D01*
X115925600Y-111393808D01*
X110521600Y-111393808D01*
X110521600Y-100525167D01*
X110817871Y-100821438D01*
G36*
X135467785Y-47605980D02*
G01*
X136266601Y-48404796D01*
X137065417Y-47605980D01*
X137047241Y-47542401D01*
X142622534Y-47542401D01*
X142649286Y-47676890D01*
X142754595Y-47931127D01*
X142907480Y-48159935D01*
X143102065Y-48354520D01*
X143330873Y-48507405D01*
X143408115Y-48539400D01*
X143330873Y-48571395D01*
X143102065Y-48724280D01*
X142907480Y-48918865D01*
X142754595Y-49147673D01*
X142649286Y-49401910D01*
X142595600Y-49671808D01*
X142595600Y-49946992D01*
X142649286Y-50216890D01*
X142754595Y-50471127D01*
X142907480Y-50699935D01*
X143102065Y-50894520D01*
X143330873Y-51047405D01*
X143408115Y-51079400D01*
X143330873Y-51111395D01*
X143102065Y-51264280D01*
X142907480Y-51458865D01*
X142754595Y-51687673D01*
X142649286Y-51941910D01*
X142595600Y-52211808D01*
X142595600Y-52486992D01*
X142649286Y-52756890D01*
X142754595Y-53011127D01*
X142907480Y-53239935D01*
X143102065Y-53434520D01*
X143330873Y-53587405D01*
X143408115Y-53619400D01*
X143330873Y-53651395D01*
X143102065Y-53804280D01*
X142907480Y-53998865D01*
X142754595Y-54227673D01*
X142649286Y-54481910D01*
X142595600Y-54751808D01*
X142595600Y-55026992D01*
X142649286Y-55296890D01*
X142754595Y-55551127D01*
X142907480Y-55779935D01*
X143102065Y-55974520D01*
X143330873Y-56127405D01*
X143408115Y-56159400D01*
X143330873Y-56191395D01*
X143102065Y-56344280D01*
X143051945Y-56394400D01*
X137920311Y-56394400D01*
X137681601Y-56155690D01*
X137681601Y-56065036D01*
X137627224Y-55791661D01*
X137520558Y-55534147D01*
X137365704Y-55302391D01*
X137168611Y-55105298D01*
X136936855Y-54950444D01*
X136898124Y-54934401D01*
X136936855Y-54918358D01*
X137168611Y-54763504D01*
X137365704Y-54566411D01*
X137520558Y-54334655D01*
X137627224Y-54077141D01*
X137681601Y-53803766D01*
X137681601Y-53525036D01*
X137627224Y-53251661D01*
X137520558Y-52994147D01*
X137365704Y-52762391D01*
X137168611Y-52565298D01*
X136936855Y-52410444D01*
X136898124Y-52394401D01*
X136936855Y-52378358D01*
X137168611Y-52223504D01*
X137365704Y-52026411D01*
X137520558Y-51794655D01*
X137627224Y-51537141D01*
X137681601Y-51263766D01*
X137681601Y-50985036D01*
X137627224Y-50711661D01*
X137520558Y-50454147D01*
X137365704Y-50222391D01*
X137168611Y-50025298D01*
X136936855Y-49870444D01*
X136901076Y-49855624D01*
X136996256Y-49804750D01*
X137065417Y-49562822D01*
X136266601Y-48764006D01*
X135467785Y-49562822D01*
X135536946Y-49804750D01*
X135638880Y-49852826D01*
X135596347Y-49870444D01*
X135364591Y-50025298D01*
X135167498Y-50222391D01*
X135012644Y-50454147D01*
X134905978Y-50711661D01*
X134851601Y-50985036D01*
X134851601Y-51263766D01*
X134905978Y-51537141D01*
X135012644Y-51794655D01*
X135167498Y-52026411D01*
X135364591Y-52223504D01*
X135596347Y-52378358D01*
X135635078Y-52394401D01*
X135596347Y-52410444D01*
X135364591Y-52565298D01*
X135167498Y-52762391D01*
X135012644Y-52994147D01*
X134905978Y-53251661D01*
X134851601Y-53525036D01*
X134851601Y-53803766D01*
X134905978Y-54077141D01*
X135012644Y-54334655D01*
X135167498Y-54566411D01*
X135364591Y-54763504D01*
X135596347Y-54918358D01*
X135635078Y-54934401D01*
X135596347Y-54950444D01*
X135364591Y-55105298D01*
X135167498Y-55302391D01*
X135012644Y-55534147D01*
X134905978Y-55791661D01*
X134851601Y-56065036D01*
X134851601Y-56343766D01*
X134905978Y-56617141D01*
X135012644Y-56874655D01*
X135167498Y-57106411D01*
X135364591Y-57303504D01*
X135596347Y-57458358D01*
X135635078Y-57474401D01*
X135596347Y-57490444D01*
X135364591Y-57645298D01*
X135167498Y-57842391D01*
X135012644Y-58074147D01*
X134905978Y-58331661D01*
X134851601Y-58605036D01*
X134851601Y-58883766D01*
X134905978Y-59157141D01*
X135012644Y-59414655D01*
X135167498Y-59646411D01*
X135364591Y-59843504D01*
X135596347Y-59998358D01*
X135635078Y-60014401D01*
X135596347Y-60030444D01*
X135364591Y-60185298D01*
X135167498Y-60382391D01*
X135012644Y-60614147D01*
X134905978Y-60871661D01*
X134851601Y-61145036D01*
X134851601Y-61423766D01*
X134905978Y-61697141D01*
X135012644Y-61954655D01*
X135167498Y-62186411D01*
X135364591Y-62383504D01*
X135596347Y-62538358D01*
X135632126Y-62553178D01*
X135536946Y-62604052D01*
X135467785Y-62845980D01*
X136266601Y-63644796D01*
X136280744Y-63630654D01*
X136460349Y-63810259D01*
X136446206Y-63824401D01*
X136460349Y-63838544D01*
X136280744Y-64018149D01*
X136266601Y-64004006D01*
X135467785Y-64802822D01*
X135536946Y-65044750D01*
X135638880Y-65092826D01*
X135596347Y-65110444D01*
X135364591Y-65265298D01*
X135167498Y-65462391D01*
X135012644Y-65694147D01*
X134905978Y-65951661D01*
X134851601Y-66225036D01*
X134851601Y-66503766D01*
X134905978Y-66777141D01*
X135012644Y-67034655D01*
X135167498Y-67266411D01*
X135364591Y-67463504D01*
X135596347Y-67618358D01*
X135635078Y-67634401D01*
X135596347Y-67650444D01*
X135364591Y-67805298D01*
X135167498Y-68002391D01*
X135012644Y-68234147D01*
X134905978Y-68491661D01*
X134851601Y-68765036D01*
X134851601Y-69043766D01*
X134905978Y-69317141D01*
X135012644Y-69574655D01*
X135167498Y-69806411D01*
X135364591Y-70003504D01*
X135596347Y-70158358D01*
X135635078Y-70174401D01*
X135596347Y-70190444D01*
X135364591Y-70345298D01*
X135167498Y-70542391D01*
X135012644Y-70774147D01*
X134905978Y-71031661D01*
X134851601Y-71305036D01*
X134851601Y-71583766D01*
X134905978Y-71857141D01*
X135012644Y-72114655D01*
X135167498Y-72346411D01*
X135364591Y-72543504D01*
X135596347Y-72698358D01*
X135635078Y-72714401D01*
X135596347Y-72730444D01*
X135364591Y-72885298D01*
X135300488Y-72949401D01*
X132136626Y-72949401D01*
X132085798Y-72944395D01*
X132034970Y-72949401D01*
X132034961Y-72949401D01*
X131882904Y-72964377D01*
X131687806Y-73023560D01*
X131605800Y-73067393D01*
X131508001Y-73119667D01*
X131389891Y-73216598D01*
X131350403Y-73249005D01*
X131317996Y-73288493D01*
X129250497Y-75355993D01*
X129211004Y-75388404D01*
X129081666Y-75546003D01*
X128985559Y-75725808D01*
X128926376Y-75920906D01*
X128911400Y-76072963D01*
X128911400Y-76072972D01*
X128906394Y-76123800D01*
X128911400Y-76174628D01*
X128911401Y-92353438D01*
X128909024Y-92329305D01*
X128894196Y-92280423D01*
X128884226Y-92230302D01*
X128864669Y-92183087D01*
X128849841Y-92134207D01*
X128825762Y-92089158D01*
X128806205Y-92041944D01*
X128777814Y-91999454D01*
X128753734Y-91954403D01*
X128721328Y-91914916D01*
X128692937Y-91872426D01*
X128656803Y-91836292D01*
X128624396Y-91796804D01*
X128584908Y-91764397D01*
X128548774Y-91728263D01*
X128506284Y-91699872D01*
X128466797Y-91667466D01*
X128421746Y-91643386D01*
X128379256Y-91614995D01*
X128332042Y-91595438D01*
X128286993Y-91571359D01*
X128238113Y-91556531D01*
X128190898Y-91536974D01*
X128140777Y-91527004D01*
X128091895Y-91512176D01*
X128041057Y-91507169D01*
X127990939Y-91497200D01*
X116763835Y-91497200D01*
X116713000Y-91492193D01*
X116662165Y-91497200D01*
X116662162Y-91497200D01*
X116510105Y-91512176D01*
X116315007Y-91571359D01*
X116233370Y-91614995D01*
X116135202Y-91667466D01*
X116032935Y-91751395D01*
X115977604Y-91796804D01*
X115945197Y-91836292D01*
X115579590Y-92201900D01*
X115579590Y-80253225D01*
X115584597Y-80202390D01*
X115574982Y-80104768D01*
X115564614Y-79999495D01*
X115505431Y-79804397D01*
X115430855Y-79664875D01*
X115409324Y-79624592D01*
X115312393Y-79506482D01*
X115279986Y-79466994D01*
X115240498Y-79434587D01*
X112281601Y-76475691D01*
X112281601Y-76385036D01*
X112227224Y-76111661D01*
X112120558Y-75854147D01*
X111965704Y-75622391D01*
X111768611Y-75425298D01*
X111536855Y-75270444D01*
X111498124Y-75254401D01*
X111536855Y-75238358D01*
X111768611Y-75083504D01*
X111965704Y-74886411D01*
X112120558Y-74654655D01*
X112227224Y-74397141D01*
X112281601Y-74123766D01*
X112281601Y-73845036D01*
X112227224Y-73571661D01*
X112120558Y-73314147D01*
X111965704Y-73082391D01*
X111768611Y-72885298D01*
X111536855Y-72730444D01*
X111498124Y-72714401D01*
X111536855Y-72698358D01*
X111768611Y-72543504D01*
X111780307Y-72531808D01*
X116179600Y-72531808D01*
X116179600Y-72806992D01*
X116233286Y-73076890D01*
X116338595Y-73331127D01*
X116491480Y-73559935D01*
X116686065Y-73754520D01*
X116914873Y-73907405D01*
X116992115Y-73939400D01*
X116914873Y-73971395D01*
X116686065Y-74124280D01*
X116491480Y-74318865D01*
X116338595Y-74547673D01*
X116233286Y-74801910D01*
X116179600Y-75071808D01*
X116179600Y-75346992D01*
X116233286Y-75616890D01*
X116338595Y-75871127D01*
X116491480Y-76099935D01*
X116686065Y-76294520D01*
X116914873Y-76447405D01*
X116992115Y-76479400D01*
X116914873Y-76511395D01*
X116686065Y-76664280D01*
X116491480Y-76858865D01*
X116338595Y-77087673D01*
X116233286Y-77341910D01*
X116179600Y-77611808D01*
X116179600Y-77886992D01*
X116233286Y-78156890D01*
X116338595Y-78411127D01*
X116491480Y-78639935D01*
X116686065Y-78834520D01*
X116914873Y-78987405D01*
X116992115Y-79019400D01*
X116914873Y-79051395D01*
X116686065Y-79204280D01*
X116491480Y-79398865D01*
X116338595Y-79627673D01*
X116233286Y-79881910D01*
X116179600Y-80151808D01*
X116179600Y-80426992D01*
X116233286Y-80696890D01*
X116338595Y-80951127D01*
X116491480Y-81179935D01*
X116686065Y-81374520D01*
X116914873Y-81527405D01*
X116992115Y-81559400D01*
X116914873Y-81591395D01*
X116686065Y-81744280D01*
X116491480Y-81938865D01*
X116338595Y-82167673D01*
X116233286Y-82421910D01*
X116179600Y-82691808D01*
X116179600Y-82966992D01*
X116233286Y-83236890D01*
X116338595Y-83491127D01*
X116491480Y-83719935D01*
X116686065Y-83914520D01*
X116914873Y-84067405D01*
X117169110Y-84172714D01*
X117439008Y-84226400D01*
X117714192Y-84226400D01*
X117984090Y-84172714D01*
X118238327Y-84067405D01*
X118467135Y-83914520D01*
X118661720Y-83719935D01*
X118814605Y-83491127D01*
X118919914Y-83236890D01*
X118973600Y-82966992D01*
X118973600Y-82691808D01*
X118919914Y-82421910D01*
X118814605Y-82167673D01*
X118661720Y-81938865D01*
X118467135Y-81744280D01*
X118238327Y-81591395D01*
X118161085Y-81559400D01*
X118238327Y-81527405D01*
X118467135Y-81374520D01*
X118661720Y-81179935D01*
X118814605Y-80951127D01*
X118919914Y-80696890D01*
X118973600Y-80426992D01*
X118973600Y-80151808D01*
X118919914Y-79881910D01*
X118814605Y-79627673D01*
X118661720Y-79398865D01*
X118467135Y-79204280D01*
X118238327Y-79051395D01*
X118161085Y-79019400D01*
X118238327Y-78987405D01*
X118467135Y-78834520D01*
X118661720Y-78639935D01*
X118814605Y-78411127D01*
X118919914Y-78156890D01*
X118973600Y-77886992D01*
X118973600Y-77611808D01*
X118919914Y-77341910D01*
X118814605Y-77087673D01*
X118661720Y-76858865D01*
X118467135Y-76664280D01*
X118238327Y-76511395D01*
X118161085Y-76479400D01*
X118238327Y-76447405D01*
X118467135Y-76294520D01*
X118661720Y-76099935D01*
X118814605Y-75871127D01*
X118919914Y-75616890D01*
X118973600Y-75346992D01*
X118973600Y-75071808D01*
X118919914Y-74801910D01*
X118814605Y-74547673D01*
X118661720Y-74318865D01*
X118467135Y-74124280D01*
X118238327Y-73971395D01*
X118161085Y-73939400D01*
X118238327Y-73907405D01*
X118467135Y-73754520D01*
X118661720Y-73559935D01*
X118814605Y-73331127D01*
X118919914Y-73076890D01*
X118973600Y-72806992D01*
X118973600Y-72531808D01*
X118919914Y-72261910D01*
X118814605Y-72007673D01*
X118661720Y-71778865D01*
X118467135Y-71584280D01*
X118238327Y-71431395D01*
X117984090Y-71326086D01*
X117714192Y-71272400D01*
X117439008Y-71272400D01*
X117169110Y-71326086D01*
X116914873Y-71431395D01*
X116686065Y-71584280D01*
X116491480Y-71778865D01*
X116338595Y-72007673D01*
X116233286Y-72261910D01*
X116179600Y-72531808D01*
X111780307Y-72531808D01*
X111965704Y-72346411D01*
X112120558Y-72114655D01*
X112227224Y-71857141D01*
X112281601Y-71583766D01*
X112281601Y-71305036D01*
X112227224Y-71031661D01*
X112120558Y-70774147D01*
X111965704Y-70542391D01*
X111768611Y-70345298D01*
X111536855Y-70190444D01*
X111498124Y-70174401D01*
X111536855Y-70158358D01*
X111768611Y-70003504D01*
X111965704Y-69806411D01*
X112120558Y-69574655D01*
X112227224Y-69317141D01*
X112281601Y-69043766D01*
X112281601Y-68765036D01*
X112227224Y-68491661D01*
X112120558Y-68234147D01*
X111965704Y-68002391D01*
X111768611Y-67805298D01*
X111536855Y-67650444D01*
X111498124Y-67634401D01*
X111536855Y-67618358D01*
X111768611Y-67463504D01*
X111965704Y-67266411D01*
X112120558Y-67034655D01*
X112227224Y-66777141D01*
X112281601Y-66503766D01*
X112281601Y-66225036D01*
X112227224Y-65951661D01*
X112120558Y-65694147D01*
X111965704Y-65462391D01*
X111768611Y-65265298D01*
X111536855Y-65110444D01*
X111498124Y-65094401D01*
X111536855Y-65078358D01*
X111768611Y-64923504D01*
X111830341Y-64861774D01*
X112623600Y-64861774D01*
X112623600Y-65237026D01*
X112696809Y-65605068D01*
X112840411Y-65951756D01*
X113048890Y-66263766D01*
X113314234Y-66529110D01*
X113626244Y-66737589D01*
X113972932Y-66881191D01*
X114340974Y-66954400D01*
X114716226Y-66954400D01*
X115084268Y-66881191D01*
X115430956Y-66737589D01*
X115742966Y-66529110D01*
X116008310Y-66263766D01*
X116216789Y-65951756D01*
X116360391Y-65605068D01*
X116433600Y-65237026D01*
X116433600Y-64861774D01*
X116360391Y-64493732D01*
X116216789Y-64147044D01*
X116048849Y-63895704D01*
X134846544Y-63895704D01*
X134887741Y-64171373D01*
X134981926Y-64433709D01*
X135046252Y-64554056D01*
X135288180Y-64623217D01*
X136086996Y-63824401D01*
X135288180Y-63025585D01*
X135046252Y-63094746D01*
X134927353Y-63346844D01*
X134859920Y-63617295D01*
X134846544Y-63895704D01*
X116048849Y-63895704D01*
X116008310Y-63835034D01*
X115742966Y-63569690D01*
X115430956Y-63361211D01*
X115084268Y-63217609D01*
X114716226Y-63144400D01*
X114340974Y-63144400D01*
X113972932Y-63217609D01*
X113626244Y-63361211D01*
X113314234Y-63569690D01*
X113048890Y-63835034D01*
X112840411Y-64147044D01*
X112696809Y-64493732D01*
X112623600Y-64861774D01*
X111830341Y-64861774D01*
X111965704Y-64726411D01*
X112120558Y-64494655D01*
X112227224Y-64237141D01*
X112281601Y-63963766D01*
X112281601Y-63873111D01*
X127499008Y-48655704D01*
X134846544Y-48655704D01*
X134887741Y-48931373D01*
X134981926Y-49193709D01*
X135046252Y-49314056D01*
X135288180Y-49383217D01*
X136086996Y-48584401D01*
X136446206Y-48584401D01*
X137245022Y-49383217D01*
X137486950Y-49314056D01*
X137605849Y-49061958D01*
X137673282Y-48791507D01*
X137686658Y-48513098D01*
X137645461Y-48237429D01*
X137551276Y-47975093D01*
X137486950Y-47854746D01*
X137245022Y-47785585D01*
X136446206Y-48584401D01*
X136086996Y-48584401D01*
X135288180Y-47785585D01*
X135046252Y-47854746D01*
X134927353Y-48106844D01*
X134859920Y-48377295D01*
X134846544Y-48655704D01*
X127499008Y-48655704D01*
X128612312Y-47542401D01*
X135485961Y-47542401D01*
X135467785Y-47605980D01*
G37*
X135467785Y-47605980D02*
X136266601Y-48404796D01*
X137065417Y-47605980D01*
X137047241Y-47542401D01*
X142622534Y-47542401D01*
X142649286Y-47676890D01*
X142754595Y-47931127D01*
X142907480Y-48159935D01*
X143102065Y-48354520D01*
X143330873Y-48507405D01*
X143408115Y-48539400D01*
X143330873Y-48571395D01*
X143102065Y-48724280D01*
X142907480Y-48918865D01*
X142754595Y-49147673D01*
X142649286Y-49401910D01*
X142595600Y-49671808D01*
X142595600Y-49946992D01*
X142649286Y-50216890D01*
X142754595Y-50471127D01*
X142907480Y-50699935D01*
X143102065Y-50894520D01*
X143330873Y-51047405D01*
X143408115Y-51079400D01*
X143330873Y-51111395D01*
X143102065Y-51264280D01*
X142907480Y-51458865D01*
X142754595Y-51687673D01*
X142649286Y-51941910D01*
X142595600Y-52211808D01*
X142595600Y-52486992D01*
X142649286Y-52756890D01*
X142754595Y-53011127D01*
X142907480Y-53239935D01*
X143102065Y-53434520D01*
X143330873Y-53587405D01*
X143408115Y-53619400D01*
X143330873Y-53651395D01*
X143102065Y-53804280D01*
X142907480Y-53998865D01*
X142754595Y-54227673D01*
X142649286Y-54481910D01*
X142595600Y-54751808D01*
X142595600Y-55026992D01*
X142649286Y-55296890D01*
X142754595Y-55551127D01*
X142907480Y-55779935D01*
X143102065Y-55974520D01*
X143330873Y-56127405D01*
X143408115Y-56159400D01*
X143330873Y-56191395D01*
X143102065Y-56344280D01*
X143051945Y-56394400D01*
X137920311Y-56394400D01*
X137681601Y-56155690D01*
X137681601Y-56065036D01*
X137627224Y-55791661D01*
X137520558Y-55534147D01*
X137365704Y-55302391D01*
X137168611Y-55105298D01*
X136936855Y-54950444D01*
X136898124Y-54934401D01*
X136936855Y-54918358D01*
X137168611Y-54763504D01*
X137365704Y-54566411D01*
X137520558Y-54334655D01*
X137627224Y-54077141D01*
X137681601Y-53803766D01*
X137681601Y-53525036D01*
X137627224Y-53251661D01*
X137520558Y-52994147D01*
X137365704Y-52762391D01*
X137168611Y-52565298D01*
X136936855Y-52410444D01*
X136898124Y-52394401D01*
X136936855Y-52378358D01*
X137168611Y-52223504D01*
X137365704Y-52026411D01*
X137520558Y-51794655D01*
X137627224Y-51537141D01*
X137681601Y-51263766D01*
X137681601Y-50985036D01*
X137627224Y-50711661D01*
X137520558Y-50454147D01*
X137365704Y-50222391D01*
X137168611Y-50025298D01*
X136936855Y-49870444D01*
X136901076Y-49855624D01*
X136996256Y-49804750D01*
X137065417Y-49562822D01*
X136266601Y-48764006D01*
X135467785Y-49562822D01*
X135536946Y-49804750D01*
X135638880Y-49852826D01*
X135596347Y-49870444D01*
X135364591Y-50025298D01*
X135167498Y-50222391D01*
X135012644Y-50454147D01*
X134905978Y-50711661D01*
X134851601Y-50985036D01*
X134851601Y-51263766D01*
X134905978Y-51537141D01*
X135012644Y-51794655D01*
X135167498Y-52026411D01*
X135364591Y-52223504D01*
X135596347Y-52378358D01*
X135635078Y-52394401D01*
X135596347Y-52410444D01*
X135364591Y-52565298D01*
X135167498Y-52762391D01*
X135012644Y-52994147D01*
X134905978Y-53251661D01*
X134851601Y-53525036D01*
X134851601Y-53803766D01*
X134905978Y-54077141D01*
X135012644Y-54334655D01*
X135167498Y-54566411D01*
X135364591Y-54763504D01*
X135596347Y-54918358D01*
X135635078Y-54934401D01*
X135596347Y-54950444D01*
X135364591Y-55105298D01*
X135167498Y-55302391D01*
X135012644Y-55534147D01*
X134905978Y-55791661D01*
X134851601Y-56065036D01*
X134851601Y-56343766D01*
X134905978Y-56617141D01*
X135012644Y-56874655D01*
X135167498Y-57106411D01*
X135364591Y-57303504D01*
X135596347Y-57458358D01*
X135635078Y-57474401D01*
X135596347Y-57490444D01*
X135364591Y-57645298D01*
X135167498Y-57842391D01*
X135012644Y-58074147D01*
X134905978Y-58331661D01*
X134851601Y-58605036D01*
X134851601Y-58883766D01*
X134905978Y-59157141D01*
X135012644Y-59414655D01*
X135167498Y-59646411D01*
X135364591Y-59843504D01*
X135596347Y-59998358D01*
X135635078Y-60014401D01*
X135596347Y-60030444D01*
X135364591Y-60185298D01*
X135167498Y-60382391D01*
X135012644Y-60614147D01*
X134905978Y-60871661D01*
X134851601Y-61145036D01*
X134851601Y-61423766D01*
X134905978Y-61697141D01*
X135012644Y-61954655D01*
X135167498Y-62186411D01*
X135364591Y-62383504D01*
X135596347Y-62538358D01*
X135632126Y-62553178D01*
X135536946Y-62604052D01*
X135467785Y-62845980D01*
X136266601Y-63644796D01*
X136280744Y-63630654D01*
X136460349Y-63810259D01*
X136446206Y-63824401D01*
X136460349Y-63838544D01*
X136280744Y-64018149D01*
X136266601Y-64004006D01*
X135467785Y-64802822D01*
X135536946Y-65044750D01*
X135638880Y-65092826D01*
X135596347Y-65110444D01*
X135364591Y-65265298D01*
X135167498Y-65462391D01*
X135012644Y-65694147D01*
X134905978Y-65951661D01*
X134851601Y-66225036D01*
X134851601Y-66503766D01*
X134905978Y-66777141D01*
X135012644Y-67034655D01*
X135167498Y-67266411D01*
X135364591Y-67463504D01*
X135596347Y-67618358D01*
X135635078Y-67634401D01*
X135596347Y-67650444D01*
X135364591Y-67805298D01*
X135167498Y-68002391D01*
X135012644Y-68234147D01*
X134905978Y-68491661D01*
X134851601Y-68765036D01*
X134851601Y-69043766D01*
X134905978Y-69317141D01*
X135012644Y-69574655D01*
X135167498Y-69806411D01*
X135364591Y-70003504D01*
X135596347Y-70158358D01*
X135635078Y-70174401D01*
X135596347Y-70190444D01*
X135364591Y-70345298D01*
X135167498Y-70542391D01*
X135012644Y-70774147D01*
X134905978Y-71031661D01*
X134851601Y-71305036D01*
X134851601Y-71583766D01*
X134905978Y-71857141D01*
X135012644Y-72114655D01*
X135167498Y-72346411D01*
X135364591Y-72543504D01*
X135596347Y-72698358D01*
X135635078Y-72714401D01*
X135596347Y-72730444D01*
X135364591Y-72885298D01*
X135300488Y-72949401D01*
X132136626Y-72949401D01*
X132085798Y-72944395D01*
X132034970Y-72949401D01*
X132034961Y-72949401D01*
X131882904Y-72964377D01*
X131687806Y-73023560D01*
X131605800Y-73067393D01*
X131508001Y-73119667D01*
X131389891Y-73216598D01*
X131350403Y-73249005D01*
X131317996Y-73288493D01*
X129250497Y-75355993D01*
X129211004Y-75388404D01*
X129081666Y-75546003D01*
X128985559Y-75725808D01*
X128926376Y-75920906D01*
X128911400Y-76072963D01*
X128911400Y-76072972D01*
X128906394Y-76123800D01*
X128911400Y-76174628D01*
X128911401Y-92353438D01*
X128909024Y-92329305D01*
X128894196Y-92280423D01*
X128884226Y-92230302D01*
X128864669Y-92183087D01*
X128849841Y-92134207D01*
X128825762Y-92089158D01*
X128806205Y-92041944D01*
X128777814Y-91999454D01*
X128753734Y-91954403D01*
X128721328Y-91914916D01*
X128692937Y-91872426D01*
X128656803Y-91836292D01*
X128624396Y-91796804D01*
X128584908Y-91764397D01*
X128548774Y-91728263D01*
X128506284Y-91699872D01*
X128466797Y-91667466D01*
X128421746Y-91643386D01*
X128379256Y-91614995D01*
X128332042Y-91595438D01*
X128286993Y-91571359D01*
X128238113Y-91556531D01*
X128190898Y-91536974D01*
X128140777Y-91527004D01*
X128091895Y-91512176D01*
X128041057Y-91507169D01*
X127990939Y-91497200D01*
X116763835Y-91497200D01*
X116713000Y-91492193D01*
X116662165Y-91497200D01*
X116662162Y-91497200D01*
X116510105Y-91512176D01*
X116315007Y-91571359D01*
X116233370Y-91614995D01*
X116135202Y-91667466D01*
X116032935Y-91751395D01*
X115977604Y-91796804D01*
X115945197Y-91836292D01*
X115579590Y-92201900D01*
X115579590Y-80253225D01*
X115584597Y-80202390D01*
X115574982Y-80104768D01*
X115564614Y-79999495D01*
X115505431Y-79804397D01*
X115430855Y-79664875D01*
X115409324Y-79624592D01*
X115312393Y-79506482D01*
X115279986Y-79466994D01*
X115240498Y-79434587D01*
X112281601Y-76475691D01*
X112281601Y-76385036D01*
X112227224Y-76111661D01*
X112120558Y-75854147D01*
X111965704Y-75622391D01*
X111768611Y-75425298D01*
X111536855Y-75270444D01*
X111498124Y-75254401D01*
X111536855Y-75238358D01*
X111768611Y-75083504D01*
X111965704Y-74886411D01*
X112120558Y-74654655D01*
X112227224Y-74397141D01*
X112281601Y-74123766D01*
X112281601Y-73845036D01*
X112227224Y-73571661D01*
X112120558Y-73314147D01*
X111965704Y-73082391D01*
X111768611Y-72885298D01*
X111536855Y-72730444D01*
X111498124Y-72714401D01*
X111536855Y-72698358D01*
X111768611Y-72543504D01*
X111780307Y-72531808D01*
X116179600Y-72531808D01*
X116179600Y-72806992D01*
X116233286Y-73076890D01*
X116338595Y-73331127D01*
X116491480Y-73559935D01*
X116686065Y-73754520D01*
X116914873Y-73907405D01*
X116992115Y-73939400D01*
X116914873Y-73971395D01*
X116686065Y-74124280D01*
X116491480Y-74318865D01*
X116338595Y-74547673D01*
X116233286Y-74801910D01*
X116179600Y-75071808D01*
X116179600Y-75346992D01*
X116233286Y-75616890D01*
X116338595Y-75871127D01*
X116491480Y-76099935D01*
X116686065Y-76294520D01*
X116914873Y-76447405D01*
X116992115Y-76479400D01*
X116914873Y-76511395D01*
X116686065Y-76664280D01*
X116491480Y-76858865D01*
X116338595Y-77087673D01*
X116233286Y-77341910D01*
X116179600Y-77611808D01*
X116179600Y-77886992D01*
X116233286Y-78156890D01*
X116338595Y-78411127D01*
X116491480Y-78639935D01*
X116686065Y-78834520D01*
X116914873Y-78987405D01*
X116992115Y-79019400D01*
X116914873Y-79051395D01*
X116686065Y-79204280D01*
X116491480Y-79398865D01*
X116338595Y-79627673D01*
X116233286Y-79881910D01*
X116179600Y-80151808D01*
X116179600Y-80426992D01*
X116233286Y-80696890D01*
X116338595Y-80951127D01*
X116491480Y-81179935D01*
X116686065Y-81374520D01*
X116914873Y-81527405D01*
X116992115Y-81559400D01*
X116914873Y-81591395D01*
X116686065Y-81744280D01*
X116491480Y-81938865D01*
X116338595Y-82167673D01*
X116233286Y-82421910D01*
X116179600Y-82691808D01*
X116179600Y-82966992D01*
X116233286Y-83236890D01*
X116338595Y-83491127D01*
X116491480Y-83719935D01*
X116686065Y-83914520D01*
X116914873Y-84067405D01*
X117169110Y-84172714D01*
X117439008Y-84226400D01*
X117714192Y-84226400D01*
X117984090Y-84172714D01*
X118238327Y-84067405D01*
X118467135Y-83914520D01*
X118661720Y-83719935D01*
X118814605Y-83491127D01*
X118919914Y-83236890D01*
X118973600Y-82966992D01*
X118973600Y-82691808D01*
X118919914Y-82421910D01*
X118814605Y-82167673D01*
X118661720Y-81938865D01*
X118467135Y-81744280D01*
X118238327Y-81591395D01*
X118161085Y-81559400D01*
X118238327Y-81527405D01*
X118467135Y-81374520D01*
X118661720Y-81179935D01*
X118814605Y-80951127D01*
X118919914Y-80696890D01*
X118973600Y-80426992D01*
X118973600Y-80151808D01*
X118919914Y-79881910D01*
X118814605Y-79627673D01*
X118661720Y-79398865D01*
X118467135Y-79204280D01*
X118238327Y-79051395D01*
X118161085Y-79019400D01*
X118238327Y-78987405D01*
X118467135Y-78834520D01*
X118661720Y-78639935D01*
X118814605Y-78411127D01*
X118919914Y-78156890D01*
X118973600Y-77886992D01*
X118973600Y-77611808D01*
X118919914Y-77341910D01*
X118814605Y-77087673D01*
X118661720Y-76858865D01*
X118467135Y-76664280D01*
X118238327Y-76511395D01*
X118161085Y-76479400D01*
X118238327Y-76447405D01*
X118467135Y-76294520D01*
X118661720Y-76099935D01*
X118814605Y-75871127D01*
X118919914Y-75616890D01*
X118973600Y-75346992D01*
X118973600Y-75071808D01*
X118919914Y-74801910D01*
X118814605Y-74547673D01*
X118661720Y-74318865D01*
X118467135Y-74124280D01*
X118238327Y-73971395D01*
X118161085Y-73939400D01*
X118238327Y-73907405D01*
X118467135Y-73754520D01*
X118661720Y-73559935D01*
X118814605Y-73331127D01*
X118919914Y-73076890D01*
X118973600Y-72806992D01*
X118973600Y-72531808D01*
X118919914Y-72261910D01*
X118814605Y-72007673D01*
X118661720Y-71778865D01*
X118467135Y-71584280D01*
X118238327Y-71431395D01*
X117984090Y-71326086D01*
X117714192Y-71272400D01*
X117439008Y-71272400D01*
X117169110Y-71326086D01*
X116914873Y-71431395D01*
X116686065Y-71584280D01*
X116491480Y-71778865D01*
X116338595Y-72007673D01*
X116233286Y-72261910D01*
X116179600Y-72531808D01*
X111780307Y-72531808D01*
X111965704Y-72346411D01*
X112120558Y-72114655D01*
X112227224Y-71857141D01*
X112281601Y-71583766D01*
X112281601Y-71305036D01*
X112227224Y-71031661D01*
X112120558Y-70774147D01*
X111965704Y-70542391D01*
X111768611Y-70345298D01*
X111536855Y-70190444D01*
X111498124Y-70174401D01*
X111536855Y-70158358D01*
X111768611Y-70003504D01*
X111965704Y-69806411D01*
X112120558Y-69574655D01*
X112227224Y-69317141D01*
X112281601Y-69043766D01*
X112281601Y-68765036D01*
X112227224Y-68491661D01*
X112120558Y-68234147D01*
X111965704Y-68002391D01*
X111768611Y-67805298D01*
X111536855Y-67650444D01*
X111498124Y-67634401D01*
X111536855Y-67618358D01*
X111768611Y-67463504D01*
X111965704Y-67266411D01*
X112120558Y-67034655D01*
X112227224Y-66777141D01*
X112281601Y-66503766D01*
X112281601Y-66225036D01*
X112227224Y-65951661D01*
X112120558Y-65694147D01*
X111965704Y-65462391D01*
X111768611Y-65265298D01*
X111536855Y-65110444D01*
X111498124Y-65094401D01*
X111536855Y-65078358D01*
X111768611Y-64923504D01*
X111830341Y-64861774D01*
X112623600Y-64861774D01*
X112623600Y-65237026D01*
X112696809Y-65605068D01*
X112840411Y-65951756D01*
X113048890Y-66263766D01*
X113314234Y-66529110D01*
X113626244Y-66737589D01*
X113972932Y-66881191D01*
X114340974Y-66954400D01*
X114716226Y-66954400D01*
X115084268Y-66881191D01*
X115430956Y-66737589D01*
X115742966Y-66529110D01*
X116008310Y-66263766D01*
X116216789Y-65951756D01*
X116360391Y-65605068D01*
X116433600Y-65237026D01*
X116433600Y-64861774D01*
X116360391Y-64493732D01*
X116216789Y-64147044D01*
X116048849Y-63895704D01*
X134846544Y-63895704D01*
X134887741Y-64171373D01*
X134981926Y-64433709D01*
X135046252Y-64554056D01*
X135288180Y-64623217D01*
X136086996Y-63824401D01*
X135288180Y-63025585D01*
X135046252Y-63094746D01*
X134927353Y-63346844D01*
X134859920Y-63617295D01*
X134846544Y-63895704D01*
X116048849Y-63895704D01*
X116008310Y-63835034D01*
X115742966Y-63569690D01*
X115430956Y-63361211D01*
X115084268Y-63217609D01*
X114716226Y-63144400D01*
X114340974Y-63144400D01*
X113972932Y-63217609D01*
X113626244Y-63361211D01*
X113314234Y-63569690D01*
X113048890Y-63835034D01*
X112840411Y-64147044D01*
X112696809Y-64493732D01*
X112623600Y-64861774D01*
X111830341Y-64861774D01*
X111965704Y-64726411D01*
X112120558Y-64494655D01*
X112227224Y-64237141D01*
X112281601Y-63963766D01*
X112281601Y-63873111D01*
X127499008Y-48655704D01*
X134846544Y-48655704D01*
X134887741Y-48931373D01*
X134981926Y-49193709D01*
X135046252Y-49314056D01*
X135288180Y-49383217D01*
X136086996Y-48584401D01*
X136446206Y-48584401D01*
X137245022Y-49383217D01*
X137486950Y-49314056D01*
X137605849Y-49061958D01*
X137673282Y-48791507D01*
X137686658Y-48513098D01*
X137645461Y-48237429D01*
X137551276Y-47975093D01*
X137486950Y-47854746D01*
X137245022Y-47785585D01*
X136446206Y-48584401D01*
X136086996Y-48584401D01*
X135288180Y-47785585D01*
X135046252Y-47854746D01*
X134927353Y-48106844D01*
X134859920Y-48377295D01*
X134846544Y-48655704D01*
X127499008Y-48655704D01*
X128612312Y-47542401D01*
X135485961Y-47542401D01*
X135467785Y-47605980D01*
G36*
X143170348Y-75195258D02*
G01*
X143156205Y-75209400D01*
X143942165Y-75995360D01*
X144182256Y-75928380D01*
X144299356Y-75679352D01*
X144343782Y-75500293D01*
X144573602Y-75730113D01*
X144573602Y-87666149D01*
X144551739Y-87661800D01*
X144500638Y-87661800D01*
X144449800Y-87656793D01*
X144398962Y-87661800D01*
X144351718Y-87661800D01*
X144319914Y-87501910D01*
X144214605Y-87247673D01*
X144061720Y-87018865D01*
X143867135Y-86824280D01*
X143638327Y-86671395D01*
X143561085Y-86639400D01*
X143638327Y-86607405D01*
X143867135Y-86454520D01*
X144061720Y-86259935D01*
X144214605Y-86031127D01*
X144319914Y-85776890D01*
X144373600Y-85506992D01*
X144373600Y-85231808D01*
X144319914Y-84961910D01*
X144214605Y-84707673D01*
X144061720Y-84478865D01*
X143867135Y-84284280D01*
X143638327Y-84131395D01*
X143561085Y-84099400D01*
X143638327Y-84067405D01*
X143867135Y-83914520D01*
X144061720Y-83719935D01*
X144214605Y-83491127D01*
X144319914Y-83236890D01*
X144373600Y-82966992D01*
X144373600Y-82691808D01*
X144319914Y-82421910D01*
X144214605Y-82167673D01*
X144061720Y-81938865D01*
X143867135Y-81744280D01*
X143638327Y-81591395D01*
X143561085Y-81559400D01*
X143638327Y-81527405D01*
X143867135Y-81374520D01*
X144061720Y-81179935D01*
X144214605Y-80951127D01*
X144319914Y-80696890D01*
X144373600Y-80426992D01*
X144373600Y-80151808D01*
X144319914Y-79881910D01*
X144214605Y-79627673D01*
X144061720Y-79398865D01*
X143867135Y-79204280D01*
X143638327Y-79051395D01*
X143561085Y-79019400D01*
X143638327Y-78987405D01*
X143867135Y-78834520D01*
X144061720Y-78639935D01*
X144214605Y-78411127D01*
X144319914Y-78156890D01*
X144373600Y-77886992D01*
X144373600Y-77611808D01*
X144319914Y-77341910D01*
X144214605Y-77087673D01*
X144061720Y-76858865D01*
X143867135Y-76664280D01*
X143638327Y-76511395D01*
X143566657Y-76481708D01*
X143579623Y-76477036D01*
X143695580Y-76415056D01*
X143762560Y-76174965D01*
X142976600Y-75389005D01*
X142962458Y-75403148D01*
X142782853Y-75223543D01*
X142796995Y-75209400D01*
X142782853Y-75195258D01*
X142962458Y-75015653D01*
X142976600Y-75029795D01*
X142990743Y-75015653D01*
X143170348Y-75195258D01*
G37*
X143170348Y-75195258D02*
X143156205Y-75209400D01*
X143942165Y-75995360D01*
X144182256Y-75928380D01*
X144299356Y-75679352D01*
X144343782Y-75500293D01*
X144573602Y-75730113D01*
X144573602Y-87666149D01*
X144551739Y-87661800D01*
X144500638Y-87661800D01*
X144449800Y-87656793D01*
X144398962Y-87661800D01*
X144351718Y-87661800D01*
X144319914Y-87501910D01*
X144214605Y-87247673D01*
X144061720Y-87018865D01*
X143867135Y-86824280D01*
X143638327Y-86671395D01*
X143561085Y-86639400D01*
X143638327Y-86607405D01*
X143867135Y-86454520D01*
X144061720Y-86259935D01*
X144214605Y-86031127D01*
X144319914Y-85776890D01*
X144373600Y-85506992D01*
X144373600Y-85231808D01*
X144319914Y-84961910D01*
X144214605Y-84707673D01*
X144061720Y-84478865D01*
X143867135Y-84284280D01*
X143638327Y-84131395D01*
X143561085Y-84099400D01*
X143638327Y-84067405D01*
X143867135Y-83914520D01*
X144061720Y-83719935D01*
X144214605Y-83491127D01*
X144319914Y-83236890D01*
X144373600Y-82966992D01*
X144373600Y-82691808D01*
X144319914Y-82421910D01*
X144214605Y-82167673D01*
X144061720Y-81938865D01*
X143867135Y-81744280D01*
X143638327Y-81591395D01*
X143561085Y-81559400D01*
X143638327Y-81527405D01*
X143867135Y-81374520D01*
X144061720Y-81179935D01*
X144214605Y-80951127D01*
X144319914Y-80696890D01*
X144373600Y-80426992D01*
X144373600Y-80151808D01*
X144319914Y-79881910D01*
X144214605Y-79627673D01*
X144061720Y-79398865D01*
X143867135Y-79204280D01*
X143638327Y-79051395D01*
X143561085Y-79019400D01*
X143638327Y-78987405D01*
X143867135Y-78834520D01*
X144061720Y-78639935D01*
X144214605Y-78411127D01*
X144319914Y-78156890D01*
X144373600Y-77886992D01*
X144373600Y-77611808D01*
X144319914Y-77341910D01*
X144214605Y-77087673D01*
X144061720Y-76858865D01*
X143867135Y-76664280D01*
X143638327Y-76511395D01*
X143566657Y-76481708D01*
X143579623Y-76477036D01*
X143695580Y-76415056D01*
X143762560Y-76174965D01*
X142976600Y-75389005D01*
X142962458Y-75403148D01*
X142782853Y-75223543D01*
X142796995Y-75209400D01*
X142782853Y-75195258D01*
X142962458Y-75015653D01*
X142976600Y-75029795D01*
X142990743Y-75015653D01*
X143170348Y-75195258D01*
M02*
