G04 #@! TF.GenerationSoftware,KiCad,Pcbnew,5.1.6-c6e7f7d~87~ubuntu20.04.1*
G04 #@! TF.CreationDate,2020-08-06T14:16:39-04:00*
G04 #@! TF.ProjectId,Buoy_WithGSM,42756f79-5f57-4697-9468-47534d2e6b69,Leonardo Ward*
G04 #@! TF.SameCoordinates,Original*
G04 #@! TF.FileFunction,Legend,Top*
G04 #@! TF.FilePolarity,Positive*
%FSLAX46Y46*%
G04 Gerber Fmt 4.6, Leading zero omitted, Abs format (unit mm)*
G04 Created by KiCad (PCBNEW 5.1.6-c6e7f7d~87~ubuntu20.04.1) date 2020-08-06 14:16:39*
%MOMM*%
%LPD*%
G01*
G04 APERTURE LIST*
%ADD10C,0.300000*%
%ADD11C,0.500000*%
%ADD12C,0.127000*%
%ADD13C,0.120000*%
%ADD14C,0.150000*%
%ADD15C,0.015000*%
G04 APERTURE END LIST*
D10*
X154882885Y-83354171D02*
X154168600Y-83354171D01*
X154097171Y-84068457D01*
X154168600Y-83997028D01*
X154311457Y-83925600D01*
X154668600Y-83925600D01*
X154811457Y-83997028D01*
X154882885Y-84068457D01*
X154954314Y-84211314D01*
X154954314Y-84568457D01*
X154882885Y-84711314D01*
X154811457Y-84782742D01*
X154668600Y-84854171D01*
X154311457Y-84854171D01*
X154168600Y-84782742D01*
X154097171Y-84711314D01*
X155382885Y-83354171D02*
X155882885Y-84854171D01*
X156382885Y-83354171D01*
X154965542Y-91147200D02*
X154822685Y-91075771D01*
X154608400Y-91075771D01*
X154394114Y-91147200D01*
X154251257Y-91290057D01*
X154179828Y-91432914D01*
X154108400Y-91718628D01*
X154108400Y-91932914D01*
X154179828Y-92218628D01*
X154251257Y-92361485D01*
X154394114Y-92504342D01*
X154608400Y-92575771D01*
X154751257Y-92575771D01*
X154965542Y-92504342D01*
X155036971Y-92432914D01*
X155036971Y-91932914D01*
X154751257Y-91932914D01*
X155679828Y-92575771D02*
X155679828Y-91075771D01*
X156536971Y-92575771D01*
X156536971Y-91075771D01*
X157251257Y-92575771D02*
X157251257Y-91075771D01*
X157608400Y-91075771D01*
X157822685Y-91147200D01*
X157965542Y-91290057D01*
X158036971Y-91432914D01*
X158108400Y-91718628D01*
X158108400Y-91932914D01*
X158036971Y-92218628D01*
X157965542Y-92361485D01*
X157822685Y-92504342D01*
X157608400Y-92575771D01*
X157251257Y-92575771D01*
X113438600Y-144721971D02*
X112724314Y-144721971D01*
X112724314Y-143221971D01*
X113938600Y-144579114D02*
X114010028Y-144650542D01*
X113938600Y-144721971D01*
X113867171Y-144650542D01*
X113938600Y-144579114D01*
X113938600Y-144721971D01*
X114510028Y-143221971D02*
X114867171Y-144721971D01*
X115152885Y-143650542D01*
X115438600Y-144721971D01*
X115795742Y-143221971D01*
X116367171Y-144579114D02*
X116438600Y-144650542D01*
X116367171Y-144721971D01*
X116295742Y-144650542D01*
X116367171Y-144579114D01*
X116367171Y-144721971D01*
X122795742Y-143936257D02*
X123295742Y-143936257D01*
X123510028Y-144721971D02*
X122795742Y-144721971D01*
X122795742Y-143221971D01*
X123510028Y-143221971D01*
X124152885Y-144579114D02*
X124224314Y-144650542D01*
X124152885Y-144721971D01*
X124081457Y-144650542D01*
X124152885Y-144579114D01*
X124152885Y-144721971D01*
X124867171Y-144721971D02*
X124867171Y-143221971D01*
X125724314Y-144721971D02*
X125081457Y-143864828D01*
X125724314Y-143221971D02*
X124867171Y-144079114D01*
X126367171Y-144579114D02*
X126438600Y-144650542D01*
X126367171Y-144721971D01*
X126295742Y-144650542D01*
X126367171Y-144579114D01*
X126367171Y-144721971D01*
X133081457Y-143221971D02*
X133367171Y-143221971D01*
X133510028Y-143293400D01*
X133652885Y-143436257D01*
X133724314Y-143721971D01*
X133724314Y-144221971D01*
X133652885Y-144507685D01*
X133510028Y-144650542D01*
X133367171Y-144721971D01*
X133081457Y-144721971D01*
X132938600Y-144650542D01*
X132795742Y-144507685D01*
X132724314Y-144221971D01*
X132724314Y-143721971D01*
X132795742Y-143436257D01*
X132938600Y-143293400D01*
X133081457Y-143221971D01*
X134367171Y-144579114D02*
X134438600Y-144650542D01*
X134367171Y-144721971D01*
X134295742Y-144650542D01*
X134367171Y-144579114D01*
X134367171Y-144721971D01*
X135367171Y-143221971D02*
X135652885Y-143221971D01*
X135795742Y-143293400D01*
X135938600Y-143436257D01*
X136010028Y-143721971D01*
X136010028Y-144221971D01*
X135938600Y-144507685D01*
X135795742Y-144650542D01*
X135652885Y-144721971D01*
X135367171Y-144721971D01*
X135224314Y-144650542D01*
X135081457Y-144507685D01*
X135010028Y-144221971D01*
X135010028Y-143721971D01*
X135081457Y-143436257D01*
X135224314Y-143293400D01*
X135367171Y-143221971D01*
X136652885Y-144579114D02*
X136724314Y-144650542D01*
X136652885Y-144721971D01*
X136581457Y-144650542D01*
X136652885Y-144579114D01*
X136652885Y-144721971D01*
D11*
X110815647Y-140852542D02*
X111482314Y-140852542D01*
X111768028Y-141900161D02*
X110815647Y-141900161D01*
X110815647Y-139900161D01*
X111768028Y-139900161D01*
X113196599Y-139900161D02*
X113196599Y-141328733D01*
X113101361Y-141614447D01*
X112910885Y-141804923D01*
X112625171Y-141900161D01*
X112434695Y-141900161D01*
X114053742Y-141328733D02*
X115006123Y-141328733D01*
X113863266Y-141900161D02*
X114529933Y-139900161D01*
X115196599Y-141900161D01*
X117387076Y-141138257D02*
X118910885Y-141138257D01*
X122053742Y-140852542D02*
X122339457Y-140947780D01*
X122434695Y-141043019D01*
X122529933Y-141233495D01*
X122529933Y-141519209D01*
X122434695Y-141709685D01*
X122339457Y-141804923D01*
X122148980Y-141900161D01*
X121387076Y-141900161D01*
X121387076Y-139900161D01*
X122053742Y-139900161D01*
X122244219Y-139995400D01*
X122339457Y-140090638D01*
X122434695Y-140281114D01*
X122434695Y-140471590D01*
X122339457Y-140662066D01*
X122244219Y-140757304D01*
X122053742Y-140852542D01*
X121387076Y-140852542D01*
X123387076Y-139900161D02*
X123387076Y-141519209D01*
X123482314Y-141709685D01*
X123577552Y-141804923D01*
X123768028Y-141900161D01*
X124148980Y-141900161D01*
X124339457Y-141804923D01*
X124434695Y-141709685D01*
X124529933Y-141519209D01*
X124529933Y-139900161D01*
X125863266Y-139900161D02*
X126244219Y-139900161D01*
X126434695Y-139995400D01*
X126625171Y-140185876D01*
X126720409Y-140566828D01*
X126720409Y-141233495D01*
X126625171Y-141614447D01*
X126434695Y-141804923D01*
X126244219Y-141900161D01*
X125863266Y-141900161D01*
X125672790Y-141804923D01*
X125482314Y-141614447D01*
X125387076Y-141233495D01*
X125387076Y-140566828D01*
X125482314Y-140185876D01*
X125672790Y-139995400D01*
X125863266Y-139900161D01*
X127958504Y-140947780D02*
X127958504Y-141900161D01*
X127291838Y-139900161D02*
X127958504Y-140947780D01*
X128625171Y-139900161D01*
X130720409Y-141328733D02*
X131672790Y-141328733D01*
X130529933Y-141900161D02*
X131196599Y-139900161D01*
X131863266Y-141900161D01*
X133768028Y-139900161D02*
X134434695Y-141900161D01*
X135101361Y-139900161D01*
X136815647Y-141900161D02*
X135672790Y-141900161D01*
X136244219Y-141900161D02*
X136244219Y-139900161D01*
X136053742Y-140185876D01*
X135863266Y-140376352D01*
X135672790Y-140471590D01*
X137672790Y-141709685D02*
X137768028Y-141804923D01*
X137672790Y-141900161D01*
X137577552Y-141804923D01*
X137672790Y-141709685D01*
X137672790Y-141900161D01*
X139006123Y-139900161D02*
X139196599Y-139900161D01*
X139387076Y-139995400D01*
X139482314Y-140090638D01*
X139577552Y-140281114D01*
X139672790Y-140662066D01*
X139672790Y-141138257D01*
X139577552Y-141519209D01*
X139482314Y-141709685D01*
X139387076Y-141804923D01*
X139196599Y-141900161D01*
X139006123Y-141900161D01*
X138815647Y-141804923D01*
X138720409Y-141709685D01*
X138625171Y-141519209D01*
X138529933Y-141138257D01*
X138529933Y-140662066D01*
X138625171Y-140281114D01*
X138720409Y-140090638D01*
X138815647Y-139995400D01*
X139006123Y-139900161D01*
D10*
X146290600Y-147277542D02*
X146219171Y-147420400D01*
X146219171Y-147634685D01*
X146290600Y-147848971D01*
X146433457Y-147991828D01*
X146576314Y-148063257D01*
X146862028Y-148134685D01*
X147076314Y-148134685D01*
X147362028Y-148063257D01*
X147504885Y-147991828D01*
X147647742Y-147848971D01*
X147719171Y-147634685D01*
X147719171Y-147491828D01*
X147647742Y-147277542D01*
X147576314Y-147206114D01*
X147076314Y-147206114D01*
X147076314Y-147491828D01*
X147719171Y-146563257D02*
X146219171Y-146563257D01*
X147719171Y-145706114D01*
X146219171Y-145706114D01*
X147719171Y-144991828D02*
X146219171Y-144991828D01*
X146219171Y-144634685D01*
X146290600Y-144420400D01*
X146433457Y-144277542D01*
X146576314Y-144206114D01*
X146862028Y-144134685D01*
X147076314Y-144134685D01*
X147362028Y-144206114D01*
X147504885Y-144277542D01*
X147647742Y-144420400D01*
X147719171Y-144634685D01*
X147719171Y-144991828D01*
X143679171Y-147348971D02*
X143679171Y-148063257D01*
X144393457Y-148134685D01*
X144322028Y-148063257D01*
X144250600Y-147920400D01*
X144250600Y-147563257D01*
X144322028Y-147420400D01*
X144393457Y-147348971D01*
X144536314Y-147277542D01*
X144893457Y-147277542D01*
X145036314Y-147348971D01*
X145107742Y-147420400D01*
X145179171Y-147563257D01*
X145179171Y-147920400D01*
X145107742Y-148063257D01*
X145036314Y-148134685D01*
X143679171Y-146848971D02*
X145179171Y-146348971D01*
X143679171Y-145848971D01*
X142639171Y-148063257D02*
X141139171Y-148063257D01*
X141139171Y-147491828D01*
X141210600Y-147348971D01*
X141282028Y-147277542D01*
X141424885Y-147206114D01*
X141639171Y-147206114D01*
X141782028Y-147277542D01*
X141853457Y-147348971D01*
X141924885Y-147491828D01*
X141924885Y-148063257D01*
X141139171Y-146706114D02*
X142639171Y-146348971D01*
X141567742Y-146063257D01*
X142639171Y-145777542D01*
X141139171Y-145420400D01*
X142639171Y-144848971D02*
X141139171Y-144848971D01*
X142210600Y-144348971D01*
X141139171Y-143848971D01*
X142639171Y-143848971D01*
X140682885Y-155977400D02*
X141397171Y-155977400D01*
X140540028Y-156405971D02*
X141040028Y-154905971D01*
X141540028Y-156405971D01*
X142325742Y-154905971D02*
X142468600Y-154905971D01*
X142611457Y-154977400D01*
X142682885Y-155048828D01*
X142754314Y-155191685D01*
X142825742Y-155477400D01*
X142825742Y-155834542D01*
X142754314Y-156120257D01*
X142682885Y-156263114D01*
X142611457Y-156334542D01*
X142468600Y-156405971D01*
X142325742Y-156405971D01*
X142182885Y-156334542D01*
X142111457Y-156263114D01*
X142040028Y-156120257D01*
X141968600Y-155834542D01*
X141968600Y-155477400D01*
X142040028Y-155191685D01*
X142111457Y-155048828D01*
X142182885Y-154977400D01*
X142325742Y-154905971D01*
X143397171Y-155048828D02*
X143468600Y-154977400D01*
X143611457Y-154905971D01*
X143968600Y-154905971D01*
X144111457Y-154977400D01*
X144182885Y-155048828D01*
X144254314Y-155191685D01*
X144254314Y-155334542D01*
X144182885Y-155548828D01*
X143325742Y-156405971D01*
X144254314Y-156405971D01*
X145762885Y-155977400D02*
X146477171Y-155977400D01*
X145620028Y-156405971D02*
X146120028Y-154905971D01*
X146620028Y-156405971D01*
X147405742Y-154905971D02*
X147548600Y-154905971D01*
X147691457Y-154977400D01*
X147762885Y-155048828D01*
X147834314Y-155191685D01*
X147905742Y-155477400D01*
X147905742Y-155834542D01*
X147834314Y-156120257D01*
X147762885Y-156263114D01*
X147691457Y-156334542D01*
X147548600Y-156405971D01*
X147405742Y-156405971D01*
X147262885Y-156334542D01*
X147191457Y-156263114D01*
X147120028Y-156120257D01*
X147048600Y-155834542D01*
X147048600Y-155477400D01*
X147120028Y-155191685D01*
X147191457Y-155048828D01*
X147262885Y-154977400D01*
X147405742Y-154905971D01*
X149334314Y-156405971D02*
X148477171Y-156405971D01*
X148905742Y-156405971D02*
X148905742Y-154905971D01*
X148762885Y-155120257D01*
X148620028Y-155263114D01*
X148477171Y-155334542D01*
X129482885Y-153889971D02*
X128768600Y-153889971D01*
X128697171Y-154604257D01*
X128768600Y-154532828D01*
X128911457Y-154461400D01*
X129268600Y-154461400D01*
X129411457Y-154532828D01*
X129482885Y-154604257D01*
X129554314Y-154747114D01*
X129554314Y-155104257D01*
X129482885Y-155247114D01*
X129411457Y-155318542D01*
X129268600Y-155389971D01*
X128911457Y-155389971D01*
X128768600Y-155318542D01*
X128697171Y-155247114D01*
X129982885Y-153889971D02*
X130482885Y-155389971D01*
X130982885Y-153889971D01*
X116433742Y-150405400D02*
X116290885Y-150333971D01*
X116076600Y-150333971D01*
X115862314Y-150405400D01*
X115719457Y-150548257D01*
X115648028Y-150691114D01*
X115576600Y-150976828D01*
X115576600Y-151191114D01*
X115648028Y-151476828D01*
X115719457Y-151619685D01*
X115862314Y-151762542D01*
X116076600Y-151833971D01*
X116219457Y-151833971D01*
X116433742Y-151762542D01*
X116505171Y-151691114D01*
X116505171Y-151191114D01*
X116219457Y-151191114D01*
X117148028Y-151833971D02*
X117148028Y-150333971D01*
X118005171Y-151833971D01*
X118005171Y-150333971D01*
X118719457Y-151833971D02*
X118719457Y-150333971D01*
X119076600Y-150333971D01*
X119290885Y-150405400D01*
X119433742Y-150548257D01*
X119505171Y-150691114D01*
X119576600Y-150976828D01*
X119576600Y-151191114D01*
X119505171Y-151476828D01*
X119433742Y-151619685D01*
X119290885Y-151762542D01*
X119076600Y-151833971D01*
X118719457Y-151833971D01*
X105015742Y-74133971D02*
X105015742Y-75348257D01*
X105087171Y-75491114D01*
X105158600Y-75562542D01*
X105301457Y-75633971D01*
X105587171Y-75633971D01*
X105730028Y-75562542D01*
X105801457Y-75491114D01*
X105872885Y-75348257D01*
X105872885Y-74133971D01*
X106515742Y-75562542D02*
X106730028Y-75633971D01*
X107087171Y-75633971D01*
X107230028Y-75562542D01*
X107301457Y-75491114D01*
X107372885Y-75348257D01*
X107372885Y-75205400D01*
X107301457Y-75062542D01*
X107230028Y-74991114D01*
X107087171Y-74919685D01*
X106801457Y-74848257D01*
X106658600Y-74776828D01*
X106587171Y-74705400D01*
X106515742Y-74562542D01*
X106515742Y-74419685D01*
X106587171Y-74276828D01*
X106658600Y-74205400D01*
X106801457Y-74133971D01*
X107158600Y-74133971D01*
X107372885Y-74205400D01*
X108515742Y-74848257D02*
X108730028Y-74919685D01*
X108801457Y-74991114D01*
X108872885Y-75133971D01*
X108872885Y-75348257D01*
X108801457Y-75491114D01*
X108730028Y-75562542D01*
X108587171Y-75633971D01*
X108015742Y-75633971D01*
X108015742Y-74133971D01*
X108515742Y-74133971D01*
X108658600Y-74205400D01*
X108730028Y-74276828D01*
X108801457Y-74419685D01*
X108801457Y-74562542D01*
X108730028Y-74705400D01*
X108658600Y-74776828D01*
X108515742Y-74848257D01*
X108015742Y-74848257D01*
X104908600Y-86325971D02*
X105408600Y-87825971D01*
X105908600Y-86325971D01*
X107265742Y-87683114D02*
X107194314Y-87754542D01*
X106980028Y-87825971D01*
X106837171Y-87825971D01*
X106622885Y-87754542D01*
X106480028Y-87611685D01*
X106408600Y-87468828D01*
X106337171Y-87183114D01*
X106337171Y-86968828D01*
X106408600Y-86683114D01*
X106480028Y-86540257D01*
X106622885Y-86397400D01*
X106837171Y-86325971D01*
X106980028Y-86325971D01*
X107194314Y-86397400D01*
X107265742Y-86468828D01*
X108765742Y-87683114D02*
X108694314Y-87754542D01*
X108480028Y-87825971D01*
X108337171Y-87825971D01*
X108122885Y-87754542D01*
X107980028Y-87611685D01*
X107908600Y-87468828D01*
X107837171Y-87183114D01*
X107837171Y-86968828D01*
X107908600Y-86683114D01*
X107980028Y-86540257D01*
X108122885Y-86397400D01*
X108337171Y-86325971D01*
X108480028Y-86325971D01*
X108694314Y-86397400D01*
X108765742Y-86468828D01*
X133705742Y-153961400D02*
X133562885Y-153889971D01*
X133348600Y-153889971D01*
X133134314Y-153961400D01*
X132991457Y-154104257D01*
X132920028Y-154247114D01*
X132848600Y-154532828D01*
X132848600Y-154747114D01*
X132920028Y-155032828D01*
X132991457Y-155175685D01*
X133134314Y-155318542D01*
X133348600Y-155389971D01*
X133491457Y-155389971D01*
X133705742Y-155318542D01*
X133777171Y-155247114D01*
X133777171Y-154747114D01*
X133491457Y-154747114D01*
X134420028Y-155389971D02*
X134420028Y-153889971D01*
X135277171Y-155389971D01*
X135277171Y-153889971D01*
X135991457Y-155389971D02*
X135991457Y-153889971D01*
X136348600Y-153889971D01*
X136562885Y-153961400D01*
X136705742Y-154104257D01*
X136777171Y-154247114D01*
X136848600Y-154532828D01*
X136848600Y-154747114D01*
X136777171Y-155032828D01*
X136705742Y-155175685D01*
X136562885Y-155318542D01*
X136348600Y-155389971D01*
X135991457Y-155389971D01*
X123045742Y-153889971D02*
X123545742Y-155389971D01*
X124045742Y-153889971D01*
X124545742Y-155389971D02*
X124545742Y-153889971D01*
X125260028Y-155389971D02*
X125260028Y-153889971D01*
X126117171Y-155389971D01*
X126117171Y-153889971D01*
X110853742Y-150333971D02*
X111353742Y-151833971D01*
X111853742Y-150333971D01*
X112353742Y-151833971D02*
X112353742Y-150333971D01*
X113068028Y-151833971D02*
X113068028Y-150333971D01*
X113925171Y-151833971D01*
X113925171Y-150333971D01*
X122942885Y-59064542D02*
X123609552Y-59064542D01*
X123895266Y-60112161D02*
X122942885Y-60112161D01*
X122942885Y-58112161D01*
X123895266Y-58112161D01*
X124657171Y-60016923D02*
X124942885Y-60112161D01*
X125419076Y-60112161D01*
X125609552Y-60016923D01*
X125704790Y-59921685D01*
X125800028Y-59731209D01*
X125800028Y-59540733D01*
X125704790Y-59350257D01*
X125609552Y-59255019D01*
X125419076Y-59159780D01*
X125038123Y-59064542D01*
X124847647Y-58969304D01*
X124752409Y-58874066D01*
X124657171Y-58683590D01*
X124657171Y-58493114D01*
X124752409Y-58302638D01*
X124847647Y-58207400D01*
X125038123Y-58112161D01*
X125514314Y-58112161D01*
X125800028Y-58207400D01*
X126657171Y-60112161D02*
X126657171Y-58112161D01*
X127419076Y-58112161D01*
X127609552Y-58207400D01*
X127704790Y-58302638D01*
X127800028Y-58493114D01*
X127800028Y-58778828D01*
X127704790Y-58969304D01*
X127609552Y-59064542D01*
X127419076Y-59159780D01*
X126657171Y-59159780D01*
X128466695Y-58112161D02*
X129704790Y-58112161D01*
X129038123Y-58874066D01*
X129323838Y-58874066D01*
X129514314Y-58969304D01*
X129609552Y-59064542D01*
X129704790Y-59255019D01*
X129704790Y-59731209D01*
X129609552Y-59921685D01*
X129514314Y-60016923D01*
X129323838Y-60112161D01*
X128752409Y-60112161D01*
X128561933Y-60016923D01*
X128466695Y-59921685D01*
X130466695Y-58302638D02*
X130561933Y-58207400D01*
X130752409Y-58112161D01*
X131228600Y-58112161D01*
X131419076Y-58207400D01*
X131514314Y-58302638D01*
X131609552Y-58493114D01*
X131609552Y-58683590D01*
X131514314Y-58969304D01*
X130371457Y-60112161D01*
X131609552Y-60112161D01*
D12*
X137516601Y-95594401D02*
X109616601Y-95594401D01*
X137516601Y-41194401D02*
X137516601Y-95594401D01*
X109616601Y-41194401D02*
X137516601Y-41194401D01*
X109616601Y-95594401D02*
X109616601Y-41194401D01*
D13*
X114996600Y-164961400D02*
X109936600Y-164961400D01*
X109936600Y-164961400D02*
X109936600Y-153241400D01*
X109936600Y-153241400D02*
X111356600Y-153241400D01*
X111356600Y-153241400D02*
X111356600Y-157741400D01*
X114996600Y-164961400D02*
X120056600Y-164961400D01*
X120056600Y-164961400D02*
X120056600Y-153241400D01*
X120056600Y-153241400D02*
X118636600Y-153241400D01*
X118636600Y-153241400D02*
X118636600Y-157741400D01*
X112246600Y-158851400D02*
X112246600Y-164351400D01*
X112246600Y-164351400D02*
X112746600Y-164351400D01*
X112746600Y-164351400D02*
X112746600Y-158851400D01*
X112746600Y-158851400D02*
X112246600Y-158851400D01*
X114746600Y-158851400D02*
X114746600Y-164351400D01*
X114746600Y-164351400D02*
X115246600Y-164351400D01*
X115246600Y-164351400D02*
X115246600Y-158851400D01*
X115246600Y-158851400D02*
X114746600Y-158851400D01*
X117246600Y-158851400D02*
X117246600Y-164351400D01*
X117246600Y-164351400D02*
X117746600Y-164351400D01*
X117746600Y-164351400D02*
X117746600Y-158851400D01*
X117746600Y-158851400D02*
X117246600Y-158851400D01*
X112496600Y-155751400D02*
X112196600Y-155151400D01*
X112196600Y-155151400D02*
X112796600Y-155151400D01*
X112796600Y-155151400D02*
X112496600Y-155751400D01*
X137388600Y-157505400D02*
X137388600Y-165125400D01*
X122148600Y-157505400D02*
X122148600Y-165125400D01*
X137388600Y-158775400D02*
X122148600Y-158775400D01*
X137388600Y-165125400D02*
X122148600Y-165125400D01*
X137388600Y-157505400D02*
X122148600Y-157505400D01*
X139928600Y-158775400D02*
X150088600Y-158775400D01*
X139928600Y-157505400D02*
X139928600Y-165125400D01*
X139928600Y-165125400D02*
X150088600Y-165125400D01*
X150088600Y-165125400D02*
X150088600Y-157505400D01*
X150088600Y-157505400D02*
X139928600Y-157505400D01*
X115712600Y-129651400D02*
X136712600Y-129651400D01*
X136712600Y-129651400D02*
X136712600Y-108651400D01*
X136712600Y-108651400D02*
X115712600Y-108651400D01*
X115712600Y-108651400D02*
X115712600Y-129651400D01*
X148370600Y-153501400D02*
X148370600Y-150841400D01*
X143230600Y-153501400D02*
X148370600Y-153501400D01*
X143230600Y-150841400D02*
X148370600Y-150841400D01*
X143230600Y-153501400D02*
X143230600Y-150841400D01*
X141960600Y-153501400D02*
X140630600Y-153501400D01*
X140630600Y-153501400D02*
X140630600Y-152171400D01*
X108238600Y-84921400D02*
X106908600Y-84921400D01*
X108238600Y-83591400D02*
X108238600Y-84921400D01*
X108238600Y-82321400D02*
X105578600Y-82321400D01*
X105578600Y-82321400D02*
X105578600Y-77181400D01*
X108238600Y-82321400D02*
X108238600Y-77181400D01*
X108238600Y-77181400D02*
X105578600Y-77181400D01*
X150638200Y-85445600D02*
X153298200Y-85445600D01*
X150638200Y-85445600D02*
X150638200Y-93125600D01*
X150638200Y-93125600D02*
X153298200Y-93125600D01*
X153298200Y-85445600D02*
X153298200Y-93125600D01*
X153298200Y-82845600D02*
X153298200Y-84175600D01*
X151968200Y-82845600D02*
X153298200Y-82845600D01*
D14*
X106591266Y-33243780D02*
X106257933Y-32767590D01*
X106019838Y-33243780D02*
X106019838Y-32243780D01*
X106400790Y-32243780D01*
X106496028Y-32291400D01*
X106543647Y-32339019D01*
X106591266Y-32434257D01*
X106591266Y-32577114D01*
X106543647Y-32672352D01*
X106496028Y-32719971D01*
X106400790Y-32767590D01*
X106019838Y-32767590D01*
X107019838Y-32719971D02*
X107353171Y-32719971D01*
X107496028Y-33243780D02*
X107019838Y-33243780D01*
X107019838Y-32243780D01*
X107496028Y-32243780D01*
X108257933Y-32719971D02*
X107924600Y-32719971D01*
X107924600Y-33243780D02*
X107924600Y-32243780D01*
X108400790Y-32243780D01*
X108924600Y-32243780D02*
X108924600Y-32481876D01*
X108686504Y-32386638D02*
X108924600Y-32481876D01*
X109162695Y-32386638D01*
X108781742Y-32672352D02*
X108924600Y-32481876D01*
X109067457Y-32672352D01*
X109686504Y-32243780D02*
X109686504Y-32481876D01*
X109448409Y-32386638D02*
X109686504Y-32481876D01*
X109924600Y-32386638D01*
X109543647Y-32672352D02*
X109686504Y-32481876D01*
X109829361Y-32672352D01*
X153327266Y-33243780D02*
X152993933Y-32767590D01*
X152755838Y-33243780D02*
X152755838Y-32243780D01*
X153136790Y-32243780D01*
X153232028Y-32291400D01*
X153279647Y-32339019D01*
X153327266Y-32434257D01*
X153327266Y-32577114D01*
X153279647Y-32672352D01*
X153232028Y-32719971D01*
X153136790Y-32767590D01*
X152755838Y-32767590D01*
X153755838Y-32719971D02*
X154089171Y-32719971D01*
X154232028Y-33243780D02*
X153755838Y-33243780D01*
X153755838Y-32243780D01*
X154232028Y-32243780D01*
X154993933Y-32719971D02*
X154660600Y-32719971D01*
X154660600Y-33243780D02*
X154660600Y-32243780D01*
X155136790Y-32243780D01*
X155660600Y-32243780D02*
X155660600Y-32481876D01*
X155422504Y-32386638D02*
X155660600Y-32481876D01*
X155898695Y-32386638D01*
X155517742Y-32672352D02*
X155660600Y-32481876D01*
X155803457Y-32672352D01*
X156422504Y-32243780D02*
X156422504Y-32481876D01*
X156184409Y-32386638D02*
X156422504Y-32481876D01*
X156660600Y-32386638D01*
X156279647Y-32672352D02*
X156422504Y-32481876D01*
X156565361Y-32672352D01*
X153327266Y-177261780D02*
X152993933Y-176785590D01*
X152755838Y-177261780D02*
X152755838Y-176261780D01*
X153136790Y-176261780D01*
X153232028Y-176309400D01*
X153279647Y-176357019D01*
X153327266Y-176452257D01*
X153327266Y-176595114D01*
X153279647Y-176690352D01*
X153232028Y-176737971D01*
X153136790Y-176785590D01*
X152755838Y-176785590D01*
X153755838Y-176737971D02*
X154089171Y-176737971D01*
X154232028Y-177261780D02*
X153755838Y-177261780D01*
X153755838Y-176261780D01*
X154232028Y-176261780D01*
X154993933Y-176737971D02*
X154660600Y-176737971D01*
X154660600Y-177261780D02*
X154660600Y-176261780D01*
X155136790Y-176261780D01*
X155660600Y-176261780D02*
X155660600Y-176499876D01*
X155422504Y-176404638D02*
X155660600Y-176499876D01*
X155898695Y-176404638D01*
X155517742Y-176690352D02*
X155660600Y-176499876D01*
X155803457Y-176690352D01*
X156422504Y-176261780D02*
X156422504Y-176499876D01*
X156184409Y-176404638D02*
X156422504Y-176499876D01*
X156660600Y-176404638D01*
X156279647Y-176690352D02*
X156422504Y-176499876D01*
X156565361Y-176690352D01*
X106591266Y-178277780D02*
X106257933Y-177801590D01*
X106019838Y-178277780D02*
X106019838Y-177277780D01*
X106400790Y-177277780D01*
X106496028Y-177325400D01*
X106543647Y-177373019D01*
X106591266Y-177468257D01*
X106591266Y-177611114D01*
X106543647Y-177706352D01*
X106496028Y-177753971D01*
X106400790Y-177801590D01*
X106019838Y-177801590D01*
X107019838Y-177753971D02*
X107353171Y-177753971D01*
X107496028Y-178277780D02*
X107019838Y-178277780D01*
X107019838Y-177277780D01*
X107496028Y-177277780D01*
X108257933Y-177753971D02*
X107924600Y-177753971D01*
X107924600Y-178277780D02*
X107924600Y-177277780D01*
X108400790Y-177277780D01*
X108924600Y-177277780D02*
X108924600Y-177515876D01*
X108686504Y-177420638D02*
X108924600Y-177515876D01*
X109162695Y-177420638D01*
X108781742Y-177706352D02*
X108924600Y-177515876D01*
X109067457Y-177706352D01*
X109686504Y-177277780D02*
X109686504Y-177515876D01*
X109448409Y-177420638D02*
X109686504Y-177515876D01*
X109924600Y-177420638D01*
X109543647Y-177706352D02*
X109686504Y-177515876D01*
X109829361Y-177706352D01*
D15*
X107416401Y-40371569D02*
X107416401Y-41181405D01*
X107464038Y-41276680D01*
X107511676Y-41324318D01*
X107606950Y-41371955D01*
X107797500Y-41371955D01*
X107892775Y-41324318D01*
X107940412Y-41276680D01*
X107988050Y-41181405D01*
X107988050Y-40371569D01*
X108416787Y-40466844D02*
X108464424Y-40419207D01*
X108559699Y-40371569D01*
X108797886Y-40371569D01*
X108893161Y-40419207D01*
X108940798Y-40466844D01*
X108988436Y-40562119D01*
X108988436Y-40657394D01*
X108940798Y-40800306D01*
X108369149Y-41371955D01*
X108988436Y-41371955D01*
D14*
X114663266Y-151603780D02*
X114663266Y-152318066D01*
X114615647Y-152460923D01*
X114520409Y-152556161D01*
X114377552Y-152603780D01*
X114282314Y-152603780D01*
X115663266Y-152603780D02*
X115091838Y-152603780D01*
X115377552Y-152603780D02*
X115377552Y-151603780D01*
X115282314Y-151746638D01*
X115187076Y-151841876D01*
X115091838Y-151889495D01*
X129465266Y-165417780D02*
X129465266Y-166132066D01*
X129417647Y-166274923D01*
X129322409Y-166370161D01*
X129179552Y-166417780D01*
X129084314Y-166417780D01*
X129893838Y-165513019D02*
X129941457Y-165465400D01*
X130036695Y-165417780D01*
X130274790Y-165417780D01*
X130370028Y-165465400D01*
X130417647Y-165513019D01*
X130465266Y-165608257D01*
X130465266Y-165703495D01*
X130417647Y-165846352D01*
X129846219Y-166417780D01*
X130465266Y-166417780D01*
X144675266Y-165847780D02*
X144675266Y-166562066D01*
X144627647Y-166704923D01*
X144532409Y-166800161D01*
X144389552Y-166847780D01*
X144294314Y-166847780D01*
X145056219Y-165847780D02*
X145675266Y-165847780D01*
X145341933Y-166228733D01*
X145484790Y-166228733D01*
X145580028Y-166276352D01*
X145627647Y-166323971D01*
X145675266Y-166419209D01*
X145675266Y-166657304D01*
X145627647Y-166752542D01*
X145580028Y-166800161D01*
X145484790Y-166847780D01*
X145199076Y-166847780D01*
X145103838Y-166800161D01*
X145056219Y-166752542D01*
X137094980Y-119913304D02*
X137904504Y-119913304D01*
X137999742Y-119865685D01*
X138047361Y-119818066D01*
X138094980Y-119722828D01*
X138094980Y-119532352D01*
X138047361Y-119437114D01*
X137999742Y-119389495D01*
X137904504Y-119341876D01*
X137094980Y-119341876D01*
X137094980Y-118389495D02*
X137094980Y-118865685D01*
X137571171Y-118913304D01*
X137523552Y-118865685D01*
X137475933Y-118770447D01*
X137475933Y-118532352D01*
X137523552Y-118437114D01*
X137571171Y-118389495D01*
X137666409Y-118341876D01*
X137904504Y-118341876D01*
X137999742Y-118389495D01*
X138047361Y-118437114D01*
X138094980Y-118532352D01*
X138094980Y-118770447D01*
X138047361Y-118865685D01*
X137999742Y-118913304D01*
D10*
X116501171Y-125163542D02*
X118001171Y-124663542D01*
X116501171Y-124163542D01*
X118001171Y-123663542D02*
X116501171Y-123663542D01*
X117572600Y-123163542D01*
X116501171Y-122663542D01*
X118001171Y-122663542D01*
X119041171Y-125163542D02*
X120541171Y-124663542D01*
X119041171Y-124163542D01*
X120398314Y-122806400D02*
X120469742Y-122877828D01*
X120541171Y-123092114D01*
X120541171Y-123234971D01*
X120469742Y-123449257D01*
X120326885Y-123592114D01*
X120184028Y-123663542D01*
X119898314Y-123734971D01*
X119684028Y-123734971D01*
X119398314Y-123663542D01*
X119255457Y-123592114D01*
X119112600Y-123449257D01*
X119041171Y-123234971D01*
X119041171Y-123092114D01*
X119112600Y-122877828D01*
X119184028Y-122806400D01*
X120398314Y-121306400D02*
X120469742Y-121377828D01*
X120541171Y-121592114D01*
X120541171Y-121734971D01*
X120469742Y-121949257D01*
X120326885Y-122092114D01*
X120184028Y-122163542D01*
X119898314Y-122234971D01*
X119684028Y-122234971D01*
X119398314Y-122163542D01*
X119255457Y-122092114D01*
X119112600Y-121949257D01*
X119041171Y-121734971D01*
X119041171Y-121592114D01*
X119112600Y-121377828D01*
X119184028Y-121306400D01*
X121652600Y-124163542D02*
X121581171Y-124306400D01*
X121581171Y-124520685D01*
X121652600Y-124734971D01*
X121795457Y-124877828D01*
X121938314Y-124949257D01*
X122224028Y-125020685D01*
X122438314Y-125020685D01*
X122724028Y-124949257D01*
X122866885Y-124877828D01*
X123009742Y-124734971D01*
X123081171Y-124520685D01*
X123081171Y-124377828D01*
X123009742Y-124163542D01*
X122938314Y-124092114D01*
X122438314Y-124092114D01*
X122438314Y-124377828D01*
X123081171Y-123449257D02*
X121581171Y-123449257D01*
X123081171Y-122592114D01*
X121581171Y-122592114D01*
X123081171Y-121877828D02*
X121581171Y-121877828D01*
X121581171Y-121520685D01*
X121652600Y-121306400D01*
X121795457Y-121163542D01*
X121938314Y-121092114D01*
X122224028Y-121020685D01*
X122438314Y-121020685D01*
X122724028Y-121092114D01*
X122866885Y-121163542D01*
X123009742Y-121306400D01*
X123081171Y-121520685D01*
X123081171Y-121877828D01*
X125192600Y-125020685D02*
X125192600Y-124306400D01*
X125621171Y-125163542D02*
X124121171Y-124663542D01*
X125621171Y-124163542D01*
X124121171Y-123377828D02*
X124121171Y-123234971D01*
X124192600Y-123092114D01*
X124264028Y-123020685D01*
X124406885Y-122949257D01*
X124692600Y-122877828D01*
X125049742Y-122877828D01*
X125335457Y-122949257D01*
X125478314Y-123020685D01*
X125549742Y-123092114D01*
X125621171Y-123234971D01*
X125621171Y-123377828D01*
X125549742Y-123520685D01*
X125478314Y-123592114D01*
X125335457Y-123663542D01*
X125049742Y-123734971D01*
X124692600Y-123734971D01*
X124406885Y-123663542D01*
X124264028Y-123592114D01*
X124192600Y-123520685D01*
X124121171Y-123377828D01*
X125621171Y-121449257D02*
X125621171Y-122306400D01*
X125621171Y-121877828D02*
X124121171Y-121877828D01*
X124335457Y-122020685D01*
X124478314Y-122163542D01*
X124549742Y-122306400D01*
X127732600Y-125020685D02*
X127732600Y-124306400D01*
X128161171Y-125163542D02*
X126661171Y-124663542D01*
X128161171Y-124163542D01*
X126661171Y-123377828D02*
X126661171Y-123234971D01*
X126732600Y-123092114D01*
X126804028Y-123020685D01*
X126946885Y-122949257D01*
X127232600Y-122877828D01*
X127589742Y-122877828D01*
X127875457Y-122949257D01*
X128018314Y-123020685D01*
X128089742Y-123092114D01*
X128161171Y-123234971D01*
X128161171Y-123377828D01*
X128089742Y-123520685D01*
X128018314Y-123592114D01*
X127875457Y-123663542D01*
X127589742Y-123734971D01*
X127232600Y-123734971D01*
X126946885Y-123663542D01*
X126804028Y-123592114D01*
X126732600Y-123520685D01*
X126661171Y-123377828D01*
X126804028Y-122306400D02*
X126732600Y-122234971D01*
X126661171Y-122092114D01*
X126661171Y-121734971D01*
X126732600Y-121592114D01*
X126804028Y-121520685D01*
X126946885Y-121449257D01*
X127089742Y-121449257D01*
X127304028Y-121520685D01*
X128161171Y-122377828D01*
X128161171Y-121449257D01*
X129915457Y-124449257D02*
X129986885Y-124234971D01*
X130058314Y-124163542D01*
X130201171Y-124092114D01*
X130415457Y-124092114D01*
X130558314Y-124163542D01*
X130629742Y-124234971D01*
X130701171Y-124377828D01*
X130701171Y-124949257D01*
X129201171Y-124949257D01*
X129201171Y-124449257D01*
X129272600Y-124306400D01*
X129344028Y-124234971D01*
X129486885Y-124163542D01*
X129629742Y-124163542D01*
X129772600Y-124234971D01*
X129844028Y-124306400D01*
X129915457Y-124449257D01*
X129915457Y-124949257D01*
X129201171Y-123163542D02*
X129201171Y-123020685D01*
X129272600Y-122877828D01*
X129344028Y-122806400D01*
X129486885Y-122734971D01*
X129772600Y-122663542D01*
X130129742Y-122663542D01*
X130415457Y-122734971D01*
X130558314Y-122806400D01*
X130629742Y-122877828D01*
X130701171Y-123020685D01*
X130701171Y-123163542D01*
X130629742Y-123306400D01*
X130558314Y-123377828D01*
X130415457Y-123449257D01*
X130129742Y-123520685D01*
X129772600Y-123520685D01*
X129486885Y-123449257D01*
X129344028Y-123377828D01*
X129272600Y-123306400D01*
X129201171Y-123163542D01*
X130701171Y-121234971D02*
X130701171Y-122092114D01*
X130701171Y-121663542D02*
X129201171Y-121663542D01*
X129415457Y-121806400D01*
X129558314Y-121949257D01*
X129629742Y-122092114D01*
X132455457Y-124449257D02*
X132526885Y-124234971D01*
X132598314Y-124163542D01*
X132741171Y-124092114D01*
X132955457Y-124092114D01*
X133098314Y-124163542D01*
X133169742Y-124234971D01*
X133241171Y-124377828D01*
X133241171Y-124949257D01*
X131741171Y-124949257D01*
X131741171Y-124449257D01*
X131812600Y-124306400D01*
X131884028Y-124234971D01*
X132026885Y-124163542D01*
X132169742Y-124163542D01*
X132312600Y-124234971D01*
X132384028Y-124306400D01*
X132455457Y-124449257D01*
X132455457Y-124949257D01*
X131741171Y-123163542D02*
X131741171Y-123020685D01*
X131812600Y-122877828D01*
X131884028Y-122806400D01*
X132026885Y-122734971D01*
X132312600Y-122663542D01*
X132669742Y-122663542D01*
X132955457Y-122734971D01*
X133098314Y-122806400D01*
X133169742Y-122877828D01*
X133241171Y-123020685D01*
X133241171Y-123163542D01*
X133169742Y-123306400D01*
X133098314Y-123377828D01*
X132955457Y-123449257D01*
X132669742Y-123520685D01*
X132312600Y-123520685D01*
X132026885Y-123449257D01*
X131884028Y-123377828D01*
X131812600Y-123306400D01*
X131741171Y-123163542D01*
X131884028Y-122092114D02*
X131812600Y-122020685D01*
X131741171Y-121877828D01*
X131741171Y-121520685D01*
X131812600Y-121377828D01*
X131884028Y-121306400D01*
X132026885Y-121234971D01*
X132169742Y-121234971D01*
X132384028Y-121306400D01*
X133241171Y-122163542D01*
X133241171Y-121234971D01*
X134352600Y-124163542D02*
X134281171Y-124306400D01*
X134281171Y-124520685D01*
X134352600Y-124734971D01*
X134495457Y-124877828D01*
X134638314Y-124949257D01*
X134924028Y-125020685D01*
X135138314Y-125020685D01*
X135424028Y-124949257D01*
X135566885Y-124877828D01*
X135709742Y-124734971D01*
X135781171Y-124520685D01*
X135781171Y-124377828D01*
X135709742Y-124163542D01*
X135638314Y-124092114D01*
X135138314Y-124092114D01*
X135138314Y-124377828D01*
X135781171Y-123449257D02*
X134281171Y-123449257D01*
X135781171Y-122592114D01*
X134281171Y-122592114D01*
X135781171Y-121877828D02*
X134281171Y-121877828D01*
X134281171Y-121520685D01*
X134352600Y-121306400D01*
X134495457Y-121163542D01*
X134638314Y-121092114D01*
X134924028Y-121020685D01*
X135138314Y-121020685D01*
X135424028Y-121092114D01*
X135566885Y-121163542D01*
X135709742Y-121306400D01*
X135781171Y-121520685D01*
X135781171Y-121877828D01*
X118001171Y-118853542D02*
X116501171Y-118853542D01*
X116501171Y-118282114D01*
X116572600Y-118139257D01*
X116644028Y-118067828D01*
X116786885Y-117996400D01*
X117001171Y-117996400D01*
X117144028Y-118067828D01*
X117215457Y-118139257D01*
X117286885Y-118282114D01*
X117286885Y-118853542D01*
X116501171Y-117496400D02*
X118001171Y-117139257D01*
X116929742Y-116853542D01*
X118001171Y-116567828D01*
X116501171Y-116210685D01*
X118001171Y-115639257D02*
X116501171Y-115639257D01*
X117572600Y-115139257D01*
X116501171Y-114639257D01*
X118001171Y-114639257D01*
X117572600Y-113996400D02*
X117572600Y-113282114D01*
X118001171Y-114139257D02*
X116501171Y-113639257D01*
X118001171Y-113139257D01*
X120112600Y-116139257D02*
X120112600Y-115424971D01*
X120541171Y-116282114D02*
X119041171Y-115782114D01*
X120541171Y-115282114D01*
X120541171Y-114782114D02*
X119041171Y-114782114D01*
X119184028Y-114139257D02*
X119112600Y-114067828D01*
X119041171Y-113924971D01*
X119041171Y-113567828D01*
X119112600Y-113424971D01*
X119184028Y-113353542D01*
X119326885Y-113282114D01*
X119469742Y-113282114D01*
X119684028Y-113353542D01*
X120541171Y-114210685D01*
X120541171Y-113282114D01*
X122652600Y-116139257D02*
X122652600Y-115424971D01*
X123081171Y-116282114D02*
X121581171Y-115782114D01*
X123081171Y-115282114D01*
X123081171Y-114782114D02*
X121581171Y-114782114D01*
X123081171Y-113282114D02*
X123081171Y-114139257D01*
X123081171Y-113710685D02*
X121581171Y-113710685D01*
X121795457Y-113853542D01*
X121938314Y-113996400D01*
X122009742Y-114139257D01*
X125549742Y-118067828D02*
X125621171Y-117853542D01*
X125621171Y-117496400D01*
X125549742Y-117353542D01*
X125478314Y-117282114D01*
X125335457Y-117210685D01*
X125192600Y-117210685D01*
X125049742Y-117282114D01*
X124978314Y-117353542D01*
X124906885Y-117496400D01*
X124835457Y-117782114D01*
X124764028Y-117924971D01*
X124692600Y-117996400D01*
X124549742Y-118067828D01*
X124406885Y-118067828D01*
X124264028Y-117996400D01*
X124192600Y-117924971D01*
X124121171Y-117782114D01*
X124121171Y-117424971D01*
X124192600Y-117210685D01*
X124121171Y-116782114D02*
X124121171Y-115924971D01*
X125621171Y-116353542D02*
X124121171Y-116353542D01*
X124835457Y-114924971D02*
X124906885Y-114710685D01*
X124978314Y-114639257D01*
X125121171Y-114567828D01*
X125335457Y-114567828D01*
X125478314Y-114639257D01*
X125549742Y-114710685D01*
X125621171Y-114853542D01*
X125621171Y-115424971D01*
X124121171Y-115424971D01*
X124121171Y-114924971D01*
X124192600Y-114782114D01*
X124264028Y-114710685D01*
X124406885Y-114639257D01*
X124549742Y-114639257D01*
X124692600Y-114710685D01*
X124764028Y-114782114D01*
X124835457Y-114924971D01*
X124835457Y-115424971D01*
X124906885Y-113639257D02*
X125621171Y-113639257D01*
X124121171Y-114139257D02*
X124906885Y-113639257D01*
X124121171Y-113139257D01*
X127375457Y-115782114D02*
X127446885Y-115567828D01*
X127518314Y-115496400D01*
X127661171Y-115424971D01*
X127875457Y-115424971D01*
X128018314Y-115496400D01*
X128089742Y-115567828D01*
X128161171Y-115710685D01*
X128161171Y-116282114D01*
X126661171Y-116282114D01*
X126661171Y-115782114D01*
X126732600Y-115639257D01*
X126804028Y-115567828D01*
X126946885Y-115496400D01*
X127089742Y-115496400D01*
X127232600Y-115567828D01*
X127304028Y-115639257D01*
X127375457Y-115782114D01*
X127375457Y-116282114D01*
X128161171Y-114782114D02*
X126661171Y-114782114D01*
X128161171Y-113282114D02*
X128161171Y-114139257D01*
X128161171Y-113710685D02*
X126661171Y-113710685D01*
X126875457Y-113853542D01*
X127018314Y-113996400D01*
X127089742Y-114139257D01*
X129915457Y-115782114D02*
X129986885Y-115567828D01*
X130058314Y-115496400D01*
X130201171Y-115424971D01*
X130415457Y-115424971D01*
X130558314Y-115496400D01*
X130629742Y-115567828D01*
X130701171Y-115710685D01*
X130701171Y-116282114D01*
X129201171Y-116282114D01*
X129201171Y-115782114D01*
X129272600Y-115639257D01*
X129344028Y-115567828D01*
X129486885Y-115496400D01*
X129629742Y-115496400D01*
X129772600Y-115567828D01*
X129844028Y-115639257D01*
X129915457Y-115782114D01*
X129915457Y-116282114D01*
X130701171Y-114782114D02*
X129201171Y-114782114D01*
X129344028Y-114139257D02*
X129272600Y-114067828D01*
X129201171Y-113924971D01*
X129201171Y-113567828D01*
X129272600Y-113424971D01*
X129344028Y-113353542D01*
X129486885Y-113282114D01*
X129629742Y-113282114D01*
X129844028Y-113353542D01*
X130701171Y-114210685D01*
X130701171Y-113282114D01*
X133241171Y-119067828D02*
X131741171Y-119067828D01*
X131741171Y-118496400D01*
X131812600Y-118353542D01*
X131884028Y-118282114D01*
X132026885Y-118210685D01*
X132241171Y-118210685D01*
X132384028Y-118282114D01*
X132455457Y-118353542D01*
X132526885Y-118496400D01*
X132526885Y-119067828D01*
X131741171Y-117710685D02*
X133241171Y-117353542D01*
X132169742Y-117067828D01*
X133241171Y-116782114D01*
X131741171Y-116424971D01*
X133241171Y-115853542D02*
X131741171Y-115853542D01*
X132812600Y-115353542D01*
X131741171Y-114853542D01*
X133241171Y-114853542D01*
X132455457Y-113639257D02*
X132526885Y-113424971D01*
X132598314Y-113353542D01*
X132741171Y-113282114D01*
X132955457Y-113282114D01*
X133098314Y-113353542D01*
X133169742Y-113424971D01*
X133241171Y-113567828D01*
X133241171Y-114139257D01*
X131741171Y-114139257D01*
X131741171Y-113639257D01*
X131812600Y-113496400D01*
X131884028Y-113424971D01*
X132026885Y-113353542D01*
X132169742Y-113353542D01*
X132312600Y-113424971D01*
X132384028Y-113496400D01*
X132455457Y-113639257D01*
X132455457Y-114139257D01*
X134352600Y-116424971D02*
X134281171Y-116567828D01*
X134281171Y-116782114D01*
X134352600Y-116996400D01*
X134495457Y-117139257D01*
X134638314Y-117210685D01*
X134924028Y-117282114D01*
X135138314Y-117282114D01*
X135424028Y-117210685D01*
X135566885Y-117139257D01*
X135709742Y-116996400D01*
X135781171Y-116782114D01*
X135781171Y-116639257D01*
X135709742Y-116424971D01*
X135638314Y-116353542D01*
X135138314Y-116353542D01*
X135138314Y-116639257D01*
X135781171Y-115710685D02*
X134281171Y-115710685D01*
X135781171Y-114853542D01*
X134281171Y-114853542D01*
X135781171Y-114139257D02*
X134281171Y-114139257D01*
X134281171Y-113782114D01*
X134352600Y-113567828D01*
X134495457Y-113424971D01*
X134638314Y-113353542D01*
X134924028Y-113282114D01*
X135138314Y-113282114D01*
X135424028Y-113353542D01*
X135566885Y-113424971D01*
X135709742Y-113567828D01*
X135781171Y-113782114D01*
X135781171Y-114139257D01*
D14*
X139082980Y-152504733D02*
X139797266Y-152504733D01*
X139940123Y-152552352D01*
X140035361Y-152647590D01*
X140082980Y-152790447D01*
X140082980Y-152885685D01*
X139082980Y-151552352D02*
X139082980Y-152028542D01*
X139559171Y-152076161D01*
X139511552Y-152028542D01*
X139463933Y-151933304D01*
X139463933Y-151695209D01*
X139511552Y-151599971D01*
X139559171Y-151552352D01*
X139654409Y-151504733D01*
X139892504Y-151504733D01*
X139987742Y-151552352D01*
X140035361Y-151599971D01*
X140082980Y-151695209D01*
X140082980Y-151933304D01*
X140035361Y-152028542D01*
X139987742Y-152076161D01*
X109369266Y-83805780D02*
X109369266Y-84520066D01*
X109321647Y-84662923D01*
X109226409Y-84758161D01*
X109083552Y-84805780D01*
X108988314Y-84805780D01*
X110274028Y-83805780D02*
X110083552Y-83805780D01*
X109988314Y-83853400D01*
X109940695Y-83901019D01*
X109845457Y-84043876D01*
X109797838Y-84234352D01*
X109797838Y-84615304D01*
X109845457Y-84710542D01*
X109893076Y-84758161D01*
X109988314Y-84805780D01*
X110178790Y-84805780D01*
X110274028Y-84758161D01*
X110321647Y-84710542D01*
X110369266Y-84615304D01*
X110369266Y-84377209D01*
X110321647Y-84281971D01*
X110274028Y-84234352D01*
X110178790Y-84186733D01*
X109988314Y-84186733D01*
X109893076Y-84234352D01*
X109845457Y-84281971D01*
X109797838Y-84377209D01*
X151634866Y-80857980D02*
X151634866Y-81572266D01*
X151587247Y-81715123D01*
X151492009Y-81810361D01*
X151349152Y-81857980D01*
X151253914Y-81857980D01*
X152539628Y-81191314D02*
X152539628Y-81857980D01*
X152301533Y-80810361D02*
X152063438Y-81524647D01*
X152682485Y-81524647D01*
M02*
