M48
INCH,TZ
T1C0.0157
T2C0.0300
T3C0.0374
T4C0.0394
T5C0.0409
T6C0.0598
T7C0.0900
%
G90
G05
T1
X44420Y-36740
X45490Y-41110
X45670Y-36710
X50350Y-36430
X52570Y-37690
X53690Y-41110
X53690Y-42110
X54790Y-24110
X54790Y-30110
X54790Y-32110
X55790Y-23110
X56280Y-37900
X56870Y-34920
X56890Y-41710
X56890Y-44510
X57490Y-61110
X57890Y-41710
X57890Y-45910
X59690Y-61110
T2
X46290Y-28610
X46290Y-29610
X46290Y-30610
X46290Y-31610
X46290Y-32610
X56290Y-28610
X56290Y-29610
X56290Y-30610
X56290Y-31610
X56290Y-32610
X56290Y-33610
X56290Y-34610
X56290Y-35610
X56290Y-36610
X46190Y-43910
X46190Y-49910
X47190Y-43910
X47190Y-49910
X48190Y-43910
X48190Y-49910
X49190Y-43910
X49190Y-49910
X50190Y-43910
X50190Y-49910
X51190Y-43910
X51190Y-49910
X52190Y-43910
X52190Y-49910
X53190Y-43910
X53190Y-49910
X56690Y-17610
X56690Y-18610
X56690Y-19610
X56690Y-20610
X56690Y-21610
X56690Y-22610
X56690Y-23610
X56690Y-24610
X56690Y-25610
T3
X44290Y-61910
X45274Y-61910
X46259Y-61910
T4
X42090Y-30910
X42090Y-31910
X42090Y-32910
X42190Y-40010
X42190Y-41010
X42190Y-42010
X42190Y-43010
X42190Y-44010
X42190Y-45010
X42190Y-47010
X42190Y-48010
X42190Y-49010
X42190Y-50010
X42190Y-51010
X42190Y-52010
X42190Y-53010
X42190Y-54010
X61190Y-40010
X61190Y-41010
X61190Y-42010
X61190Y-43010
X61190Y-44010
X61190Y-45010
X61190Y-46010
X61190Y-47010
X61190Y-48608
X61190Y-49608
X61190Y-50608
X61190Y-51608
X61190Y-52608
X61190Y-53608
X61190Y-54608
X61190Y-55608
X61190Y-56608
X61190Y-57608
X59830Y-33140
X59830Y-34140
X59830Y-35140
X59830Y-36140
X55890Y-59910
X56890Y-59910
X57890Y-59910
T5
X43648Y-19128
X43648Y-20128
X43648Y-21128
X43648Y-22128
X43648Y-23128
X43648Y-24128
X43648Y-25128
X43648Y-26128
X43648Y-27128
X43648Y-28128
X43648Y-29128
X43648Y-30128
X43648Y-31128
X43648Y-32128
X43648Y-33128
X43648Y-34128
X43648Y-35128
X43648Y-36128
X43648Y-37128
X53648Y-19128
X53648Y-20128
X53648Y-21128
X53648Y-22128
X53648Y-23128
X53648Y-24128
X53648Y-25128
X53648Y-26128
X53648Y-27128
X53648Y-28128
X53648Y-29128
X53648Y-30128
X53648Y-31128
X53648Y-32128
X53648Y-33128
X53648Y-34128
X53648Y-35128
X53648Y-36128
X53648Y-37128
T6
X49090Y-63510
X51090Y-63510
X53090Y-63510
X56090Y-63510
X58090Y-63510
T7
X45090Y-17610
X45090Y-25610
T0
M30
