G04 #@! TF.GenerationSoftware,KiCad,Pcbnew,5.1.6-c6e7f7d~87~ubuntu20.04.1*
G04 #@! TF.CreationDate,2020-08-06T14:16:39-04:00*
G04 #@! TF.ProjectId,Buoy_WithGSM,42756f79-5f57-4697-9468-47534d2e6b69,Leonardo Ward*
G04 #@! TF.SameCoordinates,Original*
G04 #@! TF.FileFunction,OtherDrawing,Comment*
%FSLAX46Y46*%
G04 Gerber Fmt 4.6, Leading zero omitted, Abs format (unit mm)*
G04 Created by KiCad (PCBNEW 5.1.6-c6e7f7d~87~ubuntu20.04.1) date 2020-08-06 14:16:39*
%MOMM*%
%LPD*%
G01*
G04 APERTURE LIST*
%ADD10C,0.150000*%
%ADD11C,0.300000*%
G04 APERTURE END LIST*
D10*
X138404600Y-183159400D02*
X158724600Y-183159400D01*
X103860600Y-183159400D02*
X119608600Y-183159400D01*
D11*
X122974885Y-182064161D02*
X122022504Y-182064161D01*
X121927266Y-183016542D01*
X122022504Y-182921304D01*
X122212980Y-182826066D01*
X122689171Y-182826066D01*
X122879647Y-182921304D01*
X122974885Y-183016542D01*
X123070123Y-183207019D01*
X123070123Y-183683209D01*
X122974885Y-183873685D01*
X122879647Y-183968923D01*
X122689171Y-184064161D01*
X122212980Y-184064161D01*
X122022504Y-183968923D01*
X121927266Y-183873685D01*
X124784409Y-182730828D02*
X124784409Y-184064161D01*
X124308219Y-181968923D02*
X123832028Y-183397495D01*
X125070123Y-183397495D01*
X125832028Y-183873685D02*
X125927266Y-183968923D01*
X125832028Y-184064161D01*
X125736790Y-183968923D01*
X125832028Y-183873685D01*
X125832028Y-184064161D01*
X127070123Y-182921304D02*
X126879647Y-182826066D01*
X126784409Y-182730828D01*
X126689171Y-182540352D01*
X126689171Y-182445114D01*
X126784409Y-182254638D01*
X126879647Y-182159400D01*
X127070123Y-182064161D01*
X127451076Y-182064161D01*
X127641552Y-182159400D01*
X127736790Y-182254638D01*
X127832028Y-182445114D01*
X127832028Y-182540352D01*
X127736790Y-182730828D01*
X127641552Y-182826066D01*
X127451076Y-182921304D01*
X127070123Y-182921304D01*
X126879647Y-183016542D01*
X126784409Y-183111780D01*
X126689171Y-183302257D01*
X126689171Y-183683209D01*
X126784409Y-183873685D01*
X126879647Y-183968923D01*
X127070123Y-184064161D01*
X127451076Y-184064161D01*
X127641552Y-183968923D01*
X127736790Y-183873685D01*
X127832028Y-183683209D01*
X127832028Y-183302257D01*
X127736790Y-183111780D01*
X127641552Y-183016542D01*
X127451076Y-182921304D01*
X129546314Y-182064161D02*
X129165361Y-182064161D01*
X128974885Y-182159400D01*
X128879647Y-182254638D01*
X128689171Y-182540352D01*
X128593933Y-182921304D01*
X128593933Y-183683209D01*
X128689171Y-183873685D01*
X128784409Y-183968923D01*
X128974885Y-184064161D01*
X129355838Y-184064161D01*
X129546314Y-183968923D01*
X129641552Y-183873685D01*
X129736790Y-183683209D01*
X129736790Y-183207019D01*
X129641552Y-183016542D01*
X129546314Y-182921304D01*
X129355838Y-182826066D01*
X128974885Y-182826066D01*
X128784409Y-182921304D01*
X128689171Y-183016542D01*
X128593933Y-183207019D01*
X132117742Y-184064161D02*
X132117742Y-182730828D01*
X132117742Y-182921304D02*
X132212980Y-182826066D01*
X132403457Y-182730828D01*
X132689171Y-182730828D01*
X132879647Y-182826066D01*
X132974885Y-183016542D01*
X132974885Y-184064161D01*
X132974885Y-183016542D02*
X133070123Y-182826066D01*
X133260600Y-182730828D01*
X133546314Y-182730828D01*
X133736790Y-182826066D01*
X133832028Y-183016542D01*
X133832028Y-184064161D01*
X134784409Y-184064161D02*
X134784409Y-182730828D01*
X134784409Y-182921304D02*
X134879647Y-182826066D01*
X135070123Y-182730828D01*
X135355838Y-182730828D01*
X135546314Y-182826066D01*
X135641552Y-183016542D01*
X135641552Y-184064161D01*
X135641552Y-183016542D02*
X135736790Y-182826066D01*
X135927266Y-182730828D01*
X136212980Y-182730828D01*
X136403457Y-182826066D01*
X136498695Y-183016542D01*
X136498695Y-184064161D01*
D10*
X158724600Y-176555400D02*
X158724600Y-189255400D01*
X103860600Y-176555400D02*
X103860600Y-189255400D01*
X91668600Y-175539400D02*
X86588600Y-175539400D01*
X94716600Y-110515400D02*
X94716600Y-175539400D01*
X94716600Y-105435400D02*
X94716600Y-33807400D01*
X91668600Y-33807400D02*
X86588600Y-33807400D01*
D11*
X87573742Y-108880161D02*
X86430885Y-108880161D01*
X87002314Y-108880161D02*
X87002314Y-106880161D01*
X86811838Y-107165876D01*
X86621361Y-107356352D01*
X86430885Y-107451590D01*
X89288028Y-107546828D02*
X89288028Y-108880161D01*
X88811838Y-106784923D02*
X88335647Y-108213495D01*
X89573742Y-108213495D01*
X91383266Y-108880161D02*
X90240409Y-108880161D01*
X90811838Y-108880161D02*
X90811838Y-106880161D01*
X90621361Y-107165876D01*
X90430885Y-107356352D01*
X90240409Y-107451590D01*
X92240409Y-108689685D02*
X92335647Y-108784923D01*
X92240409Y-108880161D01*
X92145171Y-108784923D01*
X92240409Y-108689685D01*
X92240409Y-108880161D01*
X93002314Y-106880161D02*
X94335647Y-106880161D01*
X93478504Y-108880161D01*
X94907076Y-106880161D02*
X96145171Y-106880161D01*
X95478504Y-107642066D01*
X95764219Y-107642066D01*
X95954695Y-107737304D01*
X96049933Y-107832542D01*
X96145171Y-108023019D01*
X96145171Y-108499209D01*
X96049933Y-108689685D01*
X95954695Y-108784923D01*
X95764219Y-108880161D01*
X95192790Y-108880161D01*
X95002314Y-108784923D01*
X94907076Y-108689685D01*
X98526123Y-108880161D02*
X98526123Y-107546828D01*
X98526123Y-107737304D02*
X98621361Y-107642066D01*
X98811838Y-107546828D01*
X99097552Y-107546828D01*
X99288028Y-107642066D01*
X99383266Y-107832542D01*
X99383266Y-108880161D01*
X99383266Y-107832542D02*
X99478504Y-107642066D01*
X99668980Y-107546828D01*
X99954695Y-107546828D01*
X100145171Y-107642066D01*
X100240409Y-107832542D01*
X100240409Y-108880161D01*
X101192790Y-108880161D02*
X101192790Y-107546828D01*
X101192790Y-107737304D02*
X101288028Y-107642066D01*
X101478504Y-107546828D01*
X101764219Y-107546828D01*
X101954695Y-107642066D01*
X102049933Y-107832542D01*
X102049933Y-108880161D01*
X102049933Y-107832542D02*
X102145171Y-107642066D01*
X102335647Y-107546828D01*
X102621361Y-107546828D01*
X102811838Y-107642066D01*
X102907076Y-107832542D01*
X102907076Y-108880161D01*
D10*
X103352600Y-175539400D02*
X91668600Y-175539400D01*
X103352600Y-33807400D02*
X91668600Y-33807400D01*
M02*
