G04 #@! TF.GenerationSoftware,KiCad,Pcbnew,5.1.6-c6e7f7d~87~ubuntu20.04.1*
G04 #@! TF.CreationDate,2020-08-06T14:16:39-04:00*
G04 #@! TF.ProjectId,Buoy_WithGSM,42756f79-5f57-4697-9468-47534d2e6b69,Leonardo Ward*
G04 #@! TF.SameCoordinates,Original*
G04 #@! TF.FileFunction,Soldermask,Bot*
G04 #@! TF.FilePolarity,Negative*
%FSLAX46Y46*%
G04 Gerber Fmt 4.6, Leading zero omitted, Abs format (unit mm)*
G04 Created by KiCad (PCBNEW 5.1.6-c6e7f7d~87~ubuntu20.04.1) date 2020-08-06 14:16:39*
%MOMM*%
%LPD*%
G01*
G04 APERTURE LIST*
%ADD10C,3.300000*%
%ADD11O,1.700000X1.700000*%
%ADD12R,1.700000X1.700000*%
%ADD13R,1.660000X1.660000*%
%ADD14C,1.660000*%
%ADD15C,2.640000*%
%ADD16C,1.624000*%
%ADD17O,1.800000X2.050000*%
%ADD18R,3.100000X3.100000*%
%ADD19C,3.100000*%
%ADD20R,1.800000X1.800000*%
%ADD21O,1.800000X1.800000*%
G04 APERTURE END LIST*
D10*
X107924600Y-37871400D03*
X154660600Y-37871400D03*
X154660600Y-171475400D03*
X107924600Y-171475400D03*
D11*
X155422600Y-146325400D03*
X155422600Y-143785400D03*
D12*
X107162600Y-137185400D03*
D11*
X155422600Y-106705400D03*
X107162600Y-134645400D03*
X155422600Y-109245400D03*
X107162600Y-132105400D03*
X155422600Y-111785400D03*
X107162600Y-129565400D03*
X155422600Y-114325400D03*
X107162600Y-127025400D03*
X155422600Y-116865400D03*
X107162600Y-124485400D03*
X155422600Y-119405400D03*
X107162600Y-121945400D03*
X155422600Y-123465400D03*
X107162600Y-119405400D03*
X155422600Y-126005400D03*
X107162600Y-114325400D03*
X155422600Y-128545400D03*
X107162600Y-111785400D03*
X155422600Y-131085400D03*
X107162600Y-109245400D03*
X155422600Y-133625400D03*
X107162600Y-106705400D03*
X155422600Y-136165400D03*
X107162600Y-104165400D03*
X155422600Y-138705400D03*
X107162600Y-101625400D03*
X155422600Y-141245400D03*
X155422600Y-101625400D03*
X155422600Y-104165400D03*
D10*
X107162600Y-151155400D03*
X155422600Y-149885400D03*
X140182600Y-99085400D03*
X112242600Y-99085400D03*
D13*
X110866601Y-48584401D03*
D14*
X110866601Y-51124401D03*
X110866601Y-94304401D03*
X110866601Y-53664401D03*
X110866601Y-56204401D03*
X110866601Y-58744401D03*
X110866601Y-61284401D03*
X110866601Y-63824401D03*
X110866601Y-66364401D03*
X110866601Y-68904401D03*
X110866601Y-71444401D03*
X110866601Y-73984401D03*
X110866601Y-76524401D03*
X110866601Y-79064401D03*
X110866601Y-81604401D03*
X110866601Y-84144401D03*
X110866601Y-86684401D03*
X110866601Y-89224401D03*
X110866601Y-91764401D03*
X136266601Y-48584401D03*
X136266601Y-51124401D03*
X136266601Y-53664401D03*
X136266601Y-56204401D03*
X136266601Y-58744401D03*
X136266601Y-61284401D03*
X136266601Y-63824401D03*
X136266601Y-66364401D03*
X136266601Y-68904401D03*
X136266601Y-71444401D03*
X136266601Y-73984401D03*
X136266601Y-76524401D03*
X136266601Y-79064401D03*
X136266601Y-81604401D03*
X136266601Y-84144401D03*
X136266601Y-86684401D03*
X136266601Y-89224401D03*
X136266601Y-91764401D03*
X136266601Y-94304401D03*
D15*
X114528600Y-44729400D03*
X114528600Y-65049400D03*
D16*
X143992600Y-65049400D03*
X143992600Y-62509400D03*
X143992600Y-59969400D03*
X143992600Y-57429400D03*
X143992600Y-54889400D03*
X143992600Y-52349400D03*
X143992600Y-49809400D03*
X143992600Y-47269400D03*
X143992600Y-44729400D03*
X142976600Y-72669400D03*
X142976600Y-75209400D03*
X142976600Y-77749400D03*
X142976600Y-80289400D03*
X142976600Y-82829400D03*
X142976600Y-85369400D03*
X142976600Y-87909400D03*
X142976600Y-90449400D03*
X142976600Y-92989400D03*
X117576600Y-82829400D03*
X117576600Y-80289400D03*
X117576600Y-77749400D03*
X117576600Y-75209400D03*
X117576600Y-72669400D03*
G36*
G01*
X111596600Y-158011694D02*
X111596600Y-156491106D01*
G75*
G02*
X111861306Y-156226400I264706J0D01*
G01*
X113131894Y-156226400D01*
G75*
G02*
X113396600Y-156491106I0J-264706D01*
G01*
X113396600Y-158011694D01*
G75*
G02*
X113131894Y-158276400I-264706J0D01*
G01*
X111861306Y-158276400D01*
G75*
G02*
X111596600Y-158011694I0J264706D01*
G01*
G37*
D17*
X114996600Y-157251400D03*
X117496600Y-157251400D03*
D18*
X134848600Y-161315400D03*
D19*
X129768600Y-161315400D03*
X124688600Y-161315400D03*
D18*
X147548600Y-161315400D03*
D19*
X142468600Y-161315400D03*
D16*
X117322600Y-126771400D03*
X119862600Y-126771400D03*
X122402600Y-126771400D03*
X124942600Y-126771400D03*
X127482600Y-126771400D03*
X130022600Y-126771400D03*
X132562600Y-126771400D03*
X135102600Y-126771400D03*
X135102600Y-111531400D03*
X132562600Y-111531400D03*
X130022600Y-111531400D03*
X127482600Y-111531400D03*
X124942600Y-111531400D03*
X122402600Y-111531400D03*
X119862600Y-111531400D03*
X117322600Y-111531400D03*
D20*
X141960600Y-152171400D03*
D21*
X144500600Y-152171400D03*
X147040600Y-152171400D03*
X106908600Y-78511400D03*
X106908600Y-81051400D03*
D20*
X106908600Y-83591400D03*
X151968200Y-84175600D03*
D21*
X151968200Y-86715600D03*
X151968200Y-89255600D03*
X151968200Y-91795600D03*
M02*
